<svg width="169" height="139" viewBox="0 0 169 139" fill="none" xmlns="http://www.w3.org/2000/svg">
<g filter="url(#filter0_d_182_29676)">
<path d="M41.2069 30.271C41.2069 30.271 73.3454 58.0998 78.4192 22.2895C78.4192 22.2895 95.1407 51.1986 128.359 17.3306C128.359 17.3306 121.24 45.7857 155.326 53.0202C155.326 53.0202 138.283 62.6278 145.19 82.9061C145.19 82.9061 113.603 69.6209 106.639 98.2657C106.639 98.2657 77.0229 77.7288 47.9012 105.127C47.9012 105.127 49.6251 85.9976 17.6992 72.2929C17.6992 72.2929 49.4125 61.5533 41.2126 30.271H41.2069Z" fill="#825EE4"/>
</g>
<g filter="url(#filter1_d_182_29676)">
<path d="M52.2729 69.5545C51.8898 69.6158 51.4684 69.6847 51.0087 69.7613C50.549 69.8379 50.1353 69.9069 49.7675 69.9682C49.8288 69.4625 49.8901 68.9645 49.9514 68.4742C49.9974 68.0451 50.0357 67.6161 50.0663 67.187C50.1123 66.758 50.1506 66.3902 50.1812 66.0838H48.1816L47.2622 69.3936C46.9251 69.4395 46.5267 69.4932 46.067 69.5545C45.6073 69.6004 45.1782 69.6464 44.7798 69.6924C44.2895 69.7537 43.8068 69.815 43.3318 69.8763C43.9447 67.8383 44.55 65.8309 45.1476 63.8542C45.3927 63.0268 45.6456 62.161 45.9061 61.257C46.1819 60.3529 46.45 59.4565 46.7105 58.5677C46.9864 57.6637 47.2468 56.7979 47.492 55.9705C47.7372 55.143 47.9517 54.3845 48.1356 53.695C49.1776 53.6184 50.2349 53.5264 51.3075 53.4192C52.3954 53.3119 53.4527 53.1663 54.4794 52.9824C54.4334 53.4728 54.3798 54.0857 54.3185 54.8212C54.2725 55.5414 54.2266 56.3306 54.1806 57.1887C54.1346 58.0468 54.0886 58.9432 54.0427 59.8779C53.9967 60.8126 53.9507 61.732 53.9048 62.636C53.8282 64.7506 53.7439 66.9955 53.6519 69.3706C53.1922 69.4472 52.7325 69.5085 52.2729 69.5545ZM48.7332 63.7853C48.7945 63.7853 48.9017 63.7853 49.055 63.7853C49.2235 63.77 49.3921 63.7623 49.5606 63.7623C49.7445 63.747 49.9131 63.7393 50.0663 63.7393C50.2195 63.724 50.3268 63.7087 50.3881 63.6933C50.3881 63.6014 50.3958 63.4482 50.4111 63.2337C50.4417 63.0038 50.4647 62.751 50.48 62.4752C50.5107 62.184 50.5413 61.8699 50.572 61.5328C50.6026 61.1957 50.6333 60.8662 50.6639 60.5444C50.7252 59.763 50.8018 58.9202 50.8938 58.0161L51.0317 56.0164L50.6869 56.0394L50.1583 58.0161L48.7332 63.7853ZM54.4535 70.1061L56.2004 53.7869C56.9206 53.7563 57.5948 53.6873 58.223 53.58C58.8666 53.4575 59.5025 53.3732 60.1308 53.3272C60.1308 53.3425 60.1078 53.5034 60.0618 53.8099C60.0158 54.101 59.9546 54.4918 59.8779 54.9821C59.8013 55.4571 59.717 56.0011 59.6251 56.614C59.5332 57.2116 59.3953 58.0391 59.2114 59.0964C59.0428 60.1537 58.813 61.6171 58.5218 63.4865H58.8666C59.265 62.0768 59.5945 60.9275 59.855 60.0388C60.1154 59.1347 60.3223 58.4068 60.4755 57.8552C60.6441 57.2883 60.7973 56.7443 60.9352 56.2233C61.0885 55.7023 61.2264 55.2196 61.349 54.7753C61.4869 54.3309 61.5941 53.9555 61.6707 53.649H61.8776C62.1534 53.649 62.4292 53.6337 62.7051 53.603C62.9962 53.5724 63.2644 53.5417 63.5095 53.5111C63.77 53.4651 64.0382 53.4115 64.314 53.3502C64.2834 53.4881 64.245 53.7716 64.1991 54.2006C64.1684 54.6297 64.1225 55.1507 64.0612 55.7636C63.9999 56.3612 63.9386 57.0278 63.8773 57.7633C63.816 58.4835 63.7547 59.196 63.6934 59.9009C63.6321 60.5904 63.5708 61.2493 63.5095 61.8776C63.4636 62.5058 63.4176 63.0421 63.3716 63.4865H63.7853L65.9689 53.603C66.4899 53.5264 67.0032 53.4575 67.5089 53.3962C67.9533 53.3349 68.4129 53.2736 68.888 53.2123C69.363 53.151 69.7844 53.082 70.1521 53.0054C69.9223 53.649 69.6924 54.3692 69.4626 55.166C69.2327 55.9475 68.9952 56.7749 68.7501 57.6484C68.5049 58.5218 68.2674 59.4029 68.0375 60.2916C67.823 61.1803 67.6085 62.0384 67.394 62.8659C66.9036 64.8273 66.4286 66.8423 65.9689 68.9109L60.7743 69.7843L61.7857 60.9122H61.5099L59.2344 69.2557L54.4535 70.1061ZM67.4994 70.0371L70.5104 53.695L77.7736 53.0744C77.6663 53.4115 77.5744 53.7563 77.4977 54.1087C77.4211 54.3998 77.3445 54.7063 77.2679 55.0281C77.2066 55.3346 77.153 55.6104 77.107 55.8555C76.9538 55.8709 76.7316 55.8862 76.4404 55.9015C76.1646 55.9015 75.8658 55.9092 75.544 55.9245C75.2222 55.9245 74.8928 55.9245 74.5557 55.9245C74.2339 55.9245 73.9504 55.9245 73.7053 55.9245L72.9008 60.0388C73.3758 60.0081 73.8202 59.9851 74.2339 59.9698C74.571 59.9545 74.9158 59.9468 75.2682 59.9468C75.6207 59.9468 75.8811 59.9392 76.0497 59.9238C75.9884 60.3529 75.9271 60.7743 75.8658 61.188C75.8199 61.6017 75.7586 62.0231 75.6819 62.4522C75.5287 62.4675 75.2759 62.4828 74.9234 62.4981C74.5863 62.4981 74.2416 62.5058 73.8891 62.5211C73.4907 62.5364 73.054 62.5518 72.579 62.5671L71.7975 66.7963L75.1533 66.2676L74.9234 68.8879L67.4994 70.0371ZM85.3314 64.3369C85.3314 65.195 85.1629 65.9765 84.8258 66.6814C84.504 67.3709 84.0596 67.9685 83.4926 68.4742C82.941 68.9798 82.2821 69.3706 81.5159 69.6464C80.7651 69.9222 79.953 70.0601 79.0796 70.0601C78.4666 70.0601 77.8537 69.8992 77.2408 69.5774C76.6279 69.2403 76.0379 68.7117 75.471 67.9915L77.1718 64.6587C77.2791 64.8579 77.44 65.0648 77.6545 65.2793C77.869 65.4785 78.1065 65.6547 78.367 65.8079C78.6428 65.9612 78.911 66.0914 79.1715 66.1987C79.4473 66.2906 79.6925 66.3366 79.907 66.3366C80.0909 66.3366 80.2824 66.3059 80.4816 66.2447C80.6808 66.1834 80.8647 66.0914 81.0333 65.9688C81.2018 65.8463 81.3321 65.7083 81.424 65.5551C81.5313 65.3866 81.5849 65.195 81.5849 64.9805C81.5849 64.6127 81.4623 64.2756 81.2171 63.9692C80.9873 63.6474 80.6962 63.3486 80.3437 63.0728C79.9913 62.7816 79.6082 62.4905 79.1945 62.1993C78.7808 61.9082 78.3977 61.6017 78.0452 61.2799C77.7081 60.9582 77.417 60.5981 77.1718 60.1997C76.9267 59.8013 76.8041 59.3569 76.8041 58.8665C76.8041 58.0697 77.0416 57.3266 77.5166 56.637C77.9916 55.9475 78.5816 55.3575 79.2864 54.8672C80.0066 54.3615 80.7881 53.9631 81.6309 53.672C82.4736 53.3808 83.2705 53.2353 84.0213 53.2353C84.435 53.2353 84.8258 53.2889 85.1935 53.3962C85.5613 53.4881 85.8754 53.649 86.1359 53.8788C86.4117 54.0934 86.6262 54.3692 86.7795 54.7063C86.948 55.0434 87.0323 55.4648 87.0323 55.9705C87.0323 56.185 87.0093 56.3995 86.9633 56.614C86.9327 56.8286 86.902 57.0584 86.8714 57.3036L83.5386 58.2689C83.5693 58.1464 83.5922 58.0238 83.6076 57.9012C83.6382 57.7786 83.6535 57.656 83.6535 57.5334C83.6535 57.0737 83.5693 56.7443 83.4007 56.5451C83.2475 56.3306 83.0406 56.2233 82.7801 56.2233C82.6575 56.2233 82.5043 56.2693 82.3204 56.3612C82.1519 56.4531 81.9756 56.5757 81.7918 56.729C81.6232 56.8669 81.4776 57.0354 81.3551 57.2346C81.2325 57.4338 81.1712 57.6484 81.1712 57.8782C81.1712 58.246 81.2708 58.5524 81.47 58.7976C81.6845 59.0428 81.945 59.2726 82.2515 59.4871C82.5579 59.7017 82.8874 59.9238 83.2398 60.1537C83.6076 60.3682 83.9447 60.6517 84.2511 61.0041C84.5576 61.3566 84.8104 61.8009 85.0096 62.3372C85.2242 62.8582 85.3314 63.5248 85.3314 64.3369ZM97.8969 57.5794C97.8969 58.8359 97.759 60.0234 97.4832 61.142C97.2227 62.2453 96.8703 63.2643 96.4259 64.199C95.9815 65.1184 95.4605 65.9459 94.8629 66.6814C94.2806 67.4016 93.6677 68.0221 93.0241 68.5431C92.3806 69.0488 91.7293 69.4395 91.0704 69.7154C90.4115 69.9759 89.7833 70.1061 89.1857 70.1061C88.68 70.1061 88.2203 70.0142 87.8066 69.8303C87.3929 69.6311 87.0328 69.3476 86.7263 68.9798C86.4198 68.5968 86.1747 68.1141 85.9908 67.5318C85.8222 66.9342 85.738 66.2217 85.738 65.3942C85.738 64.5361 85.8452 63.6321 86.0597 62.682C86.2743 61.732 86.5654 60.7896 86.9332 59.8549C87.3009 58.9202 87.753 58.0314 88.2893 57.1887C88.8256 56.3459 89.4155 55.6027 90.0591 54.9591C90.7027 54.3002 91.3922 53.7792 92.1277 53.3962C92.8632 53.0131 93.6294 52.8215 94.4262 52.8215C95.1157 52.8215 95.6827 52.9671 96.1271 53.2583C96.5868 53.5341 96.9392 53.9018 97.1844 54.3615C97.4449 54.8059 97.6288 55.3116 97.736 55.8785C97.8433 56.4455 97.8969 57.0124 97.8969 57.5794ZM89.1627 64.7966C89.1627 64.9652 89.1933 65.1414 89.2546 65.3253C89.3159 65.5091 89.4002 65.67 89.5075 65.8079C89.6147 65.9459 89.745 66.0684 89.8982 66.1757C90.0668 66.2676 90.243 66.3136 90.4269 66.3136C91.1164 66.3136 91.7293 66.0761 92.2656 65.6011C92.8019 65.1261 93.2463 64.5438 93.5988 63.8542C93.9512 63.1647 94.2193 62.4292 94.4032 61.6477C94.6024 60.8662 94.702 60.1537 94.702 59.5101C94.702 59.3262 94.6867 59.127 94.6561 58.9125C94.6407 58.698 94.5948 58.4988 94.5181 58.3149C94.4569 58.131 94.3496 57.9778 94.1964 57.8552C94.0584 57.7173 93.8669 57.6484 93.6217 57.6484C93.1314 57.6484 92.6794 57.7709 92.2656 58.0161C91.8519 58.2613 91.4765 58.5907 91.1394 59.0045C90.8176 59.4029 90.5341 59.8626 90.2889 60.3835C90.0438 60.8892 89.8293 61.4102 89.6454 61.9465C89.4768 62.4675 89.3542 62.9808 89.2776 63.4865C89.201 63.9921 89.1627 64.4289 89.1627 64.7966ZM95.514 69.8763C96.1883 67.8383 96.8318 65.8386 97.4448 63.8772C97.7052 63.0498 97.9734 62.184 98.2492 61.2799C98.525 60.3759 98.8009 59.4795 99.0767 58.5907C99.3525 57.702 99.6053 56.8439 99.8352 56.0164C100.08 55.189 100.295 54.4228 100.479 53.718C101.322 53.718 102.118 53.672 102.869 53.58C103.62 53.4881 104.432 53.4038 105.306 53.3272C105.26 53.6643 105.206 54.0474 105.145 54.4765C105.099 54.8902 105.037 55.3269 104.961 55.7866C104.899 56.2463 104.831 56.7213 104.754 57.2116C104.677 57.702 104.585 58.3302 104.478 59.0964C104.371 59.8626 104.225 60.8203 104.041 61.9695H104.34C104.785 60.8049 105.152 59.8396 105.443 59.0734C105.735 58.2919 105.972 57.656 106.156 57.1657C106.34 56.6753 106.524 56.2003 106.708 55.7406C106.907 55.2656 107.091 54.8212 107.259 54.4075C107.443 53.9784 107.612 53.603 107.765 53.2812C108.148 53.2506 108.508 53.2123 108.845 53.1663C109.182 53.1204 109.519 53.0744 109.857 53.0284C110.194 52.9671 110.531 52.9135 110.868 52.8675C111.22 52.8062 111.603 52.7373 112.017 52.6607C111.864 53.5494 111.718 54.4611 111.58 55.3958C111.442 56.3306 111.32 57.2653 111.213 58.2C111.105 59.1194 110.998 60.0311 110.891 60.9352C110.799 61.8392 110.715 62.6973 110.638 63.5095C110.454 65.4095 110.293 67.2636 110.155 69.0718L106.156 69.7843C106.156 69.7077 106.164 69.5008 106.179 69.1637C106.21 68.8266 106.24 68.4129 106.271 67.9225C106.317 67.4322 106.371 66.8882 106.432 66.2906C106.508 65.693 106.577 65.0954 106.639 64.4978C106.715 63.9002 106.792 63.3256 106.869 62.774C106.945 62.207 107.022 61.7243 107.098 61.3259H106.891C106.677 61.9695 106.439 62.6514 106.179 63.3716C105.918 64.0764 105.65 64.7966 105.375 65.5321C105.114 66.2676 104.854 66.9878 104.593 67.6927C104.333 68.3976 104.103 69.0718 103.903 69.7154C103.367 69.7307 102.907 69.7537 102.524 69.7843C102.141 69.7996 101.697 69.8226 101.191 69.8533L101.927 61.3259H101.582C101.551 61.5251 101.475 61.8622 101.352 62.3372C101.23 62.7969 101.084 63.3333 100.915 63.9462C100.762 64.5438 100.594 65.172 100.41 65.8309C100.226 66.4745 100.05 67.0798 99.8811 67.6467C99.7279 68.1984 99.5977 68.6581 99.4904 69.0258C99.3831 69.3782 99.3218 69.5774 99.3065 69.6234L95.514 69.8763ZM110.618 70.0371L113.629 53.695L120.892 53.0744C120.785 53.4115 120.693 53.7563 120.617 54.1087C120.54 54.3998 120.463 54.7063 120.387 55.0281C120.325 55.3346 120.272 55.6104 120.226 55.8555C120.073 55.8709 119.85 55.8862 119.559 55.9015C119.284 55.9015 118.985 55.9092 118.663 55.9245C118.341 55.9245 118.012 55.9245 117.675 55.9245C117.353 55.9245 117.069 55.9245 116.824 55.9245L116.02 60.0388C116.495 60.0081 116.939 59.9851 117.353 59.9698C117.69 59.9545 118.035 59.9468 118.387 59.9468C118.74 59.9468 119 59.9392 119.169 59.9238C119.107 60.3529 119.046 60.7743 118.985 61.188C118.939 61.6017 118.877 62.0231 118.801 62.4522C118.648 62.4675 118.395 62.4828 118.042 62.4981C117.705 62.4981 117.36 62.5058 117.008 62.5211C116.61 62.5364 116.173 62.5518 115.698 62.5671L114.916 66.7963L118.272 66.2676L118.042 68.8879L110.618 70.0371ZM123.248 64.5668C122.803 64.5668 122.359 64.5821 121.915 64.6127C121.47 64.6434 121.026 64.674 120.581 64.7047C121.056 62.8199 121.516 60.9428 121.961 59.0734C122.42 57.204 122.895 55.3269 123.386 53.4421C123.677 53.3962 124.006 53.3502 124.374 53.3042C124.757 53.2583 125.14 53.2046 125.523 53.1433C125.906 53.082 126.274 53.0284 126.626 52.9824C126.994 52.9365 127.301 52.8905 127.546 52.8445C126.718 54.7753 125.96 56.7213 125.27 58.6827C124.596 60.6287 123.922 62.5901 123.248 64.5668ZM123.478 68.1754C123.478 68.4665 123.409 68.7577 123.271 69.0488C123.148 69.3399 122.964 69.6004 122.719 69.8303C122.474 70.0448 122.167 70.2134 121.8 70.3359C121.432 70.4739 121.01 70.5428 120.535 70.5428C120.214 70.5428 119.923 70.4815 119.662 70.3589C119.402 70.2363 119.187 70.0755 119.018 69.8763C118.865 69.6617 118.743 69.4242 118.651 69.1637C118.559 68.9032 118.513 68.6427 118.513 68.3822C118.513 68.0911 118.559 67.8153 118.651 67.5548C118.743 67.279 118.881 67.0415 119.064 66.8423C119.264 66.6277 119.501 66.4515 119.777 66.3136C120.068 66.1757 120.413 66.1067 120.811 66.1067C121.7 66.1067 122.367 66.3213 122.811 66.7503C123.255 67.164 123.478 67.6391 123.478 68.1754Z" fill="#B5BEF3"/>
</g>
<g filter="url(#filter2_d_182_29676)">
<path d="M39.9833 27.7541C39.9833 27.7541 35.3978 14.2908 30.9215 16.3939C23.8767 19.7037 39.9833 27.7541 39.9833 27.7541Z" fill="#825EE4"/>
</g>
<g filter="url(#filter3_d_182_29676)">
<path d="M130.008 14.2392C130.008 14.2392 129.864 0.574707 136.047 0.574707C142.23 0.574707 130.008 14.2392 130.008 14.2392Z" fill="#825EE4"/>
</g>
<g filter="url(#filter4_d_182_29676)">
<path d="M148.992 85.2793C148.992 85.2793 169.845 90.313 165.748 96.6625C161.358 103.466 148.992 85.2793 148.992 85.2793Z" fill="#825EE4"/>
</g>
<g filter="url(#filter5_d_182_29676)">
<path d="M27.7599 101.392C27.7599 101.392 12.8025 100.38 12.2279 107.862C11.6533 115.338 27.7599 101.392 27.7599 101.392Z" fill="#825EE4"/>
</g>
<path d="M29.1398 103.978C29.1398 103.978 21.5778 108.293 23.8762 110.879C26.1747 113.47 29.1398 103.978 29.1398 103.978Z" fill="#825EE4"/>
<g filter="url(#filter6_d_182_29676)">
<path d="M140.793 36.9594C140.793 36.9594 144.821 23.4386 152.159 25.3119C159.491 27.1794 140.793 36.9594 140.793 36.9594Z" fill="#825EE4"/>
</g>
<path d="M146.551 36.9595C146.551 36.9595 151.584 29.9146 154.607 32.3568C157.629 34.7989 146.551 36.9595 146.551 36.9595Z" fill="#825EE4"/>
<g filter="url(#filter7_d_182_29676)">
<path d="M44.8824 113.774C44.8824 113.774 24.9948 126.784 32.1546 132.329C41.0727 139.23 44.8824 113.774 44.8824 113.774Z" fill="#825EE4"/>
</g>
<defs>
<filter id="filter0_d_182_29676" x="15.4007" y="17.3306" width="142.224" height="92.3929" filterUnits="userSpaceOnUse" color-interpolation-filters="sRGB">
<feFlood flood-opacity="0" result="BackgroundImageFix"/>
<feColorMatrix in="SourceAlpha" type="matrix" values="0 0 0 0 0 0 0 0 0 0 0 0 0 0 0 0 0 0 127 0" result="hardAlpha"/>
<feOffset dy="2.29848"/>
<feGaussianBlur stdDeviation="1.14924"/>
<feComposite in2="hardAlpha" operator="out"/>
<feColorMatrix type="matrix" values="0 0 0 0 0 0 0 0 0 0 0 0 0 0 0 0 0 0 0.25 0"/>
<feBlend mode="normal" in2="BackgroundImageFix" result="effect1_dropShadow_182_29676"/>
<feBlend mode="normal" in="SourceGraphic" in2="effect1_dropShadow_182_29676" result="shape"/>
</filter>
<filter id="filter1_d_182_29676" x="41.0336" y="52.6606" width="88.8098" height="22.4793" filterUnits="userSpaceOnUse" color-interpolation-filters="sRGB">
<feFlood flood-opacity="0" result="BackgroundImageFix"/>
<feColorMatrix in="SourceAlpha" type="matrix" values="0 0 0 0 0 0 0 0 0 0 0 0 0 0 0 0 0 0 127 0" result="hardAlpha"/>
<feOffset dy="2.29848"/>
<feGaussianBlur stdDeviation="1.14924"/>
<feComposite in2="hardAlpha" operator="out"/>
<feColorMatrix type="matrix" values="0 0 0 0 0 0 0 0 0 0 0 0 0 0 0 0 0 0 0.3 0"/>
<feBlend mode="normal" in2="BackgroundImageFix" result="effect1_dropShadow_182_29676"/>
<feBlend mode="normal" in="SourceGraphic" in2="effect1_dropShadow_182_29676" result="shape"/>
</filter>
<filter id="filter2_d_182_29676" x="26.8402" y="16.1709" width="15.4407" height="16.18" filterUnits="userSpaceOnUse" color-interpolation-filters="sRGB">
<feFlood flood-opacity="0" result="BackgroundImageFix"/>
<feColorMatrix in="SourceAlpha" type="matrix" values="0 0 0 0 0 0 0 0 0 0 0 0 0 0 0 0 0 0 127 0" result="hardAlpha"/>
<feOffset dy="2.29848"/>
<feGaussianBlur stdDeviation="1.14924"/>
<feComposite in2="hardAlpha" operator="out"/>
<feColorMatrix type="matrix" values="0 0 0 0 0 0 0 0 0 0 0 0 0 0 0 0 0 0 0.25 0"/>
<feBlend mode="normal" in2="BackgroundImageFix" result="effect1_dropShadow_182_29676"/>
<feBlend mode="normal" in="SourceGraphic" in2="effect1_dropShadow_182_29676" result="shape"/>
</filter>
<filter id="filter3_d_182_29676" x="127.709" y="0.574707" width="12.3821" height="18.2615" filterUnits="userSpaceOnUse" color-interpolation-filters="sRGB">
<feFlood flood-opacity="0" result="BackgroundImageFix"/>
<feColorMatrix in="SourceAlpha" type="matrix" values="0 0 0 0 0 0 0 0 0 0 0 0 0 0 0 0 0 0 127 0" result="hardAlpha"/>
<feOffset dy="2.29848"/>
<feGaussianBlur stdDeviation="1.14924"/>
<feComposite in2="hardAlpha" operator="out"/>
<feColorMatrix type="matrix" values="0 0 0 0 0 0 0 0 0 0 0 0 0 0 0 0 0 0 0.25 0"/>
<feBlend mode="normal" in2="BackgroundImageFix" result="effect1_dropShadow_182_29676"/>
<feBlend mode="normal" in="SourceGraphic" in2="effect1_dropShadow_182_29676" result="shape"/>
</filter>
<filter id="filter4_d_182_29676" x="146.694" y="85.2793" width="21.886" height="17.5037" filterUnits="userSpaceOnUse" color-interpolation-filters="sRGB">
<feFlood flood-opacity="0" result="BackgroundImageFix"/>
<feColorMatrix in="SourceAlpha" type="matrix" values="0 0 0 0 0 0 0 0 0 0 0 0 0 0 0 0 0 0 127 0" result="hardAlpha"/>
<feOffset dy="2.29848"/>
<feGaussianBlur stdDeviation="1.14924"/>
<feComposite in2="hardAlpha" operator="out"/>
<feColorMatrix type="matrix" values="0 0 0 0 0 0 0 0 0 0 0 0 0 0 0 0 0 0 0.25 0"/>
<feBlend mode="normal" in2="BackgroundImageFix" result="effect1_dropShadow_182_29676"/>
<feBlend mode="normal" in="SourceGraphic" in2="effect1_dropShadow_182_29676" result="shape"/>
</filter>
<filter id="filter5_d_182_29676" x="9.91441" y="101.346" width="20.1438" height="13.3162" filterUnits="userSpaceOnUse" color-interpolation-filters="sRGB">
<feFlood flood-opacity="0" result="BackgroundImageFix"/>
<feColorMatrix in="SourceAlpha" type="matrix" values="0 0 0 0 0 0 0 0 0 0 0 0 0 0 0 0 0 0 127 0" result="hardAlpha"/>
<feOffset dy="2.29848"/>
<feGaussianBlur stdDeviation="1.14924"/>
<feComposite in2="hardAlpha" operator="out"/>
<feColorMatrix type="matrix" values="0 0 0 0 0 0 0 0 0 0 0 0 0 0 0 0 0 0 0.25 0"/>
<feBlend mode="normal" in2="BackgroundImageFix" result="effect1_dropShadow_182_29676"/>
<feBlend mode="normal" in="SourceGraphic" in2="effect1_dropShadow_182_29676" result="shape"/>
</filter>
<filter id="filter6_d_182_29676" x="138.494" y="25.1338" width="17.6673" height="16.4226" filterUnits="userSpaceOnUse" color-interpolation-filters="sRGB">
<feFlood flood-opacity="0" result="BackgroundImageFix"/>
<feColorMatrix in="SourceAlpha" type="matrix" values="0 0 0 0 0 0 0 0 0 0 0 0 0 0 0 0 0 0 127 0" result="hardAlpha"/>
<feOffset dy="2.29848"/>
<feGaussianBlur stdDeviation="1.14924"/>
<feComposite in2="hardAlpha" operator="out"/>
<feColorMatrix type="matrix" values="0 0 0 0 0 0 0 0 0 0 0 0 0 0 0 0 0 0 0.25 0"/>
<feBlend mode="normal" in2="BackgroundImageFix" result="effect1_dropShadow_182_29676"/>
<feBlend mode="normal" in="SourceGraphic" in2="effect1_dropShadow_182_29676" result="shape"/>
</filter>
<filter id="filter7_d_182_29676" x="28.3011" y="113.774" width="18.8802" height="24.3382" filterUnits="userSpaceOnUse" color-interpolation-filters="sRGB">
<feFlood flood-opacity="0" result="BackgroundImageFix"/>
<feColorMatrix in="SourceAlpha" type="matrix" values="0 0 0 0 0 0 0 0 0 0 0 0 0 0 0 0 0 0 127 0" result="hardAlpha"/>
<feOffset dy="2.29848"/>
<feGaussianBlur stdDeviation="1.14924"/>
<feComposite in2="hardAlpha" operator="out"/>
<feColorMatrix type="matrix" values="0 0 0 0 0 0 0 0 0 0 0 0 0 0 0 0 0 0 0.25 0"/>
<feBlend mode="normal" in2="BackgroundImageFix" result="effect1_dropShadow_182_29676"/>
<feBlend mode="normal" in="SourceGraphic" in2="effect1_dropShadow_182_29676" result="shape"/>
</filter>
</defs>
</svg>
