<svg width="48" height="48" viewBox="0 0 48 48" fill="none" xmlns="http://www.w3.org/2000/svg">
<circle cx="24" cy="24" r="24" fill="black" fill-opacity="0.05"/>
<mask id="mask0_182_29266" style="mask-type:alpha" maskUnits="userSpaceOnUse" x="12" y="12" width="24" height="24">
<rect x="12" y="12" width="24" height="24" fill="#D9D9D9"/>
</mask>
<g mask="url(#mask0_182_29266)">
<path d="M25.4727 29.1269L20.9784 24.6327C20.8848 24.5391 20.8188 24.4388 20.7804 24.3317C20.7419 24.2247 20.7227 24.1141 20.7227 24C20.7227 23.8795 20.7419 23.7673 20.7804 23.6635C20.8188 23.5596 20.8848 23.4609 20.9784 23.3673L25.4727 18.8731C25.6175 18.7282 25.7932 18.6558 25.9996 18.6558C26.206 18.6558 26.3816 18.7282 26.5265 18.8731C26.6713 19.018 26.7438 19.1936 26.7438 19.4C26.7438 19.6064 26.6713 19.782 26.5265 19.9269L22.4534 24L26.5265 28.0731C26.6713 28.218 26.7438 28.3936 26.7438 28.6C26.7438 28.8064 26.6713 28.982 26.5265 29.1269C26.3816 29.2718 26.206 29.3442 25.9996 29.3442C25.7932 29.3442 25.6175 29.2718 25.4727 29.1269Z" fill="black"/>
</g>
</svg>
