<svg width="28" height="28" viewBox="0 0 28 28" fill="none" xmlns="http://www.w3.org/2000/svg">
<mask id="mask0_182_8692" style="mask-type:alpha" maskUnits="userSpaceOnUse" x="0" y="0" width="28" height="28">
<rect width="28" height="28" fill="#D9D9D9"/>
</mask>
<g mask="url(#mask0_182_8692)">
<path d="M20.9553 14.8749V13.125H25.1732V14.8749H20.9553ZM22.288 22.7275L18.9137 20.1967L19.9771 18.8012L23.3514 21.332L22.288 22.7275ZM19.9322 9.15378L18.8688 7.7583L22.2431 5.22754L23.3066 6.62302L19.9322 9.15378ZM6.12523 21.5608V17.0063H4.9361C4.35429 17.0063 3.85733 16.8003 3.44525 16.3882C3.03318 15.9761 2.82715 15.4792 2.82715 14.8974V13.1025C2.82715 12.5207 3.03318 12.0237 3.44525 11.6117C3.85733 11.1996 4.35429 10.9936 4.9361 10.9936H9.44571L14.6732 7.875V20.1249L9.44571 17.0063H7.87517L7.87517 21.5608H6.12523ZM12.9233 17.0153V10.9845L9.93031 12.7435H4.9361C4.84637 12.7435 4.7641 12.7809 4.68929 12.8557C4.61451 12.9305 4.57712 13.0128 4.57712 13.1025V14.8974C4.57712 14.9871 4.61451 15.0694 4.68929 15.1442C4.7641 15.219 4.84637 15.2564 4.9361 15.2564H9.93031L12.9233 17.0153ZM16.2886 17.639V10.3608C16.7463 10.7752 17.115 11.2972 17.3947 11.9269C17.6744 12.5566 17.8143 13.2476 17.8143 13.9999C17.8143 14.7523 17.6744 15.4433 17.3947 16.073C17.115 16.7027 16.7463 17.2247 16.2886 17.639Z" fill="#825EE4"/>
</g>
</svg>
