<svg width="16" height="17" viewBox="0 0 16 17" fill="none" xmlns="http://www.w3.org/2000/svg">
<g clip-path="url(#clip0_283_11322)">
<path opacity="0.12" d="M7.99992 14.7166C11.6818 14.7166 14.6666 11.7319 14.6666 8.04997C14.6666 4.36807 11.6818 1.3833 7.99992 1.3833C4.31802 1.3833 1.33325 4.36807 1.33325 8.04997C1.33325 11.7319 4.31802 14.7166 7.99992 14.7166Z" fill="#1D192B"/>
<path d="M11.9999 6.71663L9.71038 9.00618C9.57837 9.13818 9.51237 9.20419 9.43626 9.22892C9.36931 9.25067 9.29719 9.25067 9.23025 9.22892C9.15414 9.20419 9.08813 9.13818 8.95613 9.00618L7.04371 7.09376C6.9117 6.96175 6.8457 6.89575 6.76959 6.87102C6.70264 6.84927 6.63053 6.84927 6.56358 6.87102C6.48747 6.89575 6.42147 6.96175 6.28946 7.09376L3.99992 9.3833M14.6666 8.04997C14.6666 11.7319 11.6818 14.7166 7.99992 14.7166C4.31802 14.7166 1.33325 11.7319 1.33325 8.04997C1.33325 4.36807 4.31802 1.3833 7.99992 1.3833C11.6818 1.3833 14.6666 4.36807 14.6666 8.04997Z" stroke="#1D192B" stroke-width="1.2" stroke-linecap="round" stroke-linejoin="round"/>
</g>
<defs>
<clipPath id="clip0_283_11322">
<rect width="16" height="16" fill="white" transform="translate(0 0.0498047)"/>
</clipPath>
</defs>
</svg>
