<svg width="16" height="17" viewBox="0 0 16 17" fill="none" xmlns="http://www.w3.org/2000/svg">
<g clip-path="url(#clip0_182_23726)">
<g opacity="0.12">
<path d="M7.99935 9.04964C9.47211 9.04964 10.666 7.85573 10.666 6.38298C10.666 4.91022 9.47211 3.71631 7.99935 3.71631C6.52659 3.71631 5.33268 4.91022 5.33268 6.38298C5.33268 7.85573 6.52659 9.04964 7.99935 9.04964Z" fill="#1D192B"/>
<path d="M10.666 11.383H5.33268C3.85992 11.383 2.66602 12.5769 2.66602 14.0496C2.66602 14.4178 2.96449 14.7163 3.33268 14.7163H12.666C13.0342 14.7163 13.3327 14.4178 13.3327 14.0496C13.3327 12.5769 12.1388 11.383 10.666 11.383Z" fill="#1D192B"/>
</g>
<path d="M2.66733 14.5949C3.06905 14.7166 3.61165 14.7166 4.53398 14.7166H11.4673C12.3897 14.7166 12.9323 14.7166 13.334 14.5949M2.66733 14.5949C2.5812 14.5688 2.50154 14.5371 2.426 14.4986C2.04968 14.3069 1.74372 14.0009 1.55197 13.6246C1.33398 13.1968 1.33398 12.6367 1.33398 11.5166V4.5833C1.33398 3.4632 1.33398 2.90314 1.55197 2.47532C1.74372 2.099 2.04968 1.79303 2.426 1.60129C2.85383 1.3833 3.41388 1.3833 4.53398 1.3833H11.4673C12.5874 1.3833 13.1475 1.3833 13.5753 1.60129C13.9516 1.79303 14.2576 2.099 14.4493 2.47532C14.6673 2.90314 14.6673 3.4632 14.6673 4.5833V11.5166C14.6673 12.6367 14.6673 13.1968 14.4493 13.6246C14.2576 14.0009 13.9516 14.3069 13.5753 14.4986C13.4998 14.5371 13.4201 14.5688 13.334 14.5949M2.66733 14.5949C2.66755 14.0554 2.67079 13.7699 2.71856 13.5297C2.92897 12.4719 3.7559 11.645 4.81374 11.4345C5.07134 11.3833 5.38111 11.3833 6.00065 11.3833H10.0007C10.6202 11.3833 10.93 11.3833 11.1876 11.4345C12.2454 11.645 13.0723 12.4719 13.2827 13.5297C13.3305 13.7699 13.3337 14.0554 13.334 14.5949M10.6673 6.3833C10.6673 7.85606 9.47341 9.04997 8.00065 9.04997C6.52789 9.04997 5.33398 7.85606 5.33398 6.3833C5.33398 4.91054 6.52789 3.71663 8.00065 3.71663C9.47341 3.71663 10.6673 4.91054 10.6673 6.3833Z" stroke="#1D192B" stroke-width="1.2" stroke-linecap="round" stroke-linejoin="round"/>
</g>
<defs>
<clipPath id="clip0_182_23726">
<rect width="16" height="16" fill="white" transform="translate(0 0.0498047)"/>
</clipPath>
</defs>
</svg>
