<svg width="23" height="24" viewBox="0 0 23 24" fill="none" xmlns="http://www.w3.org/2000/svg">
<g filter="url(#filter0_d_263_3642)">
<g opacity="0.12">
<path d="M11.6673 8.99996C13.1401 8.99996 14.334 7.80605 14.334 6.33329C14.334 4.86053 13.1401 3.66663 11.6673 3.66663C10.1946 3.66663 9.00065 4.86053 9.00065 6.33329C9.00065 7.80605 10.1946 8.99996 11.6673 8.99996Z" fill="#825EE4"/>
<path d="M14.334 11.3333H9.00065C7.52789 11.3333 6.33398 12.5272 6.33398 14C6.33398 14.3681 6.63246 14.6666 7.00065 14.6666H16.334C16.7022 14.6666 17.0007 14.3681 17.0007 14C17.0007 12.5272 15.8067 11.3333 14.334 11.3333Z" fill="#825EE4"/>
</g>
<path d="M6.33335 14.545C6.73507 14.6667 7.27766 14.6667 8.2 14.6667H15.1333C16.0557 14.6667 16.5983 14.6667 17 14.545M6.33335 14.545C6.24721 14.5189 6.16756 14.4872 6.09202 14.4487C5.71569 14.257 5.40973 13.951 5.21799 13.5747C5 13.1469 5 12.5868 5 11.4667V4.53337C5 3.41327 5 2.85322 5.21799 2.42539C5.40973 2.04907 5.71569 1.74311 6.09202 1.55136C6.51984 1.33337 7.07989 1.33337 8.2 1.33337H15.1333C16.2534 1.33337 16.8135 1.33337 17.2413 1.55136C17.6176 1.74311 17.9236 2.04907 18.1153 2.42539C18.3333 2.85322 18.3333 3.41327 18.3333 4.53337V11.4667C18.3333 12.5868 18.3333 13.1469 18.1153 13.5747C17.9236 13.951 17.6176 14.257 17.2413 14.4487C17.1658 14.4872 17.0861 14.5189 17 14.545M6.33335 14.545C6.33357 14.0054 6.3368 13.7199 6.38457 13.4798C6.59499 12.422 7.42192 11.595 8.47976 11.3846C8.73736 11.3334 9.04713 11.3334 9.66667 11.3334H13.6667C14.2862 11.3334 14.596 11.3334 14.8536 11.3846C15.9114 11.595 16.7383 12.422 16.9488 13.4798C16.9965 13.7199 16.9998 14.0054 17 14.545M14.3333 6.33337C14.3333 7.80613 13.1394 9.00004 11.6667 9.00004C10.1939 9.00004 9 7.80613 9 6.33337C9 4.86061 10.1939 3.66671 11.6667 3.66671C13.1394 3.66671 14.3333 4.86061 14.3333 6.33337Z" stroke="#825EE4" stroke-width="1.2" stroke-linecap="round" stroke-linejoin="round"/>
</g>
<defs>
<filter id="filter0_d_263_3642" x="-0.333008" y="0" width="24" height="24" filterUnits="userSpaceOnUse" color-interpolation-filters="sRGB">
<feFlood flood-opacity="0" result="BackgroundImageFix"/>
<feColorMatrix in="SourceAlpha" type="matrix" values="0 0 0 0 0 0 0 0 0 0 0 0 0 0 0 0 0 0 127 0" result="hardAlpha"/>
<feOffset dy="4"/>
<feGaussianBlur stdDeviation="2"/>
<feComposite in2="hardAlpha" operator="out"/>
<feColorMatrix type="matrix" values="0 0 0 0 0 0 0 0 0 0 0 0 0 0 0 0 0 0 0.25 0"/>
<feBlend mode="normal" in2="BackgroundImageFix" result="effect1_dropShadow_263_3642"/>
<feBlend mode="normal" in="SourceGraphic" in2="effect1_dropShadow_263_3642" result="shape"/>
</filter>
</defs>
</svg>
