<svg width="16" height="17" viewBox="0 0 16 17" fill="none" xmlns="http://www.w3.org/2000/svg">
<g clip-path="url(#clip0_283_11319)">
<g opacity="0.12">
<path d="M8.00008 9.04964C9.47284 9.04964 10.6667 7.85573 10.6667 6.38298C10.6667 4.91022 9.47284 3.71631 8.00008 3.71631C6.52732 3.71631 5.33341 4.91022 5.33341 6.38298C5.33341 7.85573 6.52732 9.04964 8.00008 9.04964Z" fill="#1D192B"/>
<path d="M10.6667 11.383H5.33341C3.86066 11.383 2.66675 12.5769 2.66675 14.0496C2.66675 14.4178 2.96522 14.7163 3.33341 14.7163H12.6667C13.0349 14.7163 13.3334 14.4178 13.3334 14.0496C13.3334 12.5769 12.1395 11.383 10.6667 11.383Z" fill="#1D192B"/>
</g>
<path d="M2.6666 14.5949C3.06832 14.7166 3.61091 14.7166 4.53325 14.7166H11.4666C12.3889 14.7166 12.9315 14.7166 13.3332 14.5949M2.6666 14.5949C2.58047 14.5688 2.50081 14.5371 2.42527 14.4986C2.04895 14.3069 1.74299 14.0009 1.55124 13.6246C1.33325 13.1968 1.33325 12.6367 1.33325 11.5166V4.5833C1.33325 3.4632 1.33325 2.90314 1.55124 2.47532C1.74299 2.099 2.04895 1.79303 2.42527 1.60129C2.85309 1.3833 3.41315 1.3833 4.53325 1.3833H11.4666C12.5867 1.3833 13.1467 1.3833 13.5746 1.60129C13.9509 1.79303 14.2569 2.099 14.4486 2.47532C14.6666 2.90314 14.6666 3.4632 14.6666 4.5833V11.5166C14.6666 12.6367 14.6666 13.1968 14.4486 13.6246C14.2569 14.0009 13.9509 14.3069 13.5746 14.4986C13.499 14.5371 13.4194 14.5688 13.3332 14.5949M2.6666 14.5949C2.66682 14.0554 2.67006 13.7699 2.71782 13.5297C2.92824 12.4719 3.75517 11.645 4.81301 11.4345C5.07061 11.3833 5.38038 11.3833 5.99992 11.3833H9.99992C10.6195 11.3833 10.9292 11.3833 11.1868 11.4345C12.2447 11.645 13.0716 12.4719 13.282 13.5297C13.3298 13.7699 13.333 14.0554 13.3332 14.5949M10.6666 6.3833C10.6666 7.85606 9.47268 9.04997 7.99992 9.04997C6.52716 9.04997 5.33325 7.85606 5.33325 6.3833C5.33325 4.91054 6.52716 3.71663 7.99992 3.71663C9.47268 3.71663 10.6666 4.91054 10.6666 6.3833Z" stroke="#1D192B" stroke-width="1.2" stroke-linecap="round" stroke-linejoin="round"/>
</g>
<defs>
<clipPath id="clip0_283_11319">
<rect width="16" height="16" fill="white" transform="translate(0 0.0498047)"/>
</clipPath>
</defs>
</svg>
