<svg width="14" height="14" viewBox="0 0 14 14" fill="none" xmlns="http://www.w3.org/2000/svg">
<path d="M4.6 1.0498H2.06667C1.6933 1.0498 1.50661 1.0498 1.36401 1.12247C1.23856 1.18638 1.13658 1.28837 1.07266 1.41381C1 1.55642 1 1.7431 1 2.11647V4.6498C1 5.02317 1 5.20986 1.07266 5.35247C1.13658 5.47791 1.23856 5.57989 1.36401 5.64381C1.50661 5.71647 1.6933 5.71647 2.06667 5.71647H4.6C4.97337 5.71647 5.16005 5.71647 5.30266 5.64381C5.4281 5.57989 5.53009 5.47791 5.594 5.35247C5.66667 5.20986 5.66667 5.02317 5.66667 4.6498V2.11647C5.66667 1.7431 5.66667 1.55642 5.594 1.41381C5.53009 1.28837 5.4281 1.18638 5.30266 1.12247C5.16005 1.0498 4.97337 1.0498 4.6 1.0498Z" stroke="#1D192B" stroke-width="1.2" stroke-linecap="round" stroke-linejoin="round"/>
<path d="M11.9333 1.0498H9.4C9.02663 1.0498 8.83995 1.0498 8.69734 1.12247C8.5719 1.18638 8.46991 1.28837 8.406 1.41381C8.33333 1.55642 8.33333 1.7431 8.33333 2.11647V4.6498C8.33333 5.02317 8.33333 5.20986 8.406 5.35247C8.46991 5.47791 8.5719 5.57989 8.69734 5.64381C8.83995 5.71647 9.02663 5.71647 9.4 5.71647H11.9333C12.3067 5.71647 12.4934 5.71647 12.636 5.64381C12.7614 5.57989 12.8634 5.47791 12.9273 5.35247C13 5.20986 13 5.02317 13 4.6498V2.11647C13 1.7431 13 1.55642 12.9273 1.41381C12.8634 1.28837 12.7614 1.18638 12.636 1.12247C12.4934 1.0498 12.3067 1.0498 11.9333 1.0498Z" stroke="#1D192B" stroke-width="1.2" stroke-linecap="round" stroke-linejoin="round"/>
<path d="M11.9333 8.38314H9.4C9.02663 8.38314 8.83995 8.38314 8.69734 8.4558C8.5719 8.51972 8.46991 8.6217 8.406 8.74714C8.33333 8.88975 8.33333 9.07644 8.33333 9.44981V11.9831C8.33333 12.3565 8.33333 12.5432 8.406 12.6858C8.46991 12.8112 8.5719 12.9132 8.69734 12.9771C8.83995 13.0498 9.02663 13.0498 9.4 13.0498H11.9333C12.3067 13.0498 12.4934 13.0498 12.636 12.9771C12.7614 12.9132 12.8634 12.8112 12.9273 12.6858C13 12.5432 13 12.3565 13 11.9831V9.44981C13 9.07644 13 8.88975 12.9273 8.74714C12.8634 8.6217 12.7614 8.51972 12.636 8.4558C12.4934 8.38314 12.3067 8.38314 11.9333 8.38314Z" stroke="#1D192B" stroke-width="1.2" stroke-linecap="round" stroke-linejoin="round"/>
<path d="M4.6 8.38314H2.06667C1.6933 8.38314 1.50661 8.38314 1.36401 8.4558C1.23856 8.51972 1.13658 8.6217 1.07266 8.74714C1 8.88975 1 9.07644 1 9.44981V11.9831C1 12.3565 1 12.5432 1.07266 12.6858C1.13658 12.8112 1.23856 12.9132 1.36401 12.9771C1.50661 13.0498 1.6933 13.0498 2.06667 13.0498H4.6C4.97337 13.0498 5.16005 13.0498 5.30266 12.9771C5.4281 12.9132 5.53009 12.8112 5.594 12.6858C5.66667 12.5432 5.66667 12.3565 5.66667 11.9831V9.44981C5.66667 9.07644 5.66667 8.88975 5.594 8.74714C5.53009 8.6217 5.4281 8.51972 5.30266 8.4558C5.16005 8.38314 4.97337 8.38314 4.6 8.38314Z" stroke="#1D192B" stroke-width="1.2" stroke-linecap="round" stroke-linejoin="round"/>
</svg>
