<svg width="18" height="19" viewBox="0 0 18 19" fill="none" xmlns="http://www.w3.org/2000/svg">
<g opacity="0.12">
<path d="M6.3 2.2998H3.45C3.02996 2.2998 2.81994 2.2998 2.65951 2.38155C2.51839 2.45345 2.40365 2.56819 2.33175 2.70931C2.25 2.86975 2.25 3.07977 2.25 3.4998V6.3498C2.25 6.76984 2.25 6.97986 2.33175 7.1403C2.40365 7.28142 2.51839 7.39615 2.65951 7.46806C2.81994 7.5498 3.02996 7.5498 3.45 7.5498H6.3C6.72004 7.5498 6.93006 7.5498 7.09049 7.46806C7.23161 7.39615 7.34635 7.28142 7.41825 7.1403C7.5 6.97986 7.5 6.76984 7.5 6.3498V3.4998C7.5 3.07977 7.5 2.86975 7.41825 2.70931C7.34635 2.56819 7.23161 2.45345 7.09049 2.38155C6.93006 2.2998 6.72004 2.2998 6.3 2.2998Z" fill="#825EE4"/>
<path d="M14.55 2.2998H11.7C11.28 2.2998 11.0699 2.2998 10.9095 2.38155C10.7684 2.45345 10.6537 2.56819 10.5817 2.70931C10.5 2.86975 10.5 3.07977 10.5 3.4998V6.3498C10.5 6.76984 10.5 6.97986 10.5817 7.1403C10.6537 7.28142 10.7684 7.39615 10.9095 7.46806C11.0699 7.5498 11.28 7.5498 11.7 7.5498H14.55C14.97 7.5498 15.1801 7.5498 15.3405 7.46806C15.4816 7.39615 15.5963 7.28142 15.6683 7.1403C15.75 6.97986 15.75 6.76984 15.75 6.3498V3.4998C15.75 3.07977 15.75 2.86975 15.6683 2.70931C15.5963 2.56819 15.4816 2.45345 15.3405 2.38155C15.1801 2.2998 14.97 2.2998 14.55 2.2998Z" fill="#825EE4"/>
<path d="M14.55 10.5498H11.7C11.28 10.5498 11.0699 10.5498 10.9095 10.6315C10.7684 10.7035 10.6537 10.8182 10.5817 10.9593C10.5 11.1197 10.5 11.3298 10.5 11.7498V14.5998C10.5 15.0198 10.5 15.2299 10.5817 15.3903C10.6537 15.5314 10.7684 15.6462 10.9095 15.7181C11.0699 15.7998 11.28 15.7998 11.7 15.7998H14.55C14.97 15.7998 15.1801 15.7998 15.3405 15.7181C15.4816 15.6462 15.5963 15.5314 15.6683 15.3903C15.75 15.2299 15.75 15.0198 15.75 14.5998V11.7498C15.75 11.3298 15.75 11.1197 15.6683 10.9593C15.5963 10.8182 15.4816 10.7035 15.3405 10.6315C15.1801 10.5498 14.97 10.5498 14.55 10.5498Z" fill="#825EE4"/>
<path d="M6.3 10.5498H3.45C3.02996 10.5498 2.81994 10.5498 2.65951 10.6315C2.51839 10.7035 2.40365 10.8182 2.33175 10.9593C2.25 11.1197 2.25 11.3298 2.25 11.7498V14.5998C2.25 15.0198 2.25 15.2299 2.33175 15.3903C2.40365 15.5314 2.51839 15.6462 2.65951 15.7181C2.81994 15.7998 3.02996 15.7998 3.45 15.7998H6.3C6.72004 15.7998 6.93006 15.7998 7.09049 15.7181C7.23161 15.6462 7.34635 15.5314 7.41825 15.3903C7.5 15.2299 7.5 15.0198 7.5 14.5998V11.7498C7.5 11.3298 7.5 11.1197 7.41825 10.9593C7.34635 10.8182 7.23161 10.7035 7.09049 10.6315C6.93006 10.5498 6.72004 10.5498 6.3 10.5498Z" fill="#825EE4"/>
</g>
<path d="M6.3 2.2998H3.45C3.02996 2.2998 2.81994 2.2998 2.65951 2.38155C2.51839 2.45345 2.40365 2.56819 2.33175 2.70931C2.25 2.86975 2.25 3.07977 2.25 3.4998V6.3498C2.25 6.76984 2.25 6.97986 2.33175 7.1403C2.40365 7.28142 2.51839 7.39615 2.65951 7.46806C2.81994 7.5498 3.02996 7.5498 3.45 7.5498H6.3C6.72004 7.5498 6.93006 7.5498 7.09049 7.46806C7.23161 7.39615 7.34635 7.28142 7.41825 7.1403C7.5 6.97986 7.5 6.76984 7.5 6.3498V3.4998C7.5 3.07977 7.5 2.86975 7.41825 2.70931C7.34635 2.56819 7.23161 2.45345 7.09049 2.38155C6.93006 2.2998 6.72004 2.2998 6.3 2.2998Z" stroke="#825EE4" stroke-width="1.2" stroke-linecap="round" stroke-linejoin="round"/>
<path d="M14.55 2.2998H11.7C11.28 2.2998 11.0699 2.2998 10.9095 2.38155C10.7684 2.45345 10.6537 2.56819 10.5817 2.70931C10.5 2.86975 10.5 3.07977 10.5 3.4998V6.3498C10.5 6.76984 10.5 6.97986 10.5817 7.1403C10.6537 7.28142 10.7684 7.39615 10.9095 7.46806C11.0699 7.5498 11.28 7.5498 11.7 7.5498H14.55C14.97 7.5498 15.1801 7.5498 15.3405 7.46806C15.4816 7.39615 15.5963 7.28142 15.6683 7.1403C15.75 6.97986 15.75 6.76984 15.75 6.3498V3.4998C15.75 3.07977 15.75 2.86975 15.6683 2.70931C15.5963 2.56819 15.4816 2.45345 15.3405 2.38155C15.1801 2.2998 14.97 2.2998 14.55 2.2998Z" stroke="#825EE4" stroke-width="1.2" stroke-linecap="round" stroke-linejoin="round"/>
<path d="M14.55 10.5498H11.7C11.28 10.5498 11.0699 10.5498 10.9095 10.6315C10.7684 10.7035 10.6537 10.8182 10.5817 10.9593C10.5 11.1197 10.5 11.3298 10.5 11.7498V14.5998C10.5 15.0198 10.5 15.2299 10.5817 15.3903C10.6537 15.5314 10.7684 15.6462 10.9095 15.7181C11.0699 15.7998 11.28 15.7998 11.7 15.7998H14.55C14.97 15.7998 15.1801 15.7998 15.3405 15.7181C15.4816 15.6462 15.5963 15.5314 15.6683 15.3903C15.75 15.2299 15.75 15.0198 15.75 14.5998V11.7498C15.75 11.3298 15.75 11.1197 15.6683 10.9593C15.5963 10.8182 15.4816 10.7035 15.3405 10.6315C15.1801 10.5498 14.97 10.5498 14.55 10.5498Z" stroke="#825EE4" stroke-width="1.2" stroke-linecap="round" stroke-linejoin="round"/>
<path d="M6.3 10.5498H3.45C3.02996 10.5498 2.81994 10.5498 2.65951 10.6315C2.51839 10.7035 2.40365 10.8182 2.33175 10.9593C2.25 11.1197 2.25 11.3298 2.25 11.7498V14.5998C2.25 15.0198 2.25 15.2299 2.33175 15.3903C2.40365 15.5314 2.51839 15.6462 2.65951 15.7181C2.81994 15.7998 3.02996 15.7998 3.45 15.7998H6.3C6.72004 15.7998 6.93006 15.7998 7.09049 15.7181C7.23161 15.6462 7.34635 15.5314 7.41825 15.3903C7.5 15.2299 7.5 15.0198 7.5 14.5998V11.7498C7.5 11.3298 7.5 11.1197 7.41825 10.9593C7.34635 10.8182 7.23161 10.7035 7.09049 10.6315C6.93006 10.5498 6.72004 10.5498 6.3 10.5498Z" stroke="#825EE4" stroke-width="1.2" stroke-linecap="round" stroke-linejoin="round"/>
</svg>
