<svg width="1440" height="1020" viewBox="0 0 1440 1020" fill="none" xmlns="http://www.w3.org/2000/svg">
<g clip-path="url(#clip0_182_29163)">
<path opacity="0.54" d="M1425.53 1014.1C1458.2 975.145 1442.47 911.739 1404.46 878.027C1366.45 844.291 1313.56 833.613 1263.02 828.261C1212.47 822.886 1160.31 821.235 1113.69 801.048C1017.19 759.247 970.121 651.539 934.721 552.521C899.322 453.504 859.804 344.918 768.514 292.689C696.941 251.751 609.216 255.246 529.244 235.147C389.642 200.074 272.885 85.6795 235.022 -53.2047" stroke="white" stroke-opacity="0.25" stroke-width="1.28774" stroke-miterlimit="10"/>
<path opacity="0.54" d="M1419.33 1026.33C1451.98 987.448 1436.67 924.203 1399.11 890.161C1395.75 887.111 1392.26 884.263 1388.68 881.55C1352.13 854.129 1304.46 844.317 1258.62 838.935C1249.78 837.894 1240.88 836.969 1231.98 836.036C1190.19 831.698 1148.12 827.252 1109.83 810.433C1097.61 805.064 1085.93 798.544 1074.95 790.961C1001.67 740.551 962.351 647.78 932.224 561.41C930.043 555.128 927.839 548.823 925.613 542.494C892.654 448.78 853.602 351.414 771.077 300.013C747.474 285.427 721.786 274.524 694.897 267.68C662.742 259.28 628.662 255.717 595.252 251.857C572.442 249.219 549.83 246.404 527.681 241.778C517.27 239.602 506.96 236.979 496.751 233.908C431.781 214.333 371.983 175.868 324.984 125.847C277.658 75.5909 243.585 14.3461 225.836 -52.3663" stroke="white" stroke-opacity="0.25" stroke-width="1.28774" stroke-miterlimit="10"/>
<path opacity="0.54" d="M1413.11 1038.56C1445.79 999.73 1430.89 936.67 1393.76 902.296C1390.44 899.222 1386.99 896.323 1383.43 893.599C1347.25 865.868 1299.86 855.529 1254.2 849.616C1245.38 848.486 1236.53 847.463 1227.66 846.444C1186.03 841.667 1144.08 836.852 1105.93 819.849C1093.75 814.42 1082.11 807.854 1071.16 800.241C998.055 749.534 959.089 656.798 929.67 570.329C927.536 564.046 925.384 557.725 923.223 551.397C891.132 457.616 853.121 361.143 773.53 307.395C750.33 291.433 724.716 279.3 697.667 271.462C664.849 262.114 629.483 259.028 595.251 256.169C571.896 254.21 548.789 252.285 526.085 248.454C515.399 246.642 504.824 244.39 494.304 241.603C427.337 223.875 364.932 184.56 316.797 132.809C268.513 80.7123 234.08 17.327 216.656 -51.5357" stroke="white" stroke-opacity="0.25" stroke-width="1.28774" stroke-miterlimit="10"/>
<path opacity="0.54" d="M1406.93 1050.8C1439.61 1012.04 1425.14 949.141 1388.43 914.456C1385.15 911.361 1381.75 908.433 1378.22 905.67C1342.38 877.604 1295.3 866.738 1249.8 860.318C1241.04 859.09 1232.19 857.959 1223.37 856.846C1181.91 851.631 1140.09 846.447 1102.07 829.262C1089.93 823.779 1078.33 817.178 1067.42 809.543C994.52 758.567 955.877 665.867 927.169 579.267L920.892 560.319C889.671 466.435 852.674 370.792 776.06 314.772C753.143 298.019 728.8 283.966 700.489 275.261C667.02 264.941 630.356 262.357 595.299 260.507C571.367 259.222 547.796 258.214 524.539 255.155C513.598 253.73 502.726 251.815 491.907 249.315C422.948 233.435 357.931 193.291 308.658 139.826C259.273 86.2601 224.829 20.072 207.505 -50.6479" stroke="white" stroke-opacity="0.25" stroke-width="1.28774" stroke-miterlimit="10"/>
<path opacity="0.54" d="M1400.72 1063.06C1433.39 1024.34 1419.34 961.625 1383.09 926.614C1379.84 923.474 1376.48 920.54 1373.01 917.74C1337.53 889.341 1290.73 877.972 1245.41 871.044C1236.67 869.702 1227.87 868.498 1219.06 867.294C1177.75 861.635 1136.05 856.062 1098.16 838.719C1086.06 833.18 1074.5 826.533 1063.63 818.865C990.916 767.614 952.646 674.935 924.603 588.227C922.563 581.925 920.525 575.596 918.488 569.24C888.145 475.282 852.194 380.299 778.521 322.169C755.96 304.353 732.08 288.563 703.243 279.08C669.093 267.79 631.166 265.706 595.284 264.849C570.8 264.265 546.742 264.125 522.905 261.86C511.706 260.797 500.541 259.22 489.401 257.034C418.451 243.033 350.821 202.008 300.409 146.842C249.885 91.5776 215.483 23.0371 198.241 -49.7641" stroke="white" stroke-opacity="0.25" stroke-width="1.28774" stroke-miterlimit="10"/>
<path opacity="0.54" d="M1394.51 1075.29C1427.2 1036.64 1413.56 974.074 1377.75 938.75C1374.55 935.589 1371.22 932.601 1367.77 929.788C1332.66 901.053 1286.15 889.183 1240.99 881.722C1232.27 880.288 1223.51 878.993 1214.74 877.695C1173.6 871.605 1132.01 865.658 1094.27 848.132C1082.2 842.537 1070.68 835.847 1059.84 828.144C987.297 776.598 949.377 683.983 922.043 597.144C920.051 590.824 918.083 584.508 916.092 578.146C886.622 484.114 851.747 389.676 780.989 329.527C758.739 310.623 735.39 293.144 706.027 282.838C671.219 270.599 631.995 268.991 595.269 269.127C570.213 269.22 545.665 269.972 521.301 268.502C509.791 267.824 498.324 266.552 486.945 264.69C414.003 252.541 343.761 210.686 292.213 153.789C240.572 96.8031 206.193 25.9377 189.029 -48.9465" stroke="white" stroke-opacity="0.25" stroke-width="1.28774" stroke-miterlimit="10"/>
<path opacity="0.54" d="M1388.3 1087.52C1420.99 1048.93 1407.79 986.535 1372.39 950.887C1369.24 947.705 1365.93 944.679 1362.54 941.837C1327.78 912.791 1281.57 900.372 1236.6 892.428C1227.91 890.904 1219.2 889.49 1210.46 888.102C1169.48 881.596 1128.03 875.256 1090.41 857.55C1078.39 851.888 1066.91 845.151 1056.11 837.422C983.744 785.6 946.175 693.003 919.551 606.06C917.605 599.743 915.677 593.404 913.765 587.043C885.167 492.935 851.376 398.934 783.525 336.901C761.612 316.885 738.765 297.718 708.856 286.634C673.392 273.424 632.874 272.313 595.325 273.468C569.719 274.238 544.681 275.882 519.756 275.207C507.973 274.916 496.215 273.983 484.534 272.41C409.599 262.113 336.754 219.4 284.06 160.813C231.285 102.127 196.946 28.9171 179.868 -48.0527" stroke="white" stroke-opacity="0.25" stroke-width="1.28774" stroke-miterlimit="10"/>
<path opacity="0.54" d="M1382.11 1099.76C1414.82 1061.23 1402.02 999.006 1367.08 963.043C1363.95 959.839 1360.69 956.793 1357.32 953.905C1322.92 924.525 1277 911.603 1232.19 903.122C1223.56 901.5 1214.85 900 1206.17 898.526C1165.33 891.582 1124.01 884.855 1086.54 866.982C1074.55 861.274 1063.11 854.493 1052.35 846.721C980.169 794.633 942.947 702.077 917.033 615C915.159 608.664 913.286 602.319 911.413 595.967C883.693 501.785 851.055 408.091 786.04 344.279C764.464 323.104 742.121 302.319 711.666 290.41C675.541 276.23 633.736 275.622 595.362 277.768C569.178 279.215 543.68 281.744 518.175 281.87C506.128 281.955 494.085 281.36 482.105 280.087C405.179 271.664 329.712 228.097 275.891 167.785C221.979 107.377 187.685 31.8449 170.7 -47.2102" stroke="white" stroke-opacity="0.25" stroke-width="1.28774" stroke-miterlimit="10"/>
<path opacity="0.54" d="M1375.9 1112.02C1408.61 1073.56 1396.24 1011.49 1361.71 975.202C1358.63 971.951 1355.4 968.883 1352.07 965.974C1318.03 936.258 1272.43 922.814 1227.77 913.828C1219.16 912.093 1210.51 910.497 1201.85 908.92C1161.17 901.534 1119.96 894.432 1082.65 876.39C1070.7 870.631 1059.3 863.816 1048.58 856.026C976.593 803.636 939.702 711.126 914.496 623.939C912.67 617.605 910.853 611.247 909.043 604.864C882.212 510.607 850.743 417.158 788.534 351.652C767.3 329.299 745.432 306.892 714.474 294.207C677.695 279.079 634.595 278.948 595.398 282.085C568.675 284.21 542.678 287.662 516.617 288.575C504.306 289.037 491.979 288.781 479.698 287.808C400.781 281.237 322.726 236.815 267.742 174.8C212.693 112.698 178.44 34.7928 161.536 -46.3262" stroke="white" stroke-opacity="0.25" stroke-width="1.28774" stroke-miterlimit="10"/>
<path opacity="0.54" d="M1369.69 1124.25C1402.42 1085.84 1390.44 1023.96 1356.38 987.337C1353.33 984.066 1350.15 980.96 1346.85 978.022C1313.17 947.995 1267.87 934.025 1223.37 924.528C1214.79 922.702 1206.16 921.013 1197.54 919.347C1157.02 911.527 1115.94 904.053 1078.75 885.827C1066.85 880.009 1055.48 873.145 1044.79 865.317C972.989 812.653 936.447 720.177 911.93 632.867C910.149 626.536 908.395 620.159 906.641 613.781C880.684 519.45 850.45 426.133 790.997 359.044C770.124 335.488 748.737 311.484 717.23 297.998C679.798 281.898 635.403 282.245 595.356 286.398C568.054 289.222 541.594 293.543 514.955 295.25C502.375 296.101 489.756 296.184 477.166 295.497C396.255 290.801 315.59 245.525 259.465 181.792C203.279 117.987 169.049 37.7395 152.245 -45.4629" stroke="white" stroke-opacity="0.25" stroke-width="1.28774" stroke-miterlimit="10"/>
<path opacity="0.54" d="M1363.48 1136.48C1396.21 1098.15 1384.67 1036.4 1351.05 999.496C1348.04 996.204 1344.9 993.069 1341.62 990.093C1308.29 959.73 1263.28 945.235 1218.95 935.231C1210.43 933.315 1201.83 931.531 1193.23 929.775C1152.88 921.539 1111.92 913.649 1074.87 895.268C1063.01 889.398 1051.69 882.49 1041.04 874.625C969.414 821.689 933.222 729.253 909.417 641.813C907.686 635.46 905.978 629.091 904.294 622.708C879.206 528.304 850.266 435.023 793.514 366.425C773.008 341.642 752.093 316.088 720.036 301.8C681.944 284.732 636.26 285.579 595.389 290.746C567.513 294.247 540.587 299.46 513.396 301.959C500.556 303.188 487.652 303.609 474.759 303.222C391.858 300.381 308.579 254.241 251.321 188.791C193.996 123.267 159.813 40.6935 143.086 -44.5919" stroke="white" stroke-opacity="0.25" stroke-width="1.28774" stroke-miterlimit="10"/>
<path opacity="0.54" d="M1357.3 1148.72C1390.04 1110.43 1378.92 1048.87 1345.71 1011.63C1342.77 1008.32 1339.66 1005.15 1336.41 1002.15C1303.44 971.45 1258.72 956.451 1214.58 945.941C1206.08 943.926 1197.51 942.033 1188.96 940.184C1148.77 931.511 1107.92 923.249 1071 904.687C1059.18 898.757 1047.89 891.805 1037.27 883.91C965.824 830.674 930.004 738.283 906.884 650.736C905.194 644.385 903.562 637.99 901.926 631.594C877.707 537.113 850.133 443.831 796.007 373.787C775.889 347.756 755.428 320.651 722.85 305.563C684.099 287.544 637.124 288.866 595.43 295.031C567.005 299.21 539.589 305.314 511.84 308.611C498.734 310.228 485.537 310.988 472.332 310.887C387.439 309.895 301.548 262.907 243.153 195.754C184.691 128.528 150.551 43.6106 133.904 -43.7576" stroke="white" stroke-opacity="0.25" stroke-width="1.28774" stroke-miterlimit="10"/>
<path opacity="0.54" d="M1351.09 1160.98C1383.83 1122.76 1373.12 1061.36 1340.37 1023.79C1337.44 1020.43 1334.37 1017.23 1331.18 1014.19C1298.57 983.157 1254.13 967.632 1210.16 956.613C1201.69 954.486 1193.17 952.521 1184.65 950.58C1144.62 941.468 1103.91 932.836 1067.12 914.093C1055.33 908.105 1044.09 901.106 1033.51 893.176C962.241 839.67 926.772 747.317 904.36 659.639C902.722 653.267 901.125 646.881 899.568 640.482C876.23 545.901 850.083 452.55 798.519 381.128C778.794 353.825 758.757 325.215 725.655 309.326C686.247 290.337 637.981 292.162 595.44 299.314C566.442 304.168 538.531 311.189 510.232 315.257C496.868 317.249 483.386 318.349 469.876 318.548C382.99 319.43 294.485 271.588 234.956 202.713C175.358 133.764 141.26 46.5261 124.713 -42.9335" stroke="white" stroke-opacity="0.25" stroke-width="1.28774" stroke-miterlimit="10"/>
<path opacity="0.54" d="M1344.88 1173.21C1377.64 1135.04 1367.34 1073.82 1335.01 1035.93C1332.12 1032.55 1329.1 1029.32 1325.93 1026.23C1293.68 994.892 1249.55 978.842 1205.74 967.315C1197.3 965.095 1188.83 963.016 1180.33 961.006C1140.46 951.456 1099.86 942.432 1063.22 923.53C1051.48 917.49 1040.27 910.447 1029.74 902.48C958.668 848.703 923.525 756.366 901.828 668.582C900.261 662.213 898.719 655.799 897.2 649.409C874.732 554.755 850.069 461.286 800.991 388.531C781.705 359.934 762.07 329.817 728.421 313.128C688.358 293.167 638.797 295.493 595.433 303.662C565.884 309.216 537.489 317.107 508.632 321.968C495.009 324.327 481.243 325.766 467.428 326.275C378.551 329.009 287.435 280.31 226.766 209.736C166.036 139.087 131.983 49.5056 115.517 -42.0384" stroke="white" stroke-opacity="0.25" stroke-width="1.28774" stroke-miterlimit="10"/>
<path opacity="0.54" d="M1338.69 1185.45C1371.45 1147.34 1361.59 1086.29 1329.7 1048.08C1326.86 1044.68 1323.85 1041.41 1320.74 1038.3C1288.85 1006.62 1245.01 990.047 1201.36 978.011C1192.97 975.701 1184.51 973.526 1176.04 971.401C1136.31 961.433 1095.85 952.018 1059.36 932.937C1047.66 926.835 1036.49 919.756 1025.98 911.776C955.083 857.726 920.295 765.428 899.282 677.514C897.764 671.124 896.263 664.711 894.816 658.327C873.222 563.598 850.1 469.946 803.473 395.901C784.626 365.986 765.393 334.411 731.217 316.92C690.495 296.011 639.668 298.816 595.457 307.977C565.337 314.212 536.472 322.991 507.036 328.646C493.151 331.395 479.092 333.173 464.961 333.969C374.088 338.554 280.367 289.025 218.558 216.729C156.686 144.358 122.675 52.4501 106.287 -41.1832" stroke="white" stroke-opacity="0.25" stroke-width="1.28774" stroke-miterlimit="10"/>
<path opacity="0.54" d="M1332.48 1197.68C1365.26 1159.62 1355.79 1098.75 1324.36 1060.23C1321.55 1056.78 1318.59 1053.49 1315.5 1050.36C1283.96 1018.34 1240.41 1001.27 1196.96 988.701C1188.6 986.297 1180.19 984.033 1171.75 981.814C1132.19 971.409 1091.86 961.625 1055.49 942.361C1043.83 936.207 1032.7 929.083 1022.23 921.065C951.526 866.718 917.08 774.462 896.777 686.443C895.305 680.056 893.875 673.648 892.488 667.221C871.771 572.41 850.271 478.538 806.008 403.271C787.649 372.043 768.768 338.981 734.046 320.697C692.666 298.818 640.548 302.122 595.512 312.276C564.841 319.178 535.489 328.859 505.494 335.309C491.354 338.433 477.011 340.551 462.572 341.646C369.704 348.105 273.371 297.699 210.428 223.704C147.417 149.635 113.444 55.3839 97.1401 -40.3305" stroke="white" stroke-opacity="0.25" stroke-width="1.28774" stroke-miterlimit="10"/>
<path opacity="0.54" d="M1326.28 1209.94C1359.05 1171.95 1350.02 1111.22 1319 1072.38C1316.24 1068.91 1313.32 1065.59 1310.26 1062.42C1279.09 1030.08 1235.83 1012.49 1192.55 999.419C1184.22 996.9 1175.83 994.542 1167.45 992.232C1128.05 981.39 1087.82 971.21 1051.61 951.79C1039.99 945.58 1028.9 938.412 1018.47 930.359C947.936 875.742 913.846 783.524 894.255 695.374C892.833 688.966 891.457 682.552 890.125 676.132C870.275 581.254 850.44 487.151 808.509 410.632C790.66 378.072 772.086 343.565 736.839 324.473C694.803 301.622 641.391 305.427 595.509 316.573C564.264 324.158 534.445 334.75 503.899 341.97C489.505 345.481 474.874 347.938 460.124 349.322C365.264 357.633 266.319 306.393 202.238 230.676C138.091 154.884 104.168 58.311 87.9369 -39.4896" stroke="white" stroke-opacity="0.25" stroke-width="1.28774" stroke-miterlimit="10"/>
<path opacity="0.54" d="M1320.06 1222.17C1352.84 1184.23 1344.24 1123.69 1313.67 1084.54C1310.92 1081.05 1308.06 1077.69 1305.02 1074.49C1274.22 1041.84 1231.24 1023.71 1188.12 1010.12C1179.82 1007.51 1171.49 1005.06 1163.14 1002.66C1123.89 991.379 1083.79 980.831 1047.72 961.223C1036.13 954.958 1025.09 947.741 1014.69 939.648C944.327 884.756 910.592 792.58 891.711 704.3C890.333 697.895 889.028 691.463 887.75 685.043C868.773 590.088 850.681 495.743 811 418.023C793.688 384.098 775.419 348.156 739.647 328.287C696.952 304.489 642.252 308.771 595.543 320.932C563.748 329.195 533.439 340.677 502.315 348.69C487.661 352.575 472.739 355.371 457.673 357.055C360.82 367.239 259.264 315.123 194.046 237.708C128.762 160.213 94.8823 61.2934 78.7515 -38.5875" stroke="white" stroke-opacity="0.25" stroke-width="1.28774" stroke-miterlimit="10"/>
<path opacity="0.54" d="M1313.87 1234.41C1346.67 1196.54 1338.47 1136.15 1308.33 1096.67C1305.64 1093.14 1302.8 1089.76 1299.81 1086.54C1269.35 1053.55 1226.69 1034.91 1183.73 1020.83C1175.48 1018.12 1167.15 1015.56 1158.84 1013.09C1119.76 1001.37 1079.79 990.451 1043.83 970.663C1032.29 964.34 1021.28 957.081 1010.92 948.961C940.762 893.773 907.349 801.637 889.183 713.251C887.853 706.824 886.586 700.4 885.382 693.979C867.278 598.947 850.957 504.309 813.49 425.406C796.738 390.123 778.749 352.762 742.429 332.068C699.079 307.297 643.083 312.058 595.561 325.237C563.191 334.2 532.395 346.558 500.741 355.383C485.834 359.646 470.628 362.781 455.251 364.764C356.383 376.8 252.239 323.851 185.89 244.69C119.467 165.501 85.6315 64.2422 69.581 -37.7343" stroke="white" stroke-opacity="0.25" stroke-width="1.28774" stroke-miterlimit="10"/>
<path opacity="0.54" d="M1307.66 1246.64C1340.46 1208.82 1332.69 1148.62 1302.99 1108.81C1300.35 1105.25 1297.53 1101.85 1294.59 1098.59C1264.51 1065.26 1222.12 1046.1 1179.33 1031.5C1171.11 1028.7 1162.84 1026.05 1154.53 1023.46C1115.61 1011.32 1075.76 999.992 1039.94 980.026C1028.45 973.647 1017.48 966.354 1007.15 958.217C937.177 902.756 904.137 810.662 886.63 722.144C885.37 715.721 884.136 709.274 882.979 702.832C865.746 607.73 851.275 512.833 815.958 432.74C799.811 396.102 782.058 357.296 745.19 335.824C701.182 310.084 643.896 315.344 595.542 329.515C562.599 339.159 531.337 352.397 499.124 362.025C483.959 366.673 468.459 370.148 452.762 372.42C351.902 386.312 245.146 332.509 177.653 251.643C110.093 170.732 76.2777 67.1449 60.3287 -36.9054" stroke="white" stroke-opacity="0.25" stroke-width="1.28774" stroke-miterlimit="10"/>
<path opacity="0.54" d="M1301.45 1258.9C1334.27 1221.15 1326.92 1161.11 1297.66 1120.97C1295.03 1117.39 1292.27 1113.95 1289.35 1110.66C1259.61 1077.02 1217.54 1057.34 1174.93 1042.21C1166.74 1039.3 1158.49 1036.57 1150.24 1033.89C1111.48 1021.32 1071.74 1009.62 1036.08 989.469C1024.62 983.036 1013.7 975.697 1003.41 967.521C933.61 911.783 900.923 819.706 884.123 731.082C882.912 724.638 881.748 718.195 880.631 711.754C864.298 616.577 851.691 521.422 818.476 440.14C802.936 402.147 785.392 361.919 748.024 339.626C703.359 312.936 644.787 318.675 595.578 333.86C562.087 344.177 530.333 358.312 497.534 368.734C482.117 373.753 466.333 377.565 450.325 380.138C347.47 395.9 238.105 341.242 169.476 258.659C100.785 176.05 67.0081 70.093 51.1364 -36.026" stroke="white" stroke-opacity="0.25" stroke-width="1.28774" stroke-miterlimit="10"/>
<path opacity="0.54" d="M1295.24 1271.13C1328.06 1233.44 1321.12 1173.55 1292.29 1133.12C1289.72 1129.52 1286.98 1126.03 1284.12 1122.72C1254.74 1088.75 1212.95 1068.54 1170.51 1052.92C1162.35 1049.92 1154.15 1047.08 1145.93 1044.3C1107.31 1031.29 1067.73 1019.22 1032.19 998.894C1020.77 992.4 1009.89 985.015 999.628 976.81C930.004 920.785 897.665 828.773 881.572 740.017C880.409 733.575 879.292 727.111 878.24 720.673C862.774 625.399 852.111 529.982 820.949 447.512C806.065 408.142 788.707 366.491 750.79 343.419C705.467 315.759 645.597 321.997 595.57 338.175C561.508 349.171 529.288 364.227 495.941 375.415C480.273 380.812 464.204 384.967 447.884 387.839C343.036 405.453 231.081 349.941 161.294 265.658C91.4588 181.326 57.7338 73.0452 41.9355 -35.1585" stroke="white" stroke-opacity="0.25" stroke-width="1.28774" stroke-miterlimit="10"/>
<path opacity="0.54" d="M1289.06 1283.37C1321.88 1245.74 1315.37 1186.02 1286.98 1145.26C1284.44 1141.61 1281.75 1138.12 1278.93 1134.77C1249.92 1100.46 1208.41 1079.75 1166.14 1063.6C1158.03 1060.51 1149.84 1057.58 1141.66 1054.71C1103.2 1041.26 1063.74 1028.81 1028.35 1008.3C1016.97 1001.76 1006.12 994.333 995.906 986.087C926.462 929.78 894.474 837.786 879.097 748.926C877.981 742.462 876.927 736.007 875.935 729.563C861.345 634.213 852.687 538.544 823.509 454.882C809.299 414.159 792.112 371.086 753.644 347.188C707.641 318.555 646.502 325.295 595.653 342.466C561.038 354.161 528.328 370.081 494.404 382.068C478.479 387.848 462.117 392.342 445.474 395.506C338.635 414.972 224.067 358.627 153.143 272.622C82.1712 186.59 48.4879 75.9661 32.7963 -34.3223" stroke="white" stroke-opacity="0.25" stroke-width="1.28774" stroke-miterlimit="10"/>
<path opacity="0.54" d="M1282.85 1295.6C1315.68 1258.02 1309.6 1198.49 1281.62 1157.4C1279.13 1153.73 1276.47 1150.21 1273.66 1146.82C1245 1112.18 1203.8 1090.94 1161.7 1074.31C1153.61 1071.12 1145.49 1068.06 1137.33 1065.14C1099.03 1051.27 1059.68 1038.42 1024.44 1017.75C1013.1 1011.15 1002.3 1003.67 992.121 995.395C922.877 938.814 891.215 846.865 876.542 757.874C875.472 751.412 874.481 744.939 873.547 738.476C859.824 643.056 853.177 547.15 825.984 462.245C812.5 420.149 795.424 375.649 756.435 350.974C709.774 321.394 647.344 328.611 595.653 346.779C560.464 359.149 527.292 375.961 492.808 388.743C476.63 394.889 459.983 399.722 443.03 403.197C334.197 424.538 217.02 367.315 144.957 279.614C72.8732 191.861 39.2131 78.9139 23.5966 -33.4608" stroke="white" stroke-opacity="0.25" stroke-width="1.28774" stroke-miterlimit="10"/>
<path opacity="0.54" d="M1276.64 1307.86C1309.48 1270.34 1303.79 1210.97 1276.28 1169.58C1273.83 1165.89 1271.21 1162.31 1268.44 1158.91C1240.15 1123.96 1199.23 1102.19 1157.32 1085.03C1149.26 1081.75 1141.17 1078.59 1133.04 1075.56C1094.9 1061.26 1055.68 1048.03 1020.57 1027.18C1009.27 1020.53 998.495 1013.01 988.351 1004.7C919.288 947.823 887.972 855.933 874.012 766.816C872.99 760.334 872.063 753.855 871.182 747.403C858.336 651.905 853.761 555.776 828.46 469.648C815.699 426.205 798.715 380.25 759.203 354.777C711.885 324.225 648.163 331.943 595.643 351.121C559.905 364.17 526.24 381.873 491.204 395.452C474.771 401.981 457.832 407.154 440.556 410.92C329.732 434.114 209.945 376.059 136.741 286.632C63.5181 197.183 29.9 81.8854 14.3632 -32.5737" stroke="white" stroke-opacity="0.25" stroke-width="1.28774" stroke-miterlimit="10"/>
<path opacity="0.54" d="M1271.58 1320.52C1304.42 1283.05 1299.17 1223.86 1272.07 1182.14C1269.65 1178.41 1267.08 1174.83 1264.34 1171.36C1236.39 1136.07 1195.78 1113.79 1154.03 1096.11C1146.03 1092.72 1137.94 1089.51 1129.85 1086.37C1091.88 1071.62 1052.78 1058.03 1017.79 1037C1006.54 1030.28 995.808 1022.73 985.693 1014.4C916.807 957.255 885.846 865.38 872.58 776.152C871.606 769.671 870.718 763.195 869.914 756.723C857.941 661.149 855.465 564.817 832.058 477.419C820.068 432.603 803.155 385.245 763.095 358.97C715.119 327.449 650.105 335.665 596.766 355.838C560.455 369.562 526.299 388.181 490.71 402.528C474.027 409.428 456.803 414.941 439.214 419.01C326.395 444.077 203.995 385.145 129.636 293.994C55.2766 202.842 21.7001 85.2042 6.24468 -31.3408" stroke="white" stroke-opacity="0.25" stroke-width="1.28774" stroke-miterlimit="10"/>
<path opacity="0.54" d="M1264.24 1332.33C1297.11 1294.93 1292.25 1235.88 1265.61 1193.85C1263.23 1190.1 1260.69 1186.47 1257.99 1182.98C1230.41 1147.36 1190.09 1124.57 1148.5 1106.39C1140.52 1102.9 1132.47 1099.58 1124.43 1096.37C1086.62 1081.19 1047.63 1067.2 1012.79 1046.01C1001.58 1039.24 990.902 1031.64 980.829 1023.27C912.12 965.856 881.511 874.024 868.951 784.665C868.049 778.164 867.208 771.691 866.451 765.197C855.351 669.548 854.999 573.038 833.458 484.37C822.239 438.201 805.397 389.397 764.81 362.321C716.169 329.844 649.871 338.546 595.711 359.71C558.849 374.113 524.204 393.617 488.06 408.766C471.128 416.042 453.62 421.895 435.717 426.264C320.906 453.181 195.895 393.395 120.397 300.546C44.8983 207.673 11.3673 87.7119 -4.00988 -30.9192" stroke="white" stroke-opacity="0.25" stroke-width="1.28774" stroke-miterlimit="10"/>
<path opacity="0.54" d="M1258.03 1344.56C1290.9 1307.21 1286.47 1248.34 1260.28 1205.99C1257.93 1202.21 1255.43 1198.55 1252.79 1195.03C1225.55 1159.1 1185.53 1135.78 1144.11 1117.07C1136.16 1113.49 1128.16 1110.07 1120.15 1106.75C1082.51 1091.13 1043.65 1076.77 1008.94 1055.4C997.762 1048.58 987.11 1040.93 977.067 1032.53C908.537 974.842 878.301 883.023 866.426 793.557C865.57 787.059 864.792 780.565 864.092 774.075C853.865 678.35 855.678 581.689 835.965 491.699C825.562 444.189 808.719 393.95 767.61 366.071C718.32 332.631 650.724 341.802 595.708 364.005C558.272 379.108 523.162 399.486 486.441 415.422C469.256 423.08 451.454 429.274 433.226 433.938C316.424 462.708 188.8 402.088 112.165 307.517C35.5293 212.946 2.0433 90.6382 -13.2573 -30.0775" stroke="white" stroke-opacity="0.25" stroke-width="1.28774" stroke-miterlimit="10"/>
<path opacity="0.54" d="M1251.82 1356.82C1284.7 1319.54 1280.7 1260.84 1254.91 1218.17C1252.61 1214.37 1250.14 1210.69 1247.52 1207.13C1220.65 1170.86 1180.91 1147.01 1139.66 1127.82C1131.74 1124.15 1123.77 1120.61 1115.81 1117.22C1078.3 1101.18 1039.57 1086.43 1005.01 1064.88C993.884 1057.99 983.274 1050.3 973.266 1041.87C904.942 983.883 875.031 892.134 863.869 802.536C863.06 796.017 862.337 789.518 861.699 783.038C852.342 687.238 856.347 590.45 838.436 499.14C828.85 450.286 812.037 398.589 770.375 369.911C720.432 335.5 651.539 345.17 595.701 368.366C557.693 384.145 522.111 405.418 484.836 422.147C467.399 430.178 449.312 436.713 430.769 441.683C311.973 472.333 181.739 410.833 103.966 314.559C26.1941 218.284 -7.24887 93.6372 -22.4475 -29.1651" stroke="white" stroke-opacity="0.25" stroke-width="1.28774" stroke-miterlimit="10"/>
<path opacity="0.54" d="M1245.63 1369.05C1278.52 1331.82 1274.92 1273.31 1249.6 1230.3C1247.35 1226.46 1244.9 1222.75 1242.33 1219.18C1215.82 1182.57 1176.38 1158.23 1135.32 1138.5C1127.45 1134.71 1119.5 1131.11 1111.55 1127.6C1074.2 1111.13 1035.59 1095.98 1001.18 1074.28C990.09 1067.34 979.522 1059.61 969.559 1051.13C901.398 992.875 871.838 901.138 861.391 811.437C860.63 804.921 859.962 798.416 859.387 791.923C850.902 696.05 857.119 599.156 840.99 506.478C832.267 456.301 815.427 403.151 773.246 373.673C722.641 338.314 652.462 348.463 595.799 372.652C557.242 389.11 521.181 411.274 483.337 428.821C465.652 437.219 447.281 444.092 428.426 449.364C307.635 481.858 174.789 419.532 95.8801 321.542C16.9716 223.552 -16.4303 96.574 -31.5492 -28.3126" stroke="white" stroke-opacity="0.25" stroke-width="1.28774" stroke-miterlimit="10"/>
<path opacity="0.54" d="M1239.43 1381.29C1272.3 1344.13 1269.15 1285.77 1244.24 1242.44C1242.01 1238.58 1239.64 1234.82 1237.06 1231.22C1210.91 1194.28 1171.77 1169.41 1130.87 1149.2C1123.03 1145.31 1115.11 1141.62 1107.21 1138.02C1070.02 1121.11 1031.55 1105.59 997.262 1083.71C986.212 1076.72 975.678 1068.95 965.74 1060.45C897.774 1001.92 868.559 910.224 858.796 820.392C858.083 813.861 857.485 807.345 856.957 800.839C849.344 704.867 857.773 607.916 843.417 513.865C835.557 462.372 818.691 407.739 775.965 377.459C724.702 341.128 653.232 351.777 595.745 376.96C556.614 394.093 520.081 417.174 481.667 435.493C463.731 444.275 445.068 451.488 425.887 457.049C303.11 491.407 167.647 428.221 87.6046 328.529C7.56241 228.837 -25.8215 99.5158 -40.8385 -27.4558" stroke="white" stroke-opacity="0.25" stroke-width="1.28774" stroke-miterlimit="10"/>
<path opacity="0.54" d="M1233.21 1393.52C1269.05 1353.1 1262.59 1287.68 1231.84 1243.27C1201.1 1198.85 1151.83 1171.33 1102.92 1148.42C1054.01 1125.52 1002.77 1105.11 961.976 1069.74C889.273 1006.65 861.334 905.771 854.619 809.748C847.903 713.725 858.564 616.695 845.949 521.256C838.975 468.445 822.044 412.347 778.796 381.272C726.877 343.972 654.105 355.119 595.781 381.317C537.457 407.516 484.877 446.953 423.478 464.784C298.703 501.006 160.636 436.962 79.4576 335.553C-1.7207 234.144 -35.0622 102.495 -50.001 -26.5609" stroke="white" stroke-opacity="0.25" stroke-width="1.28774" stroke-miterlimit="10"/>
</g>
<defs>
<clipPath id="clip0_182_29163">
<rect width="1963.82" height="1784.2" fill="white" transform="translate(-350 49.3574) rotate(-20.2079)"/>
</clipPath>
</defs>
</svg>
