<svg width="23" height="24" viewBox="0 0 23 24" fill="none" xmlns="http://www.w3.org/2000/svg">
<mask id="mask0_278_475" style="mask-type:alpha" maskUnits="userSpaceOnUse" x="0" y="0" width="23" height="24">
<rect x="0.0117188" y="0.926758" width="22.478" height="22.478" fill="#D9D9D9"/>
</mask>
<g mask="url(#mask0_278_475)">
<path d="M1.69531 19.0103V16.9282C1.69531 16.4455 1.81989 16.0147 2.06906 15.6359C2.3182 15.2571 2.65094 14.9623 3.06727 14.7517C3.95735 14.3163 4.85237 13.9807 5.75232 13.7447C6.65228 13.5088 7.64141 13.3908 8.71968 13.3908C9.79796 13.3908 10.7871 13.5088 11.687 13.7447C12.587 13.9807 13.482 14.3163 14.3721 14.7517C14.7884 14.9623 15.1212 15.2571 15.3703 15.6359C15.6195 16.0147 15.744 16.4455 15.744 16.9282V19.0103H1.69531ZM17.6172 19.0103V16.8129C17.6172 16.1981 17.4667 15.6122 17.1656 15.0552C16.8646 14.4982 16.4375 14.0202 15.8846 13.6214C16.5125 13.715 17.1087 13.86 17.673 14.0563C18.2374 14.2527 18.7759 14.4847 19.2886 14.7524C19.7725 15.0106 20.1463 15.3149 20.4098 15.6652C20.6734 16.0156 20.8052 16.3982 20.8052 16.8129V19.0103H17.6172ZM8.71968 11.8778C7.81823 11.8778 7.04653 11.5568 6.40458 10.9149C5.76263 10.273 5.44165 9.50125 5.44165 8.5998C5.44165 7.69834 5.76263 6.92664 6.40458 6.2847C7.04653 5.64275 7.81823 5.32178 8.71968 5.32178C9.62113 5.32178 10.3928 5.64275 11.0348 6.2847C11.6767 6.92664 11.9977 7.69834 11.9977 8.5998C11.9977 9.50125 11.6767 10.273 11.0348 10.9149C10.3928 11.5568 9.62113 11.8778 8.71968 11.8778ZM16.8067 8.5998C16.8067 9.50125 16.4857 10.273 15.8437 10.9149C15.2018 11.5568 14.4301 11.8778 13.5286 11.8778C13.423 11.8778 13.2885 11.8658 13.1252 11.8418C12.9619 11.8178 12.8274 11.7914 12.7218 11.7626C13.0911 11.3185 13.375 10.8259 13.5733 10.2847C13.7717 9.74351 13.8709 9.1815 13.8709 8.59868C13.8709 8.01587 13.7697 7.4561 13.5674 6.91936C13.3651 6.38263 13.0832 5.88853 12.7218 5.43705C12.8562 5.38902 12.9907 5.3578 13.1252 5.34339C13.2597 5.32898 13.3941 5.32178 13.5286 5.32178C14.4301 5.32178 15.2018 5.64275 15.8437 6.2847C16.4857 6.92664 16.8067 7.69834 16.8067 8.5998ZM3.10017 17.6054H14.3392V16.9282C14.3392 16.7325 14.2903 16.5584 14.1924 16.4058C14.0945 16.2534 13.9393 16.1201 13.7268 16.006C12.9559 15.6086 12.1622 15.3075 11.3457 15.1027C10.5292 14.898 9.65386 14.7956 8.71968 14.7956C7.7855 14.7956 6.91015 14.898 6.09363 15.1027C5.27713 15.3075 4.48344 15.6086 3.71255 16.006C3.50003 16.1201 3.34483 16.2534 3.24695 16.4058C3.1491 16.5584 3.10017 16.7325 3.10017 16.9282V17.6054ZM8.71968 10.473C9.2348 10.473 9.67578 10.2896 10.0426 9.92273C10.4094 9.5559 10.5929 9.11493 10.5929 8.5998C10.5929 8.08468 10.4094 7.64371 10.0426 7.27688C9.67578 6.91005 9.2348 6.72663 8.71968 6.72663C8.20456 6.72663 7.76358 6.91005 7.39675 7.27688C7.02992 7.64371 6.84651 8.08468 6.84651 8.5998C6.84651 9.11493 7.02992 9.5559 7.39675 9.92273C7.76358 10.2896 8.20456 10.473 8.71968 10.473Z" fill="#1D192B"/>
</g>
</svg>
