<svg width="14" height="14" viewBox="0 0 14 14" fill="none" xmlns="http://www.w3.org/2000/svg">
<path d="M7.00016 2.33203C9.57752 2.33203 11.6668 4.42134 11.6668 6.9987C11.6668 9.57606 9.57752 11.6654 7.00016 11.6654C4.4228 11.6654 2.3335 9.57606 2.3335 6.9987C2.3335 4.42134 4.4228 2.33203 7.00016 2.33203ZM6.87533 9.15295C7.35639 9.15295 7.559 8.85312 7.559 8.56689C7.559 8.28067 7.36319 7.98084 6.87533 7.98084C6.38747 7.98084 6.18077 8.2657 6.18077 8.56689C6.18077 8.86809 6.39447 9.15295 6.87533 9.15295ZM7.51019 7.34053C7.62277 6.93239 8.59539 6.88203 8.59539 5.99478C8.59539 5.20456 7.79214 4.76842 7.01086 4.76842C5.88833 4.76842 5.46425 5.38073 5.46425 5.75056C5.46425 6.09842 5.74541 6.27148 6.0015 6.27148C6.32019 6.27148 6.43025 6.1342 6.48975 6.05992C6.54944 5.98564 6.62897 5.85381 6.84247 5.85381C7.01611 5.85381 7.10302 6.01014 7.10302 6.0817C7.10302 6.45231 6.15336 6.61992 6.15336 7.17778C6.15336 7.51417 6.39214 7.68236 6.86969 7.68236C7.09136 7.68236 7.4398 7.59584 7.51019 7.34053Z" fill="#3F3F46"/>
</svg>
