<svg width="18" height="19" viewBox="0 0 18 19" fill="none" xmlns="http://www.w3.org/2000/svg">
<path opacity="0.12" d="M9 12.0498C10.2426 12.0498 11.25 11.1096 11.25 9.9498C11.25 8.79001 10.2426 6.7998 9 6.7998C7.75736 6.7998 6.75 8.79001 6.75 9.9498C6.75 11.1096 7.75736 12.0498 9 12.0498Z" fill="#1D192B"/>
<path d="M9 12.0499C10.2426 12.0499 11.25 11.0425 11.25 9.79985C11.25 8.55721 10.2426 6.64151 9 6.64151C7.75736 6.64151 6.75 8.55721 6.75 9.79985C6.75 11.0425 7.75736 12.0499 9 12.0499Z" stroke="#1D192B" stroke-width="1.2" stroke-linecap="round" stroke-linejoin="round"/>
<path d="M2.25 7.97365C2.25 7.54289 2.25 7.3275 2.30552 7.12915C2.3547 6.95345 2.43552 6.7882 2.54402 6.64151C2.6665 6.47591 2.83652 6.34367 3.17654 6.07921L8.26327 2.12286C8.52677 1.91793 8.65851 1.81546 8.80399 1.77607C8.93235 1.74131 9.06765 1.74131 9.19601 1.77607C9.34149 1.81546 9.47324 1.91793 9.73673 2.12287L14.8235 6.07921C15.1635 6.34368 15.3335 6.47591 15.456 6.64151C15.5645 6.7882 15.6453 6.95345 15.6945 7.12915C15.75 7.3275 15.75 7.54289 15.75 7.97365V13.3999C15.75 14.2399 15.75 14.66 15.5865 14.9808C15.4427 15.2631 15.2132 15.4926 14.931 15.6364C14.6101 15.7999 14.1901 15.7999 13.35 15.7999H4.65C3.80992 15.7999 3.38988 15.7999 3.06901 15.6364C2.78677 15.4926 2.5573 15.2631 2.41349 14.9808C2.25 14.66 2.25 14.2399 2.25 13.3999V7.97365Z" stroke="#1D192B" stroke-width="1.2" stroke-linecap="round" stroke-linejoin="round"/>
</svg>
