<svg width="34" height="34" viewBox="0 0 34 34" fill="none" xmlns="http://www.w3.org/2000/svg">
<circle cx="17" cy="17" r="17" fill="#F7F7F7"/>
<circle cx="17" cy="17" r="17" fill="#F7F7F7"/>
<mask id="mask0_182_8536" style="mask-type:alpha" maskUnits="userSpaceOnUse" x="5" y="5" width="24" height="24">
<rect x="5" y="5" width="24" height="24" fill="#D9D9D9"/>
</mask>
<g mask="url(#mask0_182_8536)">
<path d="M9.5 23.8846V22.3846H11.3077V14.9231C11.3077 13.5782 11.7228 12.3891 12.5529 11.3558C13.383 10.3224 14.4487 9.66153 15.75 9.37308V8.75C15.75 8.40278 15.8714 8.10765 16.1143 7.8646C16.3571 7.62153 16.6519 7.5 16.9988 7.5C17.3457 7.5 17.641 7.62153 17.8846 7.8646C18.1282 8.10765 18.25 8.40278 18.25 8.75V9.37308C19.5512 9.66153 20.6169 10.3224 21.4471 11.3558C22.2772 12.3891 22.6922 13.5782 22.6922 14.9231V22.3846H24.5V23.8846H9.5ZM16.9983 26.6923C16.5007 26.6923 16.0753 26.5153 15.7221 26.1613C15.3689 25.8073 15.1923 25.3817 15.1923 24.8846H18.8077C18.8077 25.3833 18.6305 25.8093 18.2761 26.1625C17.9218 26.5157 17.4959 26.6923 16.9983 26.6923ZM12.8077 22.3846H21.1923V14.9231C21.1923 13.7654 20.783 12.7772 19.9644 11.9586C19.1458 11.14 18.1577 10.7307 17 10.7307C15.8423 10.7307 14.8541 11.14 14.0356 11.9586C13.217 12.7772 12.8077 13.7654 12.8077 14.9231V22.3846Z" fill="#1C1B1F"/>
</g>
</svg>
