<svg width="23" height="24" viewBox="0 0 23 24" fill="none" xmlns="http://www.w3.org/2000/svg">
<mask id="mask0_278_3479" style="mask-type:alpha" maskUnits="userSpaceOnUse" x="0" y="0" width="23" height="24">
<rect x="0.511719" y="0.926758" width="22.478" height="22.478" fill="#D9D9D9"/>
</mask>
<g mask="url(#mask0_278_3479)">
<path d="M11.7509 11.8778C10.8495 11.8778 10.0778 11.5568 9.43583 10.9149C8.79388 10.273 8.4729 9.50125 8.4729 8.5998C8.4729 7.69834 8.79388 6.92664 9.43583 6.2847C10.0778 5.64275 10.8495 5.32178 11.7509 5.32178C12.6524 5.32178 13.4241 5.64275 14.066 6.2847C14.708 6.92664 15.029 7.69834 15.029 8.5998C15.029 9.50125 14.708 10.273 14.066 10.9149C13.4241 11.5568 12.6524 11.8778 11.7509 11.8778ZM4.72656 19.0103V16.9282C4.72656 16.4695 4.85114 16.0447 5.10031 15.6539C5.34945 15.2631 5.68236 14.9626 6.09901 14.7524C7.02479 14.2986 7.95868 13.9581 8.90067 13.7312C9.84265 13.5043 10.7927 13.3908 11.7509 13.3908C12.7091 13.3908 13.6592 13.5043 14.6012 13.7312C15.5432 13.9581 16.4771 14.2986 17.4028 14.7524C17.8195 14.9626 18.1524 15.2631 18.4016 15.6539C18.6507 16.0447 18.7753 16.4695 18.7753 16.9282V19.0103H4.72656ZM6.13142 17.6054H17.3704V16.9282C17.3704 16.7385 17.3155 16.5628 17.2056 16.4013C17.0958 16.2399 16.9466 16.1081 16.7581 16.006C15.9512 15.6086 15.1284 15.3075 14.2897 15.1027C13.4511 14.898 12.6048 14.7956 11.7509 14.7956C10.897 14.7956 10.0508 14.898 9.21213 15.1027C8.37348 15.3075 7.5507 15.6086 6.7438 16.006C6.55528 16.1081 6.40609 16.2399 6.29623 16.4013C6.18636 16.5628 6.13142 16.7385 6.13142 16.9282V17.6054ZM11.7509 10.473C12.2661 10.473 12.707 10.2896 13.0739 9.92273C13.4407 9.5559 13.6241 9.11493 13.6241 8.5998C13.6241 8.08468 13.4407 7.64371 13.0739 7.27688C12.707 6.91005 12.2661 6.72663 11.7509 6.72663C11.2358 6.72663 10.7948 6.91005 10.428 7.27688C10.0612 7.64371 9.87776 8.08468 9.87776 8.5998C9.87776 9.11493 10.0612 9.5559 10.428 9.92273C10.7948 10.2896 11.2358 10.473 11.7509 10.473Z" fill="#1D192B"/>
</g>
</svg>
