<svg width="18" height="18" viewBox="0 0 18 18" fill="none" xmlns="http://www.w3.org/2000/svg">
<path d="M9.91862 13.5833H4.41862M11.752 9.91667H4.41862M8.08529 1.66667H5.15195C3.61181 1.66667 2.84174 1.66667 2.25348 1.9664C1.73603 2.23005 1.31534 2.65075 1.05169 3.16819C0.751953 3.75645 0.751953 4.52652 0.751953 6.06667V12.85C0.751953 14.3901 0.751953 15.1602 1.05169 15.7485C1.31534 16.2659 1.73603 16.6866 2.25348 16.9503C2.84174 17.25 3.61181 17.25 5.15195 17.25H11.9353C13.4754 17.25 14.2455 17.25 14.8338 16.9503C15.3512 16.6866 15.7719 16.2659 16.0356 15.7485C16.3353 15.1602 16.3353 14.3901 16.3353 12.85V9.91667M16.4465 1.55546C17.5204 2.6294 17.5204 4.3706 16.4465 5.44454C15.3726 6.51849 13.6314 6.51849 12.5574 5.44454C11.4835 4.3706 11.4835 2.6294 12.5574 1.55546C13.6314 0.481515 15.3726 0.481515 16.4465 1.55546Z" stroke="#825EE4" stroke-width="1.2" stroke-linecap="round" stroke-linejoin="round"/>
</svg>
