<svg width="18" height="19" viewBox="0 0 18 19" fill="none" xmlns="http://www.w3.org/2000/svg">
<path opacity="0.12" d="M9 9.0498C10.864 9.0498 12.375 7.53877 12.375 5.6748C12.375 3.81084 10.864 2.2998 9 2.2998C7.13604 2.2998 5.625 3.81084 5.625 5.6748C5.625 7.53877 7.13604 9.0498 9 9.0498Z" fill="#1D192B"/>
<path d="M8.99989 11.2998C6.62233 11.2998 4.50799 12.4478 3.16188 14.2293C2.87217 14.6127 2.72731 14.8044 2.73205 15.0635C2.73571 15.2637 2.86141 15.5162 3.01891 15.6398C3.22278 15.7998 3.50529 15.7998 4.07031 15.7998H13.9295C14.4945 15.7998 14.777 15.7998 14.9809 15.6398C15.1384 15.5162 15.2641 15.2637 15.2677 15.0635C15.2725 14.8044 15.1276 14.6127 14.8379 14.2293C13.4918 12.4478 11.3774 11.2998 8.99989 11.2998Z" stroke="#1D192B" stroke-width="1.2" stroke-linecap="round" stroke-linejoin="round"/>
<path d="M8.99989 9.0498C10.8638 9.0498 12.3749 7.53877 12.3749 5.6748C12.3749 3.81084 10.8638 2.2998 8.99989 2.2998C7.13593 2.2998 5.62489 3.81084 5.62489 5.6748C5.62489 7.53877 7.13593 9.0498 8.99989 9.0498Z" stroke="#1D192B" stroke-width="1.2" stroke-linecap="round" stroke-linejoin="round"/>
</svg>
