<svg width="28" height="27" viewBox="0 0 28 27" fill="none" xmlns="http://www.w3.org/2000/svg">
<path d="M27.3335 13.5C27.3335 20.9558 21.2893 27 13.8335 27C6.37765 27 0.333496 20.9558 0.333496 13.5C0.333496 6.04416 6.37765 0 13.8335 0C21.2893 0 27.3335 6.04416 27.3335 13.5ZM3.89774 13.5C3.89774 18.9874 8.34613 23.4358 13.8335 23.4358C19.3209 23.4358 23.7693 18.9874 23.7693 13.5C23.7693 8.01263 19.3209 3.56424 13.8335 3.56424C8.34613 3.56424 3.89774 8.01263 3.89774 13.5Z" fill="#E9E2FC"/>
<path d="M15.0399 1.84438C15.1412 0.865376 16.0216 0.142193 16.9788 0.371505C18.5208 0.740944 19.9904 1.38031 21.3178 2.26455C23.1412 3.4792 24.6417 5.11942 25.6895 7.04358C26.7373 8.96774 27.3011 11.118 27.3321 13.3088C27.3547 14.9036 27.0945 16.4849 26.5682 17.9807C26.2415 18.9092 25.1564 19.2564 24.279 18.8104C23.4016 18.3643 23.0693 17.2932 23.3516 16.3504C23.6411 15.3837 23.7826 14.3752 23.7683 13.3593C23.7454 11.7469 23.3305 10.1643 22.5593 8.74819C21.7881 7.33204 20.6838 6.12488 19.3418 5.23091C18.4962 4.66764 17.5722 4.23937 16.6032 3.95808C15.6579 3.68371 14.9385 2.82339 15.0399 1.84438Z" fill="#825EE4"/>
</svg>
