<svg width="16" height="17" viewBox="0 0 16 17" fill="none" xmlns="http://www.w3.org/2000/svg">
<g clip-path="url(#clip0_182_23723)">
<path opacity="0.12" d="M8.00065 14.7166C11.6826 14.7166 14.6673 11.7319 14.6673 8.04997C14.6673 4.36807 11.6826 1.3833 8.00065 1.3833C4.31875 1.3833 1.33398 4.36807 1.33398 8.04997C1.33398 11.7319 4.31875 14.7166 8.00065 14.7166Z" fill="#1D192B"/>
<path d="M12.0007 6.71663L9.71111 9.00618C9.5791 9.13818 9.5131 9.20419 9.43699 9.22892C9.37004 9.25067 9.29793 9.25067 9.23098 9.22892C9.15487 9.20419 9.08887 9.13818 8.95686 9.00618L7.04444 7.09376C6.91244 6.96175 6.84643 6.89575 6.77032 6.87102C6.70338 6.84927 6.63126 6.84927 6.56431 6.87102C6.4882 6.89575 6.4222 6.96175 6.29019 7.09376L4.00065 9.3833M14.6673 8.04997C14.6673 11.7319 11.6826 14.7166 8.00065 14.7166C4.31875 14.7166 1.33398 11.7319 1.33398 8.04997C1.33398 4.36807 4.31875 1.3833 8.00065 1.3833C11.6826 1.3833 14.6673 4.36807 14.6673 8.04997Z" stroke="#1D192B" stroke-width="1.2" stroke-linecap="round" stroke-linejoin="round"/>
</g>
<defs>
<clipPath id="clip0_182_23723">
<rect width="16" height="16" fill="white" transform="translate(0 0.0498047)"/>
</clipPath>
</defs>
</svg>
