<svg width="375" height="862" viewBox="0 0 375 862" fill="none" xmlns="http://www.w3.org/2000/svg">
<g clip-path="url(#clip0_182_29221)">
<path opacity="0.54" d="M506.932 553.502C521.095 536.611 514.274 509.116 497.793 494.497C481.313 479.868 458.378 475.238 436.459 472.917C414.542 470.586 391.922 469.87 371.704 461.117C329.861 442.99 309.45 396.284 294.099 353.347C278.749 310.41 261.612 263.323 222.026 240.675C190.989 222.923 152.949 224.439 118.27 215.723C57.7345 200.514 7.1049 150.909 -9.31399 90.6839" stroke="white" stroke-opacity="0.25" stroke-width="0.867486" stroke-miterlimit="10"/>
<path opacity="0.54" d="M504.239 558.807C518.401 541.946 511.76 514.521 495.471 499.759C494.017 498.436 492.504 497.201 490.949 496.025C475.099 484.134 454.429 479.879 434.554 477.546C430.717 477.094 426.858 476.693 422.998 476.289C404.877 474.407 386.635 472.48 370.029 465.186C364.731 462.858 359.668 460.031 354.906 456.742C323.131 434.883 306.08 394.654 293.016 357.202C292.069 354.478 291.114 351.743 290.149 348.999C275.857 308.361 258.922 266.14 223.136 243.851C212.902 237.526 201.762 232.798 190.102 229.83C176.159 226.188 161.381 224.643 146.893 222.969C137.002 221.825 127.197 220.604 117.592 218.598C113.077 217.655 108.606 216.517 104.18 215.186C76.0064 206.697 50.0763 190.018 29.6956 168.327C9.17364 146.534 -5.60155 119.976 -13.2981 91.0476" stroke="white" stroke-opacity="0.25" stroke-width="0.867486" stroke-miterlimit="10"/>
<path opacity="0.54" d="M501.546 564.112C515.717 547.272 509.255 519.927 493.154 505.021C491.712 503.688 490.219 502.431 488.676 501.25C472.984 489.225 452.434 484.742 432.635 482.177C428.812 481.687 424.975 481.244 421.127 480.802C403.076 478.731 384.882 476.643 368.342 469.27C363.059 466.915 358.01 464.068 353.262 460.767C321.562 438.779 304.665 398.565 291.908 361.069C290.983 358.345 290.05 355.604 289.113 352.86C275.197 312.193 258.714 270.359 224.201 247.053C214.141 240.131 203.033 234.87 191.304 231.471C177.073 227.417 161.737 226.079 146.893 224.839C136.765 223.989 126.745 223.155 116.9 221.494C112.266 220.708 107.681 219.731 103.119 218.523C74.0799 210.835 47.019 193.787 26.146 171.346C5.20824 148.755 -9.72284 121.269 -17.2784 91.4079" stroke="white" stroke-opacity="0.25" stroke-width="0.867486" stroke-miterlimit="10"/>
<path opacity="0.54" d="M498.865 569.418C513.034 552.608 506.761 525.335 490.841 510.294C489.42 508.952 487.945 507.682 486.415 506.484C470.873 494.314 450.456 489.602 430.73 486.818C426.927 486.286 423.093 485.795 419.268 485.312C401.287 483.051 383.152 480.803 366.667 473.351C361.403 470.974 356.373 468.111 351.64 464.8C320.03 442.695 303.273 402.497 290.824 364.945L288.102 356.729C274.564 316.017 258.521 274.543 225.298 250.251C215.36 242.986 204.805 236.893 192.528 233.118C178.015 228.643 162.116 227.522 146.914 226.72C136.536 226.163 126.315 225.726 116.23 224.399C111.486 223.781 106.771 222.951 102.08 221.866C72.1772 214.981 43.9836 197.573 22.6172 174.388C1.20201 151.161 -13.7341 122.459 -21.2462 91.7926" stroke="white" stroke-opacity="0.25" stroke-width="0.867486" stroke-miterlimit="10"/>
<path opacity="0.54" d="M496.17 574.732C510.337 557.942 504.246 530.748 488.525 515.566C487.117 514.204 485.661 512.932 484.153 511.718C468.771 499.403 448.477 494.473 428.821 491.469C425.032 490.887 421.219 490.365 417.396 489.843C399.485 487.389 381.4 484.973 364.969 477.452C359.724 475.05 354.712 472.168 349.999 468.842C318.466 446.618 301.87 406.43 289.71 368.83C288.825 366.097 287.942 363.353 287.059 360.597C273.901 319.854 258.311 278.666 226.364 253.459C216.581 245.733 206.226 238.886 193.721 234.774C178.912 229.878 162.466 228.974 146.906 228.602C136.289 228.349 125.857 228.289 115.52 227.306C110.664 226.846 105.823 226.162 100.992 225.214C70.2254 219.142 40.8989 201.352 19.0388 177.431C-2.87013 153.466 -17.788 123.745 -25.2649 92.1758" stroke="white" stroke-opacity="0.25" stroke-width="0.867486" stroke-miterlimit="10"/>
<path opacity="0.54" d="M493.478 580.038C507.655 563.277 501.739 536.147 486.212 520.829C484.823 519.458 483.379 518.163 481.881 516.943C466.66 504.482 446.488 499.335 426.905 496.1C423.127 495.478 419.327 494.916 415.526 494.354C397.685 491.713 379.648 489.134 363.283 481.534C358.051 479.108 353.054 476.207 348.353 472.867C316.897 450.515 300.454 410.353 288.601 372.697C287.737 369.957 286.883 367.218 286.02 364.459C273.241 323.684 258.118 282.732 227.435 256.65C217.787 248.452 207.662 240.873 194.929 236.404C179.835 231.096 162.826 230.399 146.9 230.458C136.035 230.499 125.39 230.825 114.826 230.187C109.835 229.893 104.862 229.341 99.9277 228.534C68.2974 223.266 37.8383 205.116 15.4851 180.444C-6.90812 155.733 -21.8159 125.003 -29.2589 92.5308" stroke="white" stroke-opacity="0.25" stroke-width="0.867486" stroke-miterlimit="10"/>
<path opacity="0.54" d="M490.784 585.342C504.96 568.604 499.237 541.55 483.887 526.092C482.519 524.712 481.086 523.4 479.612 522.168C464.54 509.572 444.502 504.187 425.001 500.742C421.236 500.081 417.458 499.468 413.67 498.866C395.899 496.045 377.921 493.296 361.61 485.618C356.399 483.163 351.42 480.241 346.734 476.889C315.356 454.418 299.064 414.265 287.519 376.563C286.676 373.824 285.84 371.075 285.011 368.317C272.61 327.508 257.957 286.747 228.534 259.847C219.032 251.167 209.125 242.856 196.155 238.049C180.777 232.321 163.207 231.839 146.924 232.34C135.821 232.674 124.963 233.387 114.155 233.094C109.046 232.968 103.947 232.563 98.8815 231.882C66.3874 227.416 34.7991 208.894 11.9492 183.489C-10.9357 158.041 -25.826 126.295 -33.2317 92.918" stroke="white" stroke-opacity="0.25" stroke-width="0.867486" stroke-miterlimit="10"/>
<path opacity="0.54" d="M488.104 590.648C502.287 573.943 496.735 546.958 481.585 531.364C480.227 529.974 478.816 528.653 477.35 527.401C462.437 514.661 442.522 509.058 423.093 505.38C419.348 504.676 415.574 504.026 411.808 503.387C394.097 500.375 376.179 497.458 359.932 489.708C354.736 487.233 349.774 484.292 345.108 480.922C313.807 458.335 297.666 418.2 286.429 380.44C285.617 377.693 284.804 374.942 283.992 372.187C271.972 331.346 257.819 290.718 229.626 263.046C220.27 253.864 210.582 244.852 197.375 239.687C181.71 233.538 163.582 233.275 146.942 234.205C135.587 234.833 124.53 235.93 113.471 235.984C108.247 236.021 103.025 235.763 97.8297 235.211C64.4721 231.558 31.7468 212.666 8.40857 186.513C-14.9696 160.318 -29.8409 127.565 -37.2058 93.2838" stroke="white" stroke-opacity="0.25" stroke-width="0.867486" stroke-miterlimit="10"/>
<path opacity="0.54" d="M485.409 595.964C499.59 579.287 494.23 552.373 479.256 536.636C477.92 535.226 476.52 533.896 475.074 532.635C460.313 519.749 440.539 513.919 421.172 510.022C417.441 509.27 413.688 508.578 409.934 507.894C392.295 504.691 374.425 501.611 358.243 493.788C353.065 491.29 348.12 488.335 343.469 484.957C312.255 462.239 296.258 422.124 285.327 384.317C284.536 381.57 283.748 378.813 282.963 376.045C271.328 335.172 257.682 294.649 230.706 266.244C221.498 256.551 212.016 246.834 198.591 241.334C182.643 234.774 163.953 234.717 146.956 236.077C135.368 236.998 124.095 238.496 112.794 238.891C107.455 239.092 102.11 238.981 96.7847 238.559C62.5632 235.709 28.7162 216.446 4.87333 189.555C-18.998 162.625 -33.8512 128.843 -41.1813 93.667" stroke="white" stroke-opacity="0.25" stroke-width="0.867486" stroke-miterlimit="10"/>
<path opacity="0.54" d="M482.716 601.268C496.908 584.612 491.713 557.777 476.944 541.898C475.619 540.479 474.242 539.133 472.813 537.858C458.208 524.838 438.56 518.78 419.265 514.662C415.547 513.87 411.805 513.138 408.063 512.415C390.493 509.024 372.682 505.783 356.554 497.88C351.392 495.357 346.465 492.38 341.829 488.986C310.692 466.149 294.847 426.048 284.215 388.188C283.443 385.443 282.682 382.677 281.921 379.912C270.666 339.006 257.555 298.541 231.774 269.449C222.723 259.234 213.449 248.825 199.787 242.977C183.555 235.996 164.304 236.146 146.938 237.947C135.099 239.172 123.625 241.046 112.073 241.786C106.618 242.155 101.146 242.191 95.6869 241.893C60.6012 239.857 25.6221 220.223 1.28446 192.587C-23.0798 164.919 -37.9233 130.121 -45.2099 94.0412" stroke="white" stroke-opacity="0.25" stroke-width="0.867486" stroke-miterlimit="10"/>
<path opacity="0.54" d="M480.025 606.573C494.216 589.951 489.212 563.173 474.631 547.171C473.327 545.743 471.965 544.384 470.545 543.093C456.091 529.926 436.575 523.641 417.352 519.303C413.656 518.472 409.925 517.699 406.199 516.937C388.699 513.366 370.938 509.944 354.875 501.974C349.73 499.428 344.82 496.433 340.203 493.022C309.143 470.068 293.449 429.984 283.127 392.067C282.376 389.312 281.635 386.551 280.905 383.783C270.026 342.846 257.477 302.396 232.867 272.65C223.975 261.903 214.906 250.822 201.005 244.626C184.486 237.225 164.676 237.592 146.954 239.833C134.865 241.351 123.19 243.611 111.399 244.695C105.831 245.228 100.235 245.411 94.6445 245.243C58.6956 244.011 22.5832 224.003 -2.2457 195.622C-27.1039 167.208 -41.927 131.402 -49.1804 94.4189" stroke="white" stroke-opacity="0.25" stroke-width="0.867486" stroke-miterlimit="10"/>
<path opacity="0.54" d="M477.341 611.879C491.541 595.274 486.717 568.579 472.317 552.433C471.041 550.995 469.695 549.623 468.283 548.32C453.987 535.009 434.595 528.505 415.453 523.947C411.77 523.074 408.053 522.253 404.345 521.451C386.915 517.69 369.203 514.107 353.195 506.058C348.066 503.487 343.171 500.472 338.567 497.049C307.585 473.964 292.052 433.9 282.027 395.936C281.294 393.182 280.586 390.409 279.877 387.636C269.374 346.666 257.418 306.216 233.947 275.842C225.223 264.554 216.351 252.801 202.223 246.258C185.42 238.444 165.05 239.017 146.97 241.691C134.644 243.503 122.755 246.15 110.722 247.58C105.039 248.281 99.3166 248.61 93.5907 248.567C56.7781 248.136 19.5328 227.761 -5.78907 198.641C-31.1403 169.49 -45.9446 132.667 -53.1634 94.7807" stroke="white" stroke-opacity="0.25" stroke-width="0.867486" stroke-miterlimit="10"/>
<path opacity="0.54" d="M474.649 617.195C488.847 600.621 484.203 573.996 470.003 557.707C468.73 556.25 467.401 554.862 466.015 553.542C451.876 540.086 432.607 533.353 413.538 528.575C409.867 527.653 406.172 526.801 402.477 525.959C385.118 522.008 367.464 518.265 351.512 510.137C346.401 507.54 341.525 504.506 336.938 501.067C306.032 477.865 290.652 437.817 280.933 399.797C280.223 397.034 279.531 394.265 278.855 391.49C268.735 350.477 257.397 309.996 235.037 279.026C226.484 267.186 217.795 254.78 203.441 247.89C186.352 239.655 165.422 240.447 146.975 243.548C134.401 245.653 122.298 248.698 110.026 250.462C104.231 251.326 98.385 251.802 92.5267 251.889C54.8498 252.271 16.4711 231.525 -9.34265 201.659C-35.1864 171.76 -49.9724 133.931 -57.1476 95.1382" stroke="white" stroke-opacity="0.25" stroke-width="0.867486" stroke-miterlimit="10"/>
<path opacity="0.54" d="M471.955 622.499C486.162 605.946 481.698 579.401 467.678 562.968C466.426 561.502 465.113 560.101 463.739 558.765C449.753 545.174 430.617 538.214 411.619 533.216C407.96 532.253 404.29 531.352 400.604 530.48C383.315 526.339 365.71 522.426 349.821 514.229C344.727 511.61 339.869 508.556 335.3 505.101C304.483 481.782 289.243 441.741 279.835 403.675C279.155 400.914 278.487 398.132 277.828 395.361C268.085 354.316 257.39 313.785 236.109 282.236C227.745 269.835 219.231 256.775 204.64 249.538C187.267 240.882 165.776 241.891 146.972 245.433C134.158 247.842 121.845 251.264 109.332 253.372C103.424 254.395 97.4551 255.019 91.4642 255.239C52.9242 256.425 13.4134 235.307 -12.8947 204.704C-39.2294 174.068 -53.996 135.223 -61.136 95.5263" stroke="white" stroke-opacity="0.25" stroke-width="0.867486" stroke-miterlimit="10"/>
<path opacity="0.54" d="M469.273 627.804C483.479 611.281 479.204 584.807 465.374 568.24C464.145 566.765 462.835 565.347 461.488 563.997C447.662 550.261 428.649 543.073 409.722 537.854C406.085 536.852 402.415 535.909 398.744 534.987C381.514 530.665 363.97 526.583 348.145 518.308C343.07 515.662 338.228 512.593 333.67 509.132C302.928 485.694 287.842 445.67 278.73 407.548C278.072 404.777 277.421 401.997 276.794 399.228C267.43 358.151 257.403 317.54 237.185 285.431C229.011 272.459 220.672 258.767 205.852 251.183C188.193 242.116 166.153 243.332 146.981 247.304C133.921 250.008 121.404 253.815 108.639 256.267C102.618 257.459 96.5221 258.23 90.3943 258.576C50.9886 260.564 10.3478 239.086 -16.4542 207.736C-43.2843 176.354 -58.0324 136.499 -65.1391 95.897" stroke="white" stroke-opacity="0.25" stroke-width="0.867486" stroke-miterlimit="10"/>
<path opacity="0.54" d="M466.58 633.11C480.795 616.607 476.69 590.212 463.059 573.506C461.84 572.011 460.558 570.584 459.215 569.225C445.538 555.344 426.656 547.938 407.815 542.489C404.19 541.447 400.542 540.465 396.884 539.503C379.726 534.991 362.239 530.749 346.469 522.395C341.411 519.726 336.587 516.637 332.046 513.16C301.386 489.594 286.448 449.588 277.644 411.421C277.006 408.651 276.386 405.872 275.785 403.085C266.801 361.972 257.478 321.266 238.284 288.628C230.323 275.086 222.135 260.749 207.079 252.821C189.135 243.333 166.535 244.766 147.006 249.169C133.706 252.162 120.978 256.36 107.971 259.157C101.84 260.512 95.6198 261.43 89.3585 261.905C49.0879 264.706 7.31487 242.848 -19.9796 210.761C-47.3033 178.643 -62.0348 137.772 -69.1049 96.2671" stroke="white" stroke-opacity="0.25" stroke-width="0.867486" stroke-miterlimit="10"/>
<path opacity="0.54" d="M463.891 638.425C478.1 621.953 474.186 595.618 460.736 578.775C459.537 577.271 458.274 575.831 456.946 574.457C443.429 560.431 424.672 552.807 405.9 547.137C402.289 546.044 398.652 545.022 395.016 544.02C377.931 539.319 360.488 534.905 344.785 526.483C339.745 523.791 334.939 520.682 330.416 517.19C299.829 493.506 285.047 453.517 276.551 415.293C275.935 412.514 275.338 409.733 274.76 406.949C266.153 365.806 257.552 325 239.369 291.819C231.629 277.7 223.575 262.737 208.29 254.457C190.062 244.549 166.901 246.199 147.005 251.032C133.456 254.321 120.526 258.914 107.28 262.045C101.038 263.567 94.6938 264.633 88.2973 265.233C47.1628 268.837 4.2573 246.617 -23.5304 213.784C-51.3467 180.918 -66.0571 139.041 -73.0953 96.6312" stroke="white" stroke-opacity="0.25" stroke-width="0.867486" stroke-miterlimit="10"/>
<path opacity="0.54" d="M461.195 643.73C475.409 627.279 471.682 601.024 458.422 584.048C457.234 582.534 455.991 581.078 454.675 579.691C441.317 565.533 422.681 557.668 403.984 551.778C400.384 550.646 396.771 549.584 393.148 548.542C376.131 543.65 358.741 539.076 343.101 530.574C338.076 527.857 333.284 524.728 328.776 521.218C298.265 497.415 283.636 457.445 275.449 419.163C274.851 416.386 274.285 413.597 273.731 410.813C265.502 369.637 257.657 328.726 240.45 295.024C232.943 280.313 225.021 264.727 209.509 256.112C190.995 245.792 167.275 247.649 147.02 252.922C133.233 256.506 120.09 261.484 106.594 264.959C100.239 266.644 93.7685 267.856 87.2352 268.586C45.2365 273.003 1.19864 250.403 -27.0821 216.833C-55.3914 183.229 -70.083 140.334 -77.0778 97.0225" stroke="white" stroke-opacity="0.25" stroke-width="0.867486" stroke-miterlimit="10"/>
<path opacity="0.54" d="M458.513 649.035C472.734 632.615 469.178 606.43 456.108 589.31C454.941 587.778 453.709 586.313 452.413 584.915C439.205 570.608 420.704 562.529 402.076 556.42C398.499 555.248 394.888 554.136 391.286 553.064C374.339 547.982 357.008 543.248 341.412 534.667C336.406 531.925 331.633 528.778 327.14 525.257C296.719 501.325 282.229 461.372 274.352 423.045C273.775 420.258 273.226 417.472 272.704 414.688C264.853 373.479 257.776 332.44 241.529 298.225C234.265 282.926 226.464 266.725 210.715 257.751C191.916 247.009 167.635 249.074 147.028 254.789C132.991 258.676 119.637 264.034 105.911 267.861C99.4465 269.71 92.8526 271.069 86.1848 271.929C43.312 277.149 -1.84798 254.188 -30.6194 219.861C-59.4225 185.522 -74.0947 141.613 -81.0547 97.3923" stroke="white" stroke-opacity="0.25" stroke-width="0.867486" stroke-miterlimit="10"/>
<path opacity="0.54" d="M455.819 654.34C470.04 637.94 466.673 611.835 453.794 594.573C452.648 593.031 451.426 591.556 450.152 590.139C437.106 575.688 418.726 567.38 400.17 561.049C396.605 559.836 393.017 558.684 389.416 557.562C372.538 552.3 355.257 547.386 339.727 538.728C334.741 535.962 329.987 532.799 325.508 529.271C295.164 505.221 280.837 465.286 273.245 426.902C272.699 424.116 272.164 421.321 271.662 418.527C264.189 377.288 257.914 336.137 242.599 301.406C235.597 285.519 227.899 268.691 211.912 259.38C192.829 248.219 167.988 250.499 147.02 256.644C132.734 260.826 119.178 266.567 105.209 270.742C98.6334 272.757 91.9124 274.264 85.1056 275.25C41.3689 281.273 -4.92393 257.943 -34.191 222.876C-63.4874 187.791 -78.1508 142.872 -85.0668 97.7522" stroke="white" stroke-opacity="0.25" stroke-width="0.867486" stroke-miterlimit="10"/>
<path opacity="0.54" d="M453.125 659.655C467.355 643.286 464.169 617.251 451.479 599.845C450.341 598.293 449.141 596.803 447.879 595.375C434.98 580.789 416.736 572.252 398.262 565.692C394.71 564.429 391.133 563.247 387.555 562.085C370.747 556.634 353.515 551.558 338.049 542.822C333.081 540.033 328.344 536.85 323.884 533.305C293.616 509.135 279.442 469.207 272.157 430.777C271.632 427.982 271.127 425.189 270.643 422.396C263.56 381.124 258.094 339.861 243.691 304.615C236.952 288.14 229.344 270.695 213.14 261.028C193.772 249.455 168.373 251.943 147.034 258.528C132.512 263.002 118.742 269.131 104.519 273.651C97.8337 275.827 90.9893 277.48 84.0477 278.596C39.4462 285.431 -7.9781 261.729 -37.7379 225.919C-67.5246 190.097 -82.1713 144.15 -89.0538 98.1331" stroke="white" stroke-opacity="0.25" stroke-width="0.867486" stroke-miterlimit="10"/>
<path opacity="0.54" d="M450.433 664.961C464.661 648.615 461.654 622.645 449.154 605.116C448.039 603.555 446.851 602.041 445.607 600.605C432.869 585.873 414.747 577.11 396.345 570.339C392.805 569.038 389.251 567.804 385.685 566.601C368.939 560.959 351.775 555.724 336.365 546.91C331.414 544.093 326.692 540.891 322.244 537.333C292.053 513.039 278.03 473.139 271.051 434.652C270.547 431.858 270.062 429.055 269.606 426.264C262.9 384.95 258.275 343.574 244.763 307.812C238.309 290.74 230.781 272.679 214.34 262.673C194.686 250.679 168.724 253.384 147.031 260.4C132.261 265.168 118.289 271.697 103.828 276.548C97.0342 278.889 90.0662 280.69 82.9891 281.936C37.5238 289.574 -11.0236 265.502 -41.286 228.954C-71.5687 192.385 -86.193 145.43 -93.0437 98.5097" stroke="white" stroke-opacity="0.25" stroke-width="0.867486" stroke-miterlimit="10"/>
<path opacity="0.54" d="M447.751 670.266C461.985 653.948 459.16 628.054 446.851 610.378C445.747 608.797 444.583 607.28 443.357 605.829C430.778 590.953 412.78 581.971 394.45 574.969C390.932 573.63 387.379 572.357 383.836 571.111C367.158 565.282 350.044 559.884 334.699 550.989C329.763 548.153 325.059 544.932 320.63 541.356C290.517 516.939 276.646 477.048 269.978 438.515C269.494 435.712 269.037 432.913 268.607 430.118C262.28 388.771 258.526 347.286 245.873 311.008C239.711 293.349 232.258 274.671 215.577 264.308C195.629 251.892 169.117 254.814 147.067 262.26C132.057 267.331 117.873 274.235 103.162 279.433C96.2565 281.939 89.1612 283.888 81.9443 285.26C35.6153 293.701 -14.0654 269.268 -44.8203 231.973C-75.596 194.667 -90.2022 146.697 -97.0066 98.8721" stroke="white" stroke-opacity="0.25" stroke-width="0.867486" stroke-miterlimit="10"/>
<path opacity="0.54" d="M445.058 675.571C459.293 659.274 456.658 633.46 444.526 615.642C443.443 614.052 442.292 612.523 441.075 611.055C428.645 596.034 410.78 586.825 392.522 579.612C389.017 578.23 385.495 576.904 381.957 575.636C365.348 569.623 348.285 564.048 333.003 555.087C328.088 552.223 323.402 548.982 318.988 545.392C288.962 520.857 275.232 480.985 268.869 442.395C268.405 439.593 267.976 436.786 267.571 433.984C261.62 392.606 258.737 351.018 246.946 314.201C241.098 295.946 233.694 276.649 216.787 265.95C196.553 253.123 169.481 256.252 147.066 264.131C131.807 269.495 117.423 276.785 102.469 282.327C95.4539 284.993 88.2355 287.089 80.8839 288.595C33.6905 297.85 -17.1217 273.036 -48.3705 235.006C-79.6285 196.953 -94.2246 147.975 -100.996 99.246" stroke="white" stroke-opacity="0.25" stroke-width="0.867486" stroke-miterlimit="10"/>
<path opacity="0.54" d="M442.365 680.886C456.61 664.617 454.142 638.874 442.212 620.922C441.15 619.323 440.014 617.771 438.813 616.297C426.543 601.14 408.801 591.703 390.625 584.261C387.131 582.838 383.622 581.469 380.096 580.154C363.559 573.952 346.552 568.215 331.326 559.176C326.425 556.29 321.755 553.03 317.356 549.425C287.408 524.763 273.828 484.916 267.774 446.272C267.331 443.461 266.929 440.652 266.547 437.854C260.977 396.443 258.993 354.758 248.022 317.41C242.488 298.572 235.123 278.644 217.989 267.598C197.471 254.35 169.839 257.697 147.064 266.013C131.567 271.671 116.969 279.348 101.776 285.236C94.6503 288.068 87.3048 290.311 79.8133 291.944C31.7562 302.001 -20.1872 276.827 -51.9312 238.048C-83.683 199.26 -98.2609 149.263 -104.998 99.6301" stroke="white" stroke-opacity="0.25" stroke-width="0.867486" stroke-miterlimit="10"/>
<path opacity="0.54" d="M440.17 686.375C454.414 670.129 452.136 644.464 440.385 626.371C439.336 624.751 438.219 623.201 437.03 621.695C424.91 606.395 407.3 596.73 389.197 589.067C385.726 587.596 382.222 586.202 378.714 584.84C362.248 578.448 345.29 572.551 330.118 563.433C325.239 560.52 320.587 557.245 316.201 553.633C286.33 528.853 272.904 489.013 267.151 450.321C266.729 447.511 266.344 444.702 265.995 441.896C260.804 400.452 259.73 358.679 249.58 320.78C244.38 301.346 237.046 280.811 219.675 269.417C198.871 255.748 170.679 259.311 147.549 268.058C131.803 274.01 116.993 282.084 101.56 288.305C94.3253 291.297 86.8565 293.688 79.2292 295.452C30.3072 306.322 -22.7693 280.767 -55.014 241.241C-87.2587 201.714 -101.819 150.703 -108.521 100.165" stroke="white" stroke-opacity="0.25" stroke-width="0.867486" stroke-miterlimit="10"/>
<path opacity="0.54" d="M436.99 691.496C451.241 675.281 449.135 649.676 437.582 631.449C436.551 629.821 435.45 628.25 434.279 626.737C422.318 611.289 404.832 601.407 386.8 593.523C383.341 592.01 379.848 590.568 376.362 589.176C359.967 582.594 343.057 576.527 327.95 567.341C323.092 564.403 318.459 561.107 314.092 557.48C284.297 532.583 271.024 492.761 265.577 454.012C265.186 451.193 264.822 448.386 264.494 445.57C259.68 404.094 259.527 362.244 250.187 323.794C245.322 303.774 238.018 282.611 220.419 270.87C199.326 256.787 170.577 260.56 147.091 269.738C131.107 275.983 116.084 284.441 100.41 291.01C93.0683 294.165 85.4761 296.703 77.7128 298.598C27.927 310.27 -26.2822 284.344 -59.0207 244.082C-91.7594 203.809 -106.3 151.79 -112.968 100.348" stroke="white" stroke-opacity="0.25" stroke-width="0.867486" stroke-miterlimit="10"/>
<path opacity="0.54" d="M434.297 696.802C448.548 680.607 446.63 655.079 435.273 636.712C434.254 635.074 433.17 633.486 432.023 631.962C420.211 616.379 402.858 606.269 384.898 598.155C381.452 596.602 377.981 595.119 374.509 593.677C358.184 586.904 341.334 580.678 326.281 571.413C321.436 568.453 316.817 565.138 312.462 561.495C282.744 536.48 269.633 496.664 264.484 457.868C264.113 455.05 263.775 452.234 263.472 449.42C259.037 407.91 259.823 365.995 251.275 326.973C246.764 306.37 239.46 284.585 221.634 272.496C200.26 257.995 170.948 261.972 147.091 271.6C130.858 278.149 115.633 286.986 99.7098 293.896C92.2574 297.217 84.538 299.903 76.6339 301.925C25.9843 314.401 -29.3574 288.114 -62.5892 247.105C-95.8209 206.096 -110.342 153.059 -116.976 100.713" stroke="white" stroke-opacity="0.25" stroke-width="0.867486" stroke-miterlimit="10"/>
<path opacity="0.54" d="M431.603 702.117C445.861 685.953 444.125 660.498 432.945 641.994C431.946 640.347 430.877 638.751 429.738 637.206C418.086 621.478 400.856 611.139 382.967 602.815C379.531 601.223 376.075 599.69 372.624 598.218C356.358 591.265 339.566 584.868 324.579 575.524C319.754 572.537 315.153 569.202 310.813 565.545C281.185 540.401 268.215 500.615 263.375 461.762C263.024 458.936 262.71 456.117 262.434 453.307C258.376 411.765 260.113 369.794 252.346 330.199C248.19 309.015 240.899 286.597 222.833 274.162C201.176 259.24 171.302 263.433 147.088 273.492C130.607 280.334 115.177 289.559 99.0134 296.813C91.4522 300.295 83.6089 303.129 75.5683 305.284C24.0543 318.575 -32.4197 291.907 -66.1444 250.159C-99.8691 208.411 -114.371 154.36 -120.962 101.109" stroke="white" stroke-opacity="0.25" stroke-width="0.867486" stroke-miterlimit="10"/>
<path opacity="0.54" d="M428.922 707.422C443.181 691.278 441.621 665.903 430.641 647.256C429.664 645.59 428.603 643.98 427.487 642.43C415.995 626.558 398.89 616.004 381.084 607.447C377.672 605.806 374.226 604.241 370.778 602.72C354.583 595.577 337.84 589.01 322.918 579.597C318.109 576.59 313.526 573.236 309.206 569.562C279.649 544.299 266.831 504.519 262.301 465.622C261.971 462.796 261.681 459.975 261.432 457.16C257.752 415.586 260.448 373.569 253.454 333.381C249.672 311.622 242.369 288.575 224.078 275.792C202.134 260.459 171.702 264.86 147.131 275.35C130.411 282.486 114.774 292.097 98.3639 299.706C90.6948 303.348 82.7287 306.328 74.5524 308.614C22.1735 322.705 -35.4332 295.678 -69.6506 253.186C-103.868 210.695 -118.352 155.633 -124.908 101.478" stroke="white" stroke-opacity="0.25" stroke-width="0.867486" stroke-miterlimit="10"/>
<path opacity="0.54" d="M426.228 712.727C440.483 696.614 439.116 671.306 428.316 652.519C427.35 650.843 426.319 649.215 425.204 647.654C413.862 631.637 396.888 620.852 379.154 612.086C375.754 610.401 372.32 608.798 368.895 607.238C352.77 599.906 336.087 593.178 321.218 583.687C316.426 580.657 311.858 577.287 307.549 573.604C278.076 548.222 265.408 508.459 261.174 469.505C260.865 466.673 260.606 463.847 260.377 461.026C257.076 419.409 260.731 377.368 254.505 336.585C251.097 314.255 243.784 290.565 225.256 277.434C203.027 261.68 172.035 266.298 147.107 277.218C130.138 284.647 114.296 294.656 97.6386 302.6C89.8608 306.408 81.7679 309.536 73.4505 311.947C20.2103 326.846 -38.5311 299.446 -73.2401 256.217C-107.949 212.987 -122.425 156.909 -128.937 101.85" stroke="white" stroke-opacity="0.25" stroke-width="0.867486" stroke-miterlimit="10"/>
<path opacity="0.54" d="M423.535 718.032C439.074 700.505 436.275 672.138 422.942 652.877C409.608 633.617 388.243 621.682 367.034 611.75C345.825 601.818 323.606 592.967 305.918 577.63C274.391 550.274 262.276 506.528 259.364 464.889C256.452 423.251 261.075 381.175 255.605 339.79C252.58 316.889 245.239 292.563 226.485 279.088C203.971 262.913 172.414 267.747 147.123 279.108C121.832 290.468 99.0315 307.569 72.4068 315.301C18.3005 331.008 -41.5702 303.237 -76.7718 259.263C-111.973 215.288 -126.431 158.201 -132.909 102.238" stroke="white" stroke-opacity="0.25" stroke-width="0.867486" stroke-miterlimit="10"/>
</g>
<defs>
<clipPath id="clip0_182_29221">
<rect width="851.577" height="773.689" fill="white" transform="translate(-263 135.159) rotate(-20.2079)"/>
</clipPath>
</defs>
</svg>
