<svg width="84" height="85" viewBox="0 0 84 85" fill="none" xmlns="http://www.w3.org/2000/svg">
<rect x="6" y="6.5" width="72" height="72" rx="36" fill="#9C78FF" fill-opacity="0.1"/>
<rect x="6" y="6.5" width="72" height="72" rx="36" stroke="#FAF9FF" stroke-width="12"/>
<mask id="mask0_182_21211" style="mask-type:alpha" maskUnits="userSpaceOnUse" x="25" y="26" width="34" height="34">
<rect x="25" y="26" width="34" height="34" fill="#D9D9D9"/>
</mask>
<g mask="url(#mask0_182_21211)">
<path d="M37.7832 56.0757L35.4185 52.0873L30.9178 51.1174L31.3591 46.4751L28.3242 42.9988L31.3591 39.5225L30.9178 34.8802L35.4185 33.9103L37.7832 29.9219L42.0005 31.7036L46.2178 29.9219L48.5826 33.9103L53.0832 34.8802L52.6419 39.5225L55.6768 42.9988L52.6419 46.4751L53.0832 51.1174L48.5826 52.0873L46.2178 56.0757L42.0005 54.294L37.7832 56.0757ZM38.388 54.2613L42.0005 52.7574L45.6294 54.2613L47.6672 50.8613L51.563 49.9949L51.2088 45.9738L53.8297 42.9988L51.2088 40.0074L51.563 35.9863L47.6672 35.1363L45.613 31.7363L42.0005 33.2402L38.3716 31.7363L36.3338 35.1363L32.438 35.9863L32.7922 40.0074L30.1713 42.9988L32.7922 45.9738L32.438 50.0113L36.3338 50.8613L38.388 54.2613ZM40.513 47.0472L47.5364 40.0238L46.5338 39.0049L40.513 45.0257L37.4672 41.9962L36.4646 42.9988L40.513 47.0472Z" fill="#825EE4"/>
</g>
</svg>
