<svg width="190" height="191" viewBox="0 0 190 191" fill="none" xmlns="http://www.w3.org/2000/svg">
<g clip-path="url(#clip0_182_17377)">
<path d="M189.906 145.888H0.09375V145.983H189.906V145.888Z" fill="#EBEBEB"/>
<path d="M170.888 151.998H158.314V152.093H170.888V151.998Z" fill="#EBEBEB"/>
<path d="M125.833 153.029H122.533V153.124H125.833V153.029Z" fill="#EBEBEB"/>
<path d="M157.934 148.473H150.648V148.568H157.934V148.473Z" fill="#EBEBEB"/>
<path d="M36.405 149.111H20.0078V149.206H36.405V149.111Z" fill="#EBEBEB"/>
<path d="M42.1893 149.111H39.7852V149.206H42.1893V149.111Z" fill="#EBEBEB"/>
<path d="M85.5657 150.714H50.0039V150.809H85.5657V150.714Z" fill="#EBEBEB"/>
<path d="M90.0698 128.957H16.7646C15.5699 128.957 14.5977 127.985 14.5977 126.79V23.748C14.5977 22.5533 15.5699 21.5811 16.7646 21.5811H90.0698C91.2641 21.5811 92.2363 22.5533 92.2363 23.748V126.79C92.2363 127.985 91.2641 128.957 90.0698 128.957ZM16.7646 21.6763C15.6219 21.6763 14.6926 22.6057 14.6926 23.7483V126.791C14.6926 127.933 15.6219 128.863 16.7646 128.863H90.0698C91.2121 128.863 92.1414 127.933 92.1414 126.791V23.748C92.1414 22.6057 91.2121 21.676 90.0698 21.676L16.7646 21.6763Z" fill="#EBEBEB"/>
<path d="M172.182 128.957H98.8775C97.6828 128.957 96.7109 127.985 96.7109 126.79V23.748C96.7109 22.5533 97.6832 21.5811 98.8775 21.5811H172.182C173.377 21.5811 174.349 22.5533 174.349 23.748V126.79C174.35 127.985 173.377 128.957 172.182 128.957ZM98.8775 21.6763C97.7352 21.6763 96.8058 22.6057 96.8058 23.7483V126.791C96.8058 127.933 97.7352 128.863 98.8775 128.863H172.182C173.325 128.863 174.254 127.933 174.254 126.791V23.748C174.254 22.6057 173.325 21.676 172.182 21.676L98.8775 21.6763Z" fill="#EBEBEB"/>
<path d="M83.0204 109.24H35.0293V112.628H83.0204V109.24Z" fill="#EBEBEB"/>
<path d="M83.02 109.24H62.1523V112.628H83.02V109.24Z" fill="#E0E0E0"/>
<path d="M42.1196 112.629H35.0293V145.887H42.1196V112.629Z" fill="#EBEBEB"/>
<path d="M42.1196 116.061L35.0293 113.647V112.629H42.1196V116.061Z" fill="#E0E0E0"/>
<path d="M83.0203 112.629H75.9297V145.887H83.0203V112.629Z" fill="#E0E0E0"/>
<path d="M69.243 112.629H62.1523V145.887H69.243V112.629Z" fill="#EBEBEB"/>
<path d="M69.243 116.061L62.1523 113.647V112.629H69.243V116.061Z" fill="#E0E0E0"/>
<path d="M55.8969 112.629H48.8066V145.887H55.8969V112.629Z" fill="#E0E0E0"/>
<path d="M87.5337 33.8086H27.0469V85.3112H87.5337V33.8086Z" fill="#EBEBEB"/>
<path d="M87.534 85.3115H88.209V33.8089H87.534V85.3115Z" fill="#E0E0E0"/>
<path d="M85.2559 83.035L85.2559 36.0879L29.3246 36.0879L29.3246 83.035H85.2559Z" fill="#F5F5F5"/>
<path d="M56.6152 75.9071C60.0224 64.5081 60.9809 47.7207 68.2492 50.0379C75.5171 52.3551 65.9961 77.1932 65.9961 77.1932L56.6152 75.9071Z" fill="white"/>
<path d="M62.485 76.4746C59.0073 59.9682 59.8839 38.0547 49.0793 38.5573C38.2748 39.0599 49.0793 77.1921 49.0793 77.1921L62.485 76.4746Z" fill="white"/>
<path d="M70.1174 74.623H46.4664C45.4148 74.623 44.6165 75.3948 44.5736 76.3708C44.0926 87.2657 45.8772 98.3709 49.1985 109.242H67.3101C70.6314 98.3709 72.416 87.2657 71.9347 76.3708C71.8914 75.3948 71.0946 74.623 70.1174 74.623Z" fill="#EBEBEB"/>
<path d="M123.926 39.5557H122.594V145.889H123.926V39.5557Z" fill="#E0E0E0"/>
<path d="M155.243 39.5557H153.91V145.889H155.243V39.5557Z" fill="#E0E0E0"/>
<path d="M114.477 39.5557H113.145V145.889H114.477V39.5557Z" fill="#EBEBEB"/>
<path d="M145.793 39.5557H144.461V145.889H145.793V39.5557Z" fill="#EBEBEB"/>
<path d="M155.243 38.8281H113.145V40.2817H155.243V38.8281Z" fill="#EBEBEB"/>
<path d="M155.243 64.8672H113.145V66.3208H155.243V64.8672Z" fill="#EBEBEB"/>
<path d="M155.243 90.9043H113.145V92.3579H155.243V90.9043Z" fill="#EBEBEB"/>
<path d="M155.243 116.943H113.145V118.397H155.243V116.943Z" fill="#EBEBEB"/>
<path d="M155.243 142.981H113.145V144.435H155.243V142.981Z" fill="#EBEBEB"/>
<path d="M155.242 38.8281H145.793V40.2817H155.242V38.8281Z" fill="#E0E0E0"/>
<path d="M155.242 64.8672H145.793V66.3208H155.242V64.8672Z" fill="#E0E0E0"/>
<path d="M155.242 90.9043H145.793V92.3579H155.242V90.9043Z" fill="#E0E0E0"/>
<path d="M155.242 116.943H145.793V118.397H155.242V116.943Z" fill="#E0E0E0"/>
<path d="M155.242 142.981H145.793V144.435H155.242V142.981Z" fill="#E0E0E0"/>
<path d="M130.128 47.685V45.6357H125.067V47.685C125.067 49.0235 123.981 50.1089 122.643 50.1089C121.304 50.1089 120.219 51.1942 120.219 52.5328V64.8668H134.977V52.5328C134.977 51.1938 133.891 50.1089 132.553 50.1089C131.213 50.1089 130.128 49.0235 130.128 47.685Z" fill="#F0F0F0"/>
<path d="M140.601 82.4346H118.424V90.9029H140.601V82.4346Z" fill="#F0F0F0"/>
<path d="M140.6 90.9033H144.461V82.435H140.6V90.9033Z" fill="#E6E6E6"/>
<path d="M140.6 87.1348H144.461V86.2016H140.6V87.1348Z" fill="#EBEBEB"/>
<path d="M140.601 86.2031H118.424V87.1362H140.601V86.2031Z" fill="#F5F5F5"/>
<path d="M134.657 128.011H117.334V142.983H134.657V128.011Z" fill="#F0F0F0"/>
<path d="M134.656 142.982H137.672V128.01H134.656V142.982Z" fill="#E6E6E6"/>
<path d="M134.656 136.322H137.672V134.673H134.656V136.322Z" fill="#EBEBEB"/>
<path d="M134.657 134.672H117.334V136.321H134.657V134.672Z" fill="#F5F5F5"/>
<path d="M134.656 133.515H137.672V132.925H134.656V133.515Z" fill="#EBEBEB"/>
<path d="M134.657 132.926H117.334V133.515H134.657V132.926Z" fill="#F5F5F5"/>
<path d="M121.561 101.722H118.424V116.944H121.561V101.722Z" fill="#F0F0F0"/>
<path d="M121.561 107.146H118.424V111.52H121.561V107.146Z" fill="#FAFAFA"/>
<path d="M121.561 116.944H132.229V101.722H121.561V116.944Z" fill="#E6E6E6"/>
<path d="M126.404 99.7539H122.861V116.944H126.404V99.7539Z" fill="#EBEBEB"/>
<path d="M126.404 105.219H122.861V107.866H126.404V105.219Z" fill="#FAFAFA"/>
<path d="M126.404 109.639H122.861V112.285H126.404V109.639Z" fill="#FAFAFA"/>
<path d="M126.405 116.944H138.451V99.7538H126.405V116.944Z" fill="#E0E0E0"/>
<path d="M130.345 101.722H128.438V116.944H130.345V101.722Z" fill="#F0F0F0"/>
<path d="M130.018 103.651H128.766V115.017H130.018V103.651Z" fill="#FAFAFA"/>
<path d="M130.345 116.944H136.832V101.722H130.345V116.944Z" fill="#E6E6E6"/>
<path d="M135.444 100.92H133.289V116.945H135.444V100.92Z" fill="#EBEBEB"/>
<path d="M135.444 106.014H133.289V108.481H135.444V106.014Z" fill="#FAFAFA"/>
<path d="M135.444 110.133H133.289V112.6H135.444V110.133Z" fill="#FAFAFA"/>
<path d="M135.444 116.946H142.77V100.921H135.444V116.946Z" fill="#E0E0E0"/>
<path d="M134.459 81.0538C136.303 79.2103 136.303 76.2214 134.459 74.3779C132.616 72.5344 129.627 72.5344 127.783 74.3779C125.94 76.2214 125.94 79.2103 127.783 81.0538C129.627 82.8973 132.616 82.8973 134.459 81.0538Z" fill="#F5F5F5"/>
<path d="M136.876 82.3922C138.66 82.1026 139.872 80.4211 139.583 78.6365C139.293 76.852 137.612 75.6401 135.827 75.9297C134.042 76.2193 132.83 77.9008 133.12 79.6854C133.41 81.47 135.091 82.6819 136.876 82.3922Z" fill="#EBEBEB"/>
<path d="M94.9996 163.032C135.651 163.032 168.605 161.107 168.605 158.733C168.605 156.359 135.651 154.435 94.9996 154.435C54.3487 154.435 21.3945 156.359 21.3945 158.733C21.3945 161.107 54.3487 163.032 94.9996 163.032Z" fill="#F5F5F5"/>
<path d="M96.7277 129.294H47.9668V154.477C47.9668 155.833 49.0666 156.933 50.423 156.933H94.2712C95.6276 156.933 96.7273 155.833 96.7273 154.477L96.7277 129.294Z" fill="#AC8EFE"/>
<path d="M47.9679 129.293H82.4694L78.2244 123.862C77.759 123.266 76.6034 122.783 75.6437 122.783H44.6185C43.6584 122.783 43.2579 123.266 43.7233 123.862L47.9679 129.293Z" fill="#AC8EFE"/>
<path opacity="0.2" d="M47.9679 129.293H82.4694L78.2244 123.862C77.759 123.266 76.6034 122.783 75.6437 122.783H44.6185C43.6584 122.783 43.2579 123.266 43.7233 123.862L47.9679 129.293Z" fill="black"/>
<path d="M96.728 129.293H62.2266L66.4715 125.753C66.937 125.365 68.0925 125.05 69.0522 125.05H100.077C101.037 125.05 101.438 125.365 100.973 125.753L96.728 129.293Z" fill="#AC8EFE"/>
<path opacity="0.2" d="M96.728 129.294H62.2266V154.477C62.2266 155.833 63.3263 156.933 64.6827 156.933H94.2715C95.6279 156.933 96.7276 155.833 96.7276 154.477L96.728 129.294Z" fill="white"/>
<path opacity="0.5" d="M52.25 129.294V146.56L53.4424 145.619L54.2817 146.56L55.0121 145.512L55.757 146.56L56.7998 145.772L57.9444 146.56V129.294H52.25Z" fill="white"/>
<path d="M59.9696 91.634L53.8379 86.4863" stroke="#AC8EFE" stroke-width="2.06318" stroke-miterlimit="10"/>
<path d="M63.1474 94.3002L61.2773 92.7305" stroke="#AC8EFE" stroke-width="2.06318" stroke-miterlimit="10"/>
<path d="M81.5129 105.075L101.739 79.7941L74.8087 57.1855L56.9527 77.6583L54.3097 82.7799C53.7543 83.4169 53.8314 84.3098 54.4893 84.8621L78.7906 105.264C79.5749 105.922 80.8512 105.834 81.5129 105.075Z" fill="#AC8EFE"/>
<path opacity="0.5" d="M67.6422 86.4336L64.7305 91.1231L65.9012 91.3748L66.2991 92.4632L67.0796 92.5087L67.4383 93.4365L68.3923 93.7156L69.1273 94.8791L72.0386 90.1892L67.6422 86.4336Z" fill="white"/>
<path opacity="0.1" d="M100.859 79.0562L82.719 99.2913L56.9531 77.6599L74.8092 57.1875L100.859 79.0562Z" fill="black"/>
<path d="M100.858 79.0557L82.7188 99.2908L90.2289 99.8462L108.085 79.3734L100.858 79.0557Z" fill="#AC8EFE"/>
<path opacity="0.3" d="M100.858 79.0557L82.7188 99.2908L90.2289 99.8462L108.085 79.3734L100.858 79.0557Z" fill="black"/>
<path d="M67.5826 56.8682L49.4434 77.1029L56.9535 77.6583L74.8095 57.1859L67.5826 56.8682Z" fill="#AC8EFE"/>
<path opacity="0.4" d="M67.5826 56.8682L49.4434 77.1029L56.9535 77.6583L74.8095 57.1859L67.5826 56.8682Z" fill="black"/>
<path opacity="0.1" d="M95.2725 85.2877L100.859 79.0562L74.8092 57.1875L71.4727 65.2192L95.2725 85.2877Z" fill="black"/>
<path opacity="0.2" d="M56.9531 77.6599L74.8092 57.1875L71.4726 65.2192L58.901 79.2953L56.9531 77.6599Z" fill="black"/>
<path d="M107.153 40.9645C107.225 41.2097 107.153 41.4462 106.993 41.4933C106.833 41.5404 106.645 41.3798 106.573 41.1346C106.501 40.8893 106.573 40.6528 106.733 40.6057C106.893 40.559 107.081 40.7196 107.153 40.9645Z" fill="#263238"/>
<path d="M107.176 41.4375C107.176 41.4375 107.034 43.0152 106.621 43.8773C107.173 44.1549 107.856 43.7536 107.856 43.7536L107.176 41.4375Z" fill="#ED847E"/>
<path d="M107.65 39.3382C107.683 39.3211 107.709 39.2923 107.722 39.2554C107.749 39.1772 107.708 39.0918 107.63 39.0641C106.847 38.7881 106.294 39.2034 106.27 39.2213C106.204 39.2718 106.191 39.3659 106.242 39.4316C106.292 39.4973 106.387 39.5087 106.452 39.4597C106.47 39.446 106.906 39.1271 107.53 39.3469C107.571 39.3614 107.615 39.3568 107.65 39.3382Z" fill="#263238"/>
<path d="M115.591 42.5864C115.757 44.5984 116.256 48.2903 117.445 49.1308C117.445 49.1308 117.161 51.5482 112.903 52.1773C108.22 52.8689 110.322 50.1831 110.322 50.1831C112.787 49.1953 112.441 47.3089 111.733 45.5938L113.543 43.5199C114.222 42.7409 115.506 41.5565 115.591 42.5864Z" fill="#FFC3BD"/>
<path d="M118.974 50.1116C119.355 49.7669 118.586 48.3858 118.127 48.1934C116.905 47.6797 111.903 48.1873 110.023 49.8041C109.484 50.6594 109.875 51.5842 109.875 51.5842L118.974 50.1116Z" fill="white"/>
<path d="M134.895 151.585C134.584 151.68 134.269 151.725 134.105 151.608C134.037 151.559 133.963 151.46 134.004 151.267C134.025 151.166 134.083 151.086 134.178 151.031C134.586 150.791 135.599 151.107 135.643 151.121C135.671 151.13 135.691 151.155 135.694 151.184C135.698 151.213 135.683 151.242 135.658 151.257C135.514 151.342 135.207 151.489 134.895 151.585ZM134.338 151.124C134.307 151.134 134.278 151.145 134.253 151.16C134.196 151.194 134.163 151.238 134.15 151.298C134.122 151.435 134.175 151.474 134.193 151.486C134.375 151.616 134.993 151.43 135.422 151.215C135.112 151.134 134.614 151.04 134.338 151.124Z" fill="#AC8EFE"/>
<path d="M135.641 151.266C135.629 151.269 135.617 151.27 135.604 151.268C135.239 151.194 134.43 150.716 134.39 150.359C134.383 150.294 134.396 150.174 134.561 150.101C134.668 150.053 134.78 150.052 134.895 150.099C135.335 150.279 135.675 151.13 135.689 151.166C135.699 151.192 135.695 151.221 135.677 151.242C135.667 151.253 135.655 151.262 135.641 151.266ZM134.654 150.226C134.643 150.229 134.632 150.233 134.622 150.238C134.532 150.278 134.537 150.323 134.539 150.342C134.563 150.553 135.102 150.936 135.486 151.077C135.372 150.833 135.12 150.353 134.837 150.238C134.773 150.212 134.713 150.207 134.654 150.226Z" fill="#AC8EFE"/>
<path d="M112.646 155.664C112.24 155.664 111.847 155.609 111.716 155.426C111.67 155.362 111.634 155.253 111.722 155.098C111.772 155.011 111.852 154.952 111.96 154.923C112.487 154.779 113.594 155.41 113.641 155.437C113.668 155.453 113.682 155.483 113.677 155.514C113.672 155.545 113.648 155.569 113.618 155.576C113.415 155.616 113.025 155.664 112.646 155.664ZM112.144 155.051C112.091 155.051 112.042 155.056 111.999 155.068C111.93 155.087 111.882 155.121 111.852 155.172C111.799 155.265 111.818 155.312 111.838 155.338C111.985 155.543 112.786 155.548 113.374 155.464C113.08 155.314 112.514 155.051 112.144 155.051Z" fill="#AC8EFE"/>
<path d="M113.602 155.575C113.591 155.575 113.581 155.572 113.571 155.568C113.189 155.396 112.432 154.711 112.489 154.353C112.503 154.269 112.563 154.165 112.769 154.144C112.923 154.128 113.062 154.171 113.185 154.272C113.588 154.603 113.673 155.456 113.677 155.493C113.679 155.519 113.667 155.545 113.646 155.56C113.632 155.57 113.617 155.575 113.602 155.575ZM112.829 154.291C112.814 154.291 112.799 154.291 112.784 154.293C112.649 154.307 112.64 154.36 112.638 154.377C112.603 154.592 113.117 155.13 113.507 155.365C113.467 155.116 113.354 154.605 113.089 154.388C113.01 154.323 112.924 154.291 112.829 154.291Z" fill="#AC8EFE"/>
<path d="M117.084 155.499H113.917L113.602 148.165H116.768L117.084 155.499Z" fill="#FFC3BD"/>
<path d="M139.351 150.494L136.433 151.5L133.404 144.585L136.322 143.579L139.351 150.494Z" fill="#FFC3BD"/>
<path d="M135.738 150.774L139.14 149.731C139.263 149.693 139.397 149.746 139.461 149.859L140.884 152.367C141.032 152.627 140.894 152.958 140.606 153.041C139.412 153.385 138.814 153.492 137.318 153.951C136.398 154.233 134.075 155.114 132.773 155.376C131.498 155.632 131.04 154.383 131.55 154.159C133.837 153.155 134.763 152.012 135.304 151.111C135.401 150.948 135.557 150.83 135.738 150.774Z" fill="#263238"/>
<path d="M113.938 155.135H117.396C117.526 155.135 117.638 155.225 117.666 155.351L118.291 158.166C118.356 158.458 118.134 158.734 117.836 158.729C116.588 158.708 114.785 158.635 113.218 158.635C111.384 158.635 110.611 158.735 108.461 158.735C107.161 158.735 106.8 157.421 107.344 157.302C109.821 156.76 111.034 156.701 113.175 155.382C113.407 155.238 113.664 155.135 113.938 155.135Z" fill="#263238"/>
<path d="M123.144 51.1484C124.064 51.9954 124.863 52.8419 125.689 53.725C126.497 54.6129 127.284 55.5263 128.028 56.4996C128.778 57.4688 129.491 58.4866 130.138 59.6296C130.46 60.2048 130.77 60.8095 131.028 61.505C131.092 61.6815 131.157 61.8512 131.212 62.0479C131.269 62.2369 131.324 62.4252 131.367 62.6416L131.432 62.9559L131.476 63.3052C131.504 63.4741 131.531 63.9357 131.478 64.2725C131.379 64.9846 131.1 65.5336 130.824 65.9565C130.544 66.3771 130.243 66.6903 129.951 66.964C129.363 67.5046 128.787 67.885 128.217 68.2278C127.076 68.8989 125.943 69.3807 124.808 69.8165C122.532 70.6718 120.263 71.2674 117.908 71.7135L117.244 69.4304C119.306 68.5372 121.392 67.5748 123.33 66.5434C124.296 66.0252 125.233 65.4694 126.028 64.8818C126.421 64.5921 126.78 64.2835 127.013 64.0109C127.129 63.8776 127.208 63.7516 127.238 63.6856C127.266 63.6206 127.226 63.6286 127.197 63.7657C127.172 64.02 127.177 63.8226 127.114 63.6863C127.097 63.6199 127.06 63.5345 127.026 63.4498C126.999 63.3693 126.95 63.2737 126.907 63.1818C126.728 62.8094 126.49 62.3937 126.222 61.9784C125.676 61.1447 125.016 60.2997 124.323 59.4687C123.626 58.6396 122.889 57.8169 122.134 57.0068C121.393 56.1959 120.583 55.3847 119.841 54.6315L123.144 51.1484Z" fill="#FFC3BD"/>
<path d="M118.105 69.0791L115.1 69.9826L117.021 73.1415C117.021 73.1415 118.788 72.4107 119.176 70.9108L118.105 69.0791Z" fill="#FFC3BD"/>
<path d="M113.912 71.0993L115.088 73.705L117.02 73.1413L115.099 69.9824L113.912 71.0993Z" fill="#FFC3BD"/>
<path d="M116.144 52.0082C115.858 55.0399 122.283 59.7427 122.283 59.7427L128.468 55.5102C128.468 55.5102 127.197 52.7857 123.904 50.6712C120.366 48.3987 116.5 48.2343 116.144 52.0082Z" fill="#AC8EFE"/>
<g opacity="0.3">
<path d="M116.144 52.0082C115.858 55.0399 122.283 59.7427 122.283 59.7427L128.468 55.5102C128.468 55.5102 127.197 52.7857 123.904 50.6712C120.366 48.3987 116.5 48.2343 116.144 52.0082Z" fill="white"/>
</g>
<path d="M105.63 51.7635C105.63 51.7635 102.852 56.0226 109.444 78.8695L126.2 76.3948C125.964 74.0779 123.161 63.9776 123.069 52.932C123.05 50.69 121.167 48.9073 118.928 49.0208C118.439 49.0458 117.938 49.0807 117.444 49.1297C115.287 49.3427 112.177 49.7322 110.32 50.182C107.872 50.7754 105.63 51.7635 105.63 51.7635Z" fill="#AC8EFE"/>
<g opacity="0.3">
<path d="M105.63 51.7635C105.63 51.7635 102.852 56.0226 109.444 78.8695L126.2 76.3948C125.964 74.0779 123.161 63.9776 123.069 52.932C123.05 50.69 121.167 48.9073 118.928 49.0208C118.439 49.0458 117.938 49.0807 117.444 49.1297C115.287 49.3427 112.177 49.7322 110.32 50.182C107.872 50.7754 105.63 51.7635 105.63 51.7635Z" fill="white"/>
</g>
<path opacity="0.2" d="M105.219 59.1059L105.275 59.041L109.218 59.391C109.816 61.9349 107.622 65.405 106.465 67.0135C105.792 63.7533 105.413 61.1601 105.219 59.1059Z" fill="black"/>
<path opacity="0.2" d="M113.604 148.169L113.765 151.949H116.934L116.771 148.169H113.604Z" fill="black"/>
<path opacity="0.2" d="M136.324 143.58L133.404 144.587L134.967 148.15L137.886 147.144L136.324 143.58Z" fill="black"/>
<path d="M115.174 38.0433C115.873 41.1076 116.438 42.8656 115.371 44.8568C113.766 47.852 109.646 47.5643 108.046 44.7702C106.606 42.2556 105.705 37.6667 108.3 35.6042C110.856 33.572 114.475 34.9789 115.174 38.0433Z" fill="#FFC3BD"/>
<path d="M109.021 41.0474L107.855 41.7607L107.967 37.7747C107.967 37.7747 106.743 37.8589 105.857 37.1631C106.279 36.7622 112.838 34.4636 114.884 34.8641C115.095 34.7745 115.356 34.3789 115.356 34.3789C115.356 34.3789 115.435 34.8774 115.087 35.0672C115.34 35.0197 115.964 35.1385 116.139 35.5075C115.589 35.3914 115.269 35.5576 115.269 35.5576C115.269 35.5576 117.564 35.902 116.74 39.0612C115.833 42.5412 116.134 44.5445 116.134 44.5445C116.134 44.5445 114.441 45.8523 112.965 45.6097C111.394 43.8802 109.127 41.7998 109.021 41.0474Z" fill="#263238"/>
<path d="M106.79 36.8465C104.94 36.8624 104.275 35.9449 103.801 35.1856C105.129 35.0433 107.898 34.1891 109.954 34.0467C112.01 33.9044 114.256 34.284 113.576 35.1697C112.896 36.0553 106.79 36.8465 106.79 36.8465Z" fill="#263238"/>
<path d="M107.197 36.0238C105.689 35.8135 104.196 34.3796 105.335 33.0088C105.757 34.0182 108.602 33.9001 110.62 33.478C113.265 32.9245 115.118 33.8185 114.176 35.629C113.661 36.6198 107.197 36.0238 107.197 36.0238Z" fill="#263238"/>
<path d="M110.663 40.1398C110.904 40.9271 110.816 41.7847 110.562 42.4186C110.18 43.3723 109.34 43.1798 108.902 42.3541C108.508 41.6108 108.232 40.2195 108.877 39.532C109.512 38.8543 110.388 39.2393 110.663 40.1398Z" fill="#FFC3BD"/>
<path d="M115.389 77.9903C115.389 77.9903 118.108 101.129 120.081 110.196C122.241 120.124 132.898 147.202 132.898 147.202L138.227 145.363C138.227 145.363 131.395 124.977 129.582 111.096C128.189 100.434 126.202 76.3936 126.202 76.3936L115.389 77.9903Z" fill="#263238"/>
<path d="M131.537 145.5C131.514 145.508 132.629 147.775 132.629 147.775L138.835 145.76L138.108 143.906L131.537 145.5Z" fill="#AC8EFE"/>
<path opacity="0.3" d="M116.887 89.8643C117.737 96.2924 118.827 103.894 119.786 108.774C121.173 101.305 121.524 91.9089 116.887 89.8643Z" fill="black"/>
<path d="M109.444 78.8691C109.444 78.8691 107.189 100.606 107.534 110.263C107.892 120.309 112.585 151.217 112.585 151.217H117.95C117.95 151.217 116.963 120.896 117.201 111.03C117.461 100.275 121.494 77.0898 121.494 77.0898L109.444 78.8691Z" fill="#263238"/>
<path d="M111.552 149.08C111.527 149.08 111.855 151.307 111.855 151.307H118.38L118.557 149.32L111.552 149.08Z" fill="#AC8EFE"/>
<path d="M108.407 57.1012C107.814 58.0427 107.213 58.8892 106.589 59.7605C105.97 60.6264 105.316 61.4676 104.651 62.3039C103.305 63.9667 101.87 65.5748 100.259 67.0941C99.8322 67.463 99.4404 67.8438 98.983 68.198L98.6493 68.4668L98.4826 68.6008C98.4204 68.6498 98.3953 68.6748 98.2689 68.7659C97.8471 69.0727 97.4307 69.2625 97.0435 69.3999C96.263 69.6664 95.5846 69.7283 94.9453 69.7583C94.3075 69.7841 93.7108 69.7442 93.133 69.677C90.8298 69.3934 88.8003 68.7511 86.7754 67.8806L87.4299 65.5949C89.3978 65.7916 91.4531 65.9594 93.286 65.8762C93.7415 65.85 94.1815 65.8037 94.574 65.7358C94.9624 65.6674 95.3147 65.5554 95.4999 65.4457C95.5937 65.3952 95.6427 65.347 95.6301 65.3364C95.6089 65.3516 95.6787 65.2886 95.7148 65.2536L95.8416 65.1341L96.0956 64.8956C96.4372 64.5919 96.7622 64.223 97.0959 63.8912C97.753 63.1839 98.4037 62.4592 99.0251 61.6871C99.6587 60.9312 100.27 60.1412 100.876 59.3474C101.484 58.5533 102.072 57.7393 102.666 56.9296C103.252 56.1225 103.836 55.2725 104.381 54.4863L108.407 57.1012Z" fill="#FFC3BD"/>
<path d="M110.608 56.0949C111.885 60.2689 104.479 64.9003 104.479 64.9003L99.666 58.7667C99.666 58.7667 101.001 56.0741 103.651 53.1897C106.925 49.6269 109.635 52.9175 110.608 56.0949Z" fill="#AC8EFE"/>
<g opacity="0.3">
<path d="M110.608 56.0949C111.885 60.2689 104.479 64.9003 104.479 64.9003L99.666 58.7667C99.666 58.7667 101.001 56.0741 103.651 53.1897C106.925 49.6269 109.635 52.9175 110.608 56.0949Z" fill="white"/>
</g>
<path d="M88.5363 65.7617L84.6406 65.0469L85.0506 68.4202C85.0506 68.4202 87.0752 69.5542 88.5473 67.779L88.5363 65.7617Z" fill="#FFC3BD"/>
<path d="M83.1445 65.8076L83.9873 68.2407L85.0506 68.4202L84.6406 65.0469L83.1445 65.8076Z" fill="#FFC3BD"/>
</g>
<defs>
<clipPath id="clip0_182_17377">
<rect width="189.812" height="189.812" fill="white" transform="translate(0.09375 0.71875)"/>
</clipPath>
</defs>
</svg>
