<svg width="14" height="14" viewBox="0 0 14 14" fill="none" xmlns="http://www.w3.org/2000/svg">
<path d="M10.4766 2.47938C10.6096 2.80095 10.8648 3.05656 11.1862 3.19001L12.3131 3.65679C12.6347 3.79 12.8902 4.04551 13.0234 4.36711C13.1566 4.68871 13.1566 5.05005 13.0234 5.37165L12.5569 6.49775C12.4237 6.81949 12.4235 7.1812 12.5574 7.50278L13.023 8.62854C13.089 8.78783 13.123 8.95856 13.1231 9.13099C13.1231 9.30342 13.0891 9.47417 13.0232 9.63348C12.9572 9.79278 12.8604 9.93752 12.7385 10.0594C12.6165 10.1813 12.4718 10.278 12.3124 10.344L11.1864 10.8104C10.8648 10.9434 10.6092 11.1986 10.4757 11.52L10.0089 12.6469C9.87573 12.9685 9.62022 13.224 9.29862 13.3572C8.97702 13.4904 8.61568 13.4904 8.29408 13.3572L7.16799 12.8907C6.84638 12.7579 6.48516 12.7581 6.16375 12.8915L5.03685 13.3576C4.71543 13.4905 4.3544 13.4904 4.03306 13.3573C3.71173 13.2242 3.45636 12.969 3.32306 12.6477L2.85614 11.5205C2.72317 11.1989 2.46795 10.9433 2.14657 10.8099L1.01967 10.3431C0.698213 10.2099 0.44278 9.95458 0.30952 9.63317C0.17626 9.31175 0.176079 8.95057 0.309017 8.62903L0.77546 7.50293C0.908343 7.18133 0.908072 6.82011 0.774706 6.4987L0.308932 5.37099C0.242895 5.21171 0.208891 5.04097 0.208863 4.86854C0.208836 4.69611 0.242785 4.52536 0.308771 4.36606C0.374758 4.20675 0.471488 4.06201 0.593434 3.9401C0.715381 3.8182 0.860153 3.72151 1.01948 3.65558L2.14557 3.18913C2.46687 3.05628 2.72232 2.80138 2.85587 2.48038L3.32265 1.35348C3.45586 1.03188 3.71137 0.776366 4.03297 0.643156C4.35457 0.509945 4.71591 0.509945 5.03751 0.643156L6.16361 1.1096C6.48521 1.24248 6.84643 1.24221 7.16784 1.10884L8.29521 0.643879C8.61677 0.510743 8.97804 0.51077 9.29957 0.643955C9.62111 0.777139 9.87658 1.03258 10.0098 1.35409L10.4767 2.48133L10.4766 2.47938Z" fill="#57AA04"/>
</svg>
