<svg width="16" height="17" viewBox="0 0 16 17" fill="none" xmlns="http://www.w3.org/2000/svg">
<path opacity="0.12" d="M13.4142 2.63559C14.1953 3.41664 14.1953 4.68297 13.4142 5.46402C12.6332 6.24507 11.3668 6.24507 10.5858 5.46402C9.80474 4.68297 9.80474 3.41664 10.5858 2.63559C11.3668 1.85454 12.6332 1.85454 13.4142 2.63559Z" fill="#1D192B"/>
<path d="M8.66667 11.3831H4.66667M10 8.71647H4.66667M7.33333 2.71647H5.2C4.0799 2.71647 3.51984 2.71647 3.09202 2.93446C2.71569 3.12621 2.40973 3.43217 2.21799 3.80849C2 4.23631 2 4.79637 2 5.91647V10.8498C2 11.9699 2 12.53 2.21799 12.9578C2.40973 13.3341 2.71569 13.6401 3.09202 13.8318C3.51984 14.0498 4.07989 14.0498 5.2 14.0498H10.1333C11.2534 14.0498 11.8135 14.0498 12.2413 13.8318C12.6176 13.6401 12.9236 13.3341 13.1153 12.9578C13.3333 12.53 13.3333 11.9699 13.3333 10.8498V8.71647M13.4142 2.63559C14.1953 3.41664 14.1953 4.68297 13.4142 5.46402C12.6332 6.24507 11.3668 6.24507 10.5858 5.46402C9.80474 4.68297 9.80474 3.41664 10.5858 2.63559C11.3668 1.85454 12.6332 1.85454 13.4142 2.63559Z" stroke="#1D192B" stroke-width="1.2" stroke-linecap="round" stroke-linejoin="round"/>
</svg>
