<svg width="190" height="190" viewBox="0 0 190 190" fill="none" xmlns="http://www.w3.org/2000/svg">
<g clip-path="url(#clip0_182_9162)">
<path d="M189.906 145.169H0.09375V145.264H189.906V145.169Z" fill="#EBEBEB"/>
<path d="M170.888 151.279H158.314V151.374H170.888V151.279Z" fill="#EBEBEB"/>
<path d="M125.833 152.31H122.533V152.405H125.833V152.31Z" fill="#EBEBEB"/>
<path d="M157.934 147.754H150.648V147.849H157.934V147.754Z" fill="#EBEBEB"/>
<path d="M36.405 148.393H20.0078V148.487H36.405V148.393Z" fill="#EBEBEB"/>
<path d="M42.1893 148.393H39.7852V148.487H42.1893V148.393Z" fill="#EBEBEB"/>
<path d="M85.5657 149.995H50.0039V150.09H85.5657V149.995Z" fill="#EBEBEB"/>
<path d="M90.0698 128.238H16.7646C15.5699 128.238 14.5977 127.266 14.5977 126.072V23.0292C14.5977 21.8345 15.5699 20.8623 16.7646 20.8623H90.0698C91.2641 20.8623 92.2363 21.8345 92.2363 23.0292V126.072C92.2363 127.266 91.2641 128.238 90.0698 128.238ZM16.7646 20.9576C15.6219 20.9576 14.6926 21.8869 14.6926 23.0296V126.072C14.6926 127.215 15.6219 128.144 16.7646 128.144H90.0698C91.2121 128.144 92.1414 127.215 92.1414 126.072V23.0292C92.1414 21.8869 91.2121 20.9572 90.0698 20.9572L16.7646 20.9576Z" fill="#EBEBEB"/>
<path d="M172.182 128.238H98.8775C97.6828 128.238 96.7109 127.266 96.7109 126.072V23.0292C96.7109 21.8345 97.6832 20.8623 98.8775 20.8623H172.182C173.377 20.8623 174.349 21.8345 174.349 23.0292V126.072C174.35 127.266 173.377 128.238 172.182 128.238ZM98.8775 20.9576C97.7352 20.9576 96.8058 21.8869 96.8058 23.0296V126.072C96.8058 127.215 97.7352 128.144 98.8775 128.144H172.182C173.325 128.144 174.254 127.215 174.254 126.072V23.0292C174.254 21.8869 173.325 20.9572 172.182 20.9572L98.8775 20.9576Z" fill="#EBEBEB"/>
<path d="M83.0204 108.522H35.0293V111.909H83.0204V108.522Z" fill="#EBEBEB"/>
<path d="M83.02 108.521H62.1523V111.909H83.02V108.521Z" fill="#E0E0E0"/>
<path d="M42.1196 111.91H35.0293V145.168H42.1196V111.91Z" fill="#EBEBEB"/>
<path d="M42.1196 115.343L35.0293 112.928V111.91H42.1196V115.343Z" fill="#E0E0E0"/>
<path d="M83.0203 111.91H75.9297V145.168H83.0203V111.91Z" fill="#E0E0E0"/>
<path d="M69.243 111.91H62.1523V145.168H69.243V111.91Z" fill="#EBEBEB"/>
<path d="M69.243 115.343L62.1523 112.928V111.91H69.243V115.343Z" fill="#E0E0E0"/>
<path d="M55.8969 111.91H48.8066V145.168H55.8969V111.91Z" fill="#E0E0E0"/>
<path d="M87.5337 33.0901H27.0469V84.5927H87.5337V33.0901Z" fill="#EBEBEB"/>
<path d="M87.534 84.5923H88.209V33.0898H87.534V84.5923Z" fill="#E0E0E0"/>
<path d="M85.2559 82.316L85.2559 35.369L29.3246 35.369L29.3246 82.316H85.2559Z" fill="#F5F5F5"/>
<path d="M56.6152 75.1883C60.0224 63.7893 60.9809 47.0019 68.2492 49.3191C75.5171 51.6364 65.9961 76.4745 65.9961 76.4745L56.6152 75.1883Z" fill="white"/>
<path d="M62.485 75.7561C59.0073 59.2496 59.8839 37.3361 49.0793 37.8388C38.2748 38.3414 49.0793 76.4736 49.0793 76.4736L62.485 75.7561Z" fill="white"/>
<path d="M70.1174 73.9043H46.4664C45.4148 73.9043 44.6165 74.6761 44.5736 75.6521C44.0926 86.547 45.8772 97.6521 49.1985 108.523H67.3101C70.6314 97.6521 72.416 86.547 71.9347 75.6521C71.8914 74.6761 71.0946 73.9043 70.1174 73.9043Z" fill="#EBEBEB"/>
<path d="M123.926 38.8368H122.594V145.17H123.926V38.8368Z" fill="#E0E0E0"/>
<path d="M155.243 38.8368H153.91V145.17H155.243V38.8368Z" fill="#E0E0E0"/>
<path d="M114.477 38.8368H113.145V145.17H114.477V38.8368Z" fill="#EBEBEB"/>
<path d="M145.793 38.8368H144.461V145.17H145.793V38.8368Z" fill="#EBEBEB"/>
<path d="M155.243 38.1096H113.145V39.5631H155.243V38.1096Z" fill="#EBEBEB"/>
<path d="M155.243 64.1487H113.145V65.6023H155.243V64.1487Z" fill="#EBEBEB"/>
<path d="M155.243 90.1857H113.145V91.6393H155.243V90.1857Z" fill="#EBEBEB"/>
<path d="M155.243 116.225H113.145V117.679H155.243V116.225Z" fill="#EBEBEB"/>
<path d="M155.243 142.263H113.145V143.716H155.243V142.263Z" fill="#EBEBEB"/>
<path d="M155.242 38.1094H145.793V39.563H155.242V38.1094Z" fill="#E0E0E0"/>
<path d="M155.242 64.1487H145.793V65.6023H155.242V64.1487Z" fill="#E0E0E0"/>
<path d="M155.242 90.1857H145.793V91.6393H155.242V90.1857Z" fill="#E0E0E0"/>
<path d="M155.242 116.225H145.793V117.679H155.242V116.225Z" fill="#E0E0E0"/>
<path d="M155.242 142.263H145.793V143.716H155.242V142.263Z" fill="#E0E0E0"/>
<path d="M130.128 46.9661V44.9169H125.067V46.9661C125.067 48.3047 123.981 49.3901 122.643 49.3901C121.304 49.3901 120.219 50.4754 120.219 51.814V64.148H134.977V51.814C134.977 50.475 133.891 49.3901 132.553 49.3901C131.213 49.3901 130.128 48.3047 130.128 46.9661Z" fill="#F0F0F0"/>
<path d="M140.601 81.7161H118.424V90.1844H140.601V81.7161Z" fill="#F0F0F0"/>
<path d="M140.6 90.1849H144.461V81.7166H140.6V90.1849Z" fill="#E6E6E6"/>
<path d="M140.6 86.4167H144.461V85.4836H140.6V86.4167Z" fill="#EBEBEB"/>
<path d="M140.601 85.4843H118.424V86.4174H140.601V85.4843Z" fill="#F5F5F5"/>
<path d="M134.657 127.292H117.334V142.264H134.657V127.292Z" fill="#F0F0F0"/>
<path d="M134.656 142.264H137.672V127.292H134.656V142.264Z" fill="#E6E6E6"/>
<path d="M134.656 135.604H137.672V133.954H134.656V135.604Z" fill="#EBEBEB"/>
<path d="M134.657 133.953H117.334V135.602H134.657V133.953Z" fill="#F5F5F5"/>
<path d="M134.656 132.796H137.672V132.207H134.656V132.796Z" fill="#EBEBEB"/>
<path d="M134.657 132.208H117.334V132.797H134.657V132.208Z" fill="#F5F5F5"/>
<path d="M121.561 101.003H118.424V116.225H121.561V101.003Z" fill="#F0F0F0"/>
<path d="M121.561 106.427H118.424V110.801H121.561V106.427Z" fill="#FAFAFA"/>
<path d="M121.561 116.225H132.229V101.003H121.561V116.225Z" fill="#E6E6E6"/>
<path d="M126.404 99.0353H122.861V116.226H126.404V99.0353Z" fill="#EBEBEB"/>
<path d="M126.404 104.5H122.861V107.146H126.404V104.5Z" fill="#FAFAFA"/>
<path d="M126.404 108.92H122.861V111.567H126.404V108.92Z" fill="#FAFAFA"/>
<path d="M126.405 116.226H138.451V99.0351H126.405V116.226Z" fill="#E0E0E0"/>
<path d="M130.345 101.003H128.438V116.225H130.345V101.003Z" fill="#F0F0F0"/>
<path d="M130.018 102.932H128.766V114.297H130.018V102.932Z" fill="#FAFAFA"/>
<path d="M130.345 116.225H136.832V101.003H130.345V116.225Z" fill="#E6E6E6"/>
<path d="M135.444 100.201H133.289V116.226H135.444V100.201Z" fill="#EBEBEB"/>
<path d="M135.444 105.294H133.289V107.762H135.444V105.294Z" fill="#FAFAFA"/>
<path d="M135.444 109.414H133.289V111.881H135.444V109.414Z" fill="#FAFAFA"/>
<path d="M135.444 116.227H142.77V100.201H135.444V116.227Z" fill="#E0E0E0"/>
<path d="M134.459 80.3349C136.303 78.4913 136.303 75.5024 134.459 73.6589C132.616 71.8154 129.627 71.8154 127.783 73.6589C125.94 75.5024 125.94 78.4913 127.783 80.3349C129.627 82.1784 132.616 82.1784 134.459 80.3349Z" fill="#F5F5F5"/>
<path d="M136.876 81.6733C138.66 81.3837 139.872 79.7022 139.583 77.9176C139.293 76.133 137.612 74.9211 135.827 75.2108C134.042 75.5004 132.83 77.1819 133.12 78.9664C133.41 80.751 135.091 81.9629 136.876 81.6733Z" fill="#EBEBEB"/>
<path d="M94.9996 162.313C135.651 162.313 168.605 160.389 168.605 158.015C168.605 155.641 135.651 153.716 94.9996 153.716C54.3487 153.716 21.3945 155.641 21.3945 158.015C21.3945 160.389 54.3487 162.313 94.9996 162.313Z" fill="#F5F5F5"/>
<path d="M96.7277 128.575H47.9668V153.758C47.9668 155.114 49.0666 156.214 50.423 156.214H94.2712C95.6276 156.214 96.7273 155.114 96.7273 153.758L96.7277 128.575Z" fill="#825EE4"/>
<path d="M47.9679 128.575H82.4694L78.2244 123.143C77.759 122.547 76.6034 122.064 75.6437 122.064H44.6185C43.6584 122.064 43.2579 122.547 43.7233 123.143L47.9679 128.575Z" fill="#825EE4"/>
<path opacity="0.2" d="M47.9679 128.575H82.4694L78.2244 123.143C77.759 122.547 76.6034 122.064 75.6437 122.064H44.6185C43.6584 122.064 43.2579 122.547 43.7233 123.143L47.9679 128.575Z" fill="black"/>
<path d="M96.728 128.575H62.2266L66.4715 125.034C66.937 124.646 68.0925 124.331 69.0522 124.331H100.077C101.037 124.331 101.438 124.646 100.973 125.034L96.728 128.575Z" fill="#825EE4"/>
<path opacity="0.2" d="M96.728 128.575H62.2266V153.758C62.2266 155.114 63.3263 156.214 64.6827 156.214H94.2715C95.6279 156.214 96.7276 155.114 96.7276 153.758L96.728 128.575Z" fill="white"/>
<path opacity="0.5" d="M52.25 128.575V145.841L53.4424 144.9L54.2817 145.841L55.0121 144.793L55.757 145.841L56.7998 145.052L57.9444 145.841V128.575H52.25Z" fill="white"/>
<path d="M59.9696 90.915L53.8379 85.7673" stroke="#825EE4" stroke-width="2.06318" stroke-miterlimit="10"/>
<path d="M63.1474 93.5812L61.2773 92.0114" stroke="#825EE4" stroke-width="2.06318" stroke-miterlimit="10"/>
<path d="M81.5129 104.356L101.739 79.0754L74.8087 56.4668L56.9527 76.9396L54.3097 82.0611C53.7543 82.6981 53.8314 83.591 54.4893 84.1434L78.7906 104.545C79.5749 105.203 80.8512 105.115 81.5129 104.356Z" fill="#825EE4"/>
<path opacity="0.5" d="M67.6422 85.7149L64.7305 90.4044L65.9012 90.6561L66.2991 91.7445L67.0796 91.79L67.4383 92.7178L68.3923 92.9969L69.1273 94.1604L72.0386 89.4705L67.6422 85.7149Z" fill="white"/>
<path opacity="0.1" d="M100.859 78.3371L82.719 98.5722L56.9531 76.9408L74.8092 56.4684L100.859 78.3371Z" fill="black"/>
<path d="M100.858 78.3367L82.7188 98.5718L90.2289 99.1272L108.085 78.6544L100.858 78.3367Z" fill="#825EE4"/>
<path opacity="0.3" d="M100.858 78.3367L82.7188 98.5718L90.2289 99.1272L108.085 78.6544L100.858 78.3367Z" fill="black"/>
<path d="M67.5826 56.1494L49.4434 76.3841L56.9535 76.9395L74.8095 56.4671L67.5826 56.1494Z" fill="#825EE4"/>
<path opacity="0.4" d="M67.5826 56.1494L49.4434 76.3841L56.9535 76.9395L74.8095 56.4671L67.5826 56.1494Z" fill="black"/>
<path opacity="0.1" d="M95.2725 84.5686L100.859 78.3371L74.8092 56.4684L71.4727 64.5001L95.2725 84.5686Z" fill="black"/>
<path opacity="0.2" d="M56.9531 76.9408L74.8092 56.4684L71.4726 64.5001L58.901 78.5762L56.9531 76.9408Z" fill="black"/>
<path d="M107.153 40.2451C107.225 40.4903 107.153 40.7268 106.993 40.7739C106.833 40.8209 106.645 40.6604 106.573 40.4151C106.501 40.1699 106.573 39.9334 106.733 39.8863C106.893 39.8396 107.081 40.0002 107.153 40.2451Z" fill="#263238"/>
<path d="M107.176 40.7186C107.176 40.7186 107.034 42.2963 106.621 43.1584C107.173 43.4359 107.856 43.0347 107.856 43.0347L107.176 40.7186Z" fill="#ED847E"/>
<path d="M107.65 38.6193C107.683 38.6022 107.709 38.5734 107.722 38.5366C107.749 38.4584 107.708 38.373 107.63 38.3452C106.847 38.0693 106.294 38.4846 106.27 38.5024C106.204 38.5529 106.191 38.647 106.242 38.7127C106.292 38.7784 106.387 38.7898 106.452 38.7408C106.47 38.7271 106.906 38.4083 107.53 38.6281C107.571 38.6425 107.615 38.6379 107.65 38.6193Z" fill="#263238"/>
<path d="M115.591 41.8671C115.757 43.8791 116.256 47.571 117.445 48.4115C117.445 48.4115 117.161 50.8289 112.903 51.458C108.22 52.1496 110.322 49.4638 110.322 49.4638C112.787 48.476 112.441 46.5896 111.733 44.8745L113.543 42.8006C114.222 42.0216 115.506 40.8372 115.591 41.8671Z" fill="#FFC3BD"/>
<path d="M118.974 49.3921C119.355 49.0474 118.586 47.6663 118.127 47.4739C116.905 46.9602 111.903 47.4678 110.023 49.0846C109.484 49.9399 109.875 50.8647 109.875 50.8647L118.974 49.3921Z" fill="white"/>
<path d="M134.895 150.866C134.584 150.961 134.269 151.006 134.105 150.889C134.037 150.84 133.963 150.741 134.004 150.548C134.025 150.446 134.083 150.367 134.178 150.312C134.586 150.072 135.599 150.388 135.643 150.402C135.671 150.411 135.691 150.436 135.694 150.465C135.698 150.494 135.683 150.523 135.658 150.538C135.514 150.623 135.207 150.77 134.895 150.866ZM134.338 150.405C134.307 150.415 134.278 150.426 134.253 150.441C134.196 150.475 134.163 150.519 134.15 150.579C134.122 150.716 134.175 150.755 134.193 150.767C134.375 150.897 134.993 150.711 135.422 150.496C135.112 150.415 134.614 150.32 134.338 150.405Z" fill="#825EE4"/>
<path d="M135.641 150.546C135.629 150.549 135.617 150.55 135.604 150.548C135.239 150.474 134.43 149.996 134.39 149.639C134.383 149.574 134.396 149.455 134.561 149.381C134.668 149.333 134.78 149.333 134.895 149.379C135.335 149.559 135.675 150.411 135.689 150.447C135.699 150.472 135.695 150.501 135.677 150.522C135.667 150.534 135.655 150.542 135.641 150.546ZM134.654 149.506C134.643 149.509 134.632 149.513 134.622 149.518C134.532 149.558 134.537 149.603 134.539 149.622C134.563 149.834 135.102 150.216 135.486 150.357C135.372 150.113 135.12 149.633 134.837 149.518C134.773 149.492 134.713 149.488 134.654 149.506Z" fill="#825EE4"/>
<path d="M112.646 154.945C112.24 154.945 111.847 154.889 111.716 154.706C111.67 154.643 111.634 154.534 111.722 154.378C111.772 154.291 111.852 154.232 111.96 154.203C112.487 154.06 113.594 154.69 113.641 154.717C113.668 154.733 113.682 154.764 113.677 154.794C113.672 154.825 113.648 154.85 113.618 154.856C113.415 154.897 113.025 154.945 112.646 154.945ZM112.144 154.331C112.091 154.331 112.042 154.336 111.999 154.348C111.93 154.367 111.882 154.401 111.852 154.453C111.799 154.546 111.818 154.592 111.838 154.619C111.985 154.823 112.786 154.828 113.374 154.745C113.08 154.594 112.514 154.331 112.144 154.331Z" fill="#825EE4"/>
<path d="M113.602 154.855C113.591 154.855 113.581 154.853 113.571 154.848C113.189 154.677 112.432 153.992 112.489 153.634C112.503 153.55 112.563 153.445 112.769 153.424C112.923 153.409 113.062 153.452 113.185 153.553C113.588 153.884 113.673 154.737 113.677 154.773C113.679 154.8 113.667 154.826 113.646 154.841C113.632 154.85 113.617 154.855 113.602 154.855ZM112.829 153.571C112.814 153.571 112.799 153.572 112.784 153.574C112.649 153.587 112.64 153.64 112.638 153.658C112.603 153.873 113.117 154.411 113.507 154.645C113.467 154.396 113.354 153.886 113.089 153.669C113.01 153.604 112.924 153.571 112.829 153.571Z" fill="#825EE4"/>
<path d="M117.084 154.78H113.917L113.602 147.446H116.768L117.084 154.78Z" fill="#FFC3BD"/>
<path d="M139.351 149.774L136.433 150.78L133.404 143.865L136.322 142.859L139.351 149.774Z" fill="#FFC3BD"/>
<path d="M135.738 150.055L139.14 149.011C139.263 148.973 139.397 149.027 139.461 149.139L140.884 151.647C141.032 151.907 140.894 152.239 140.606 152.321C139.412 152.665 138.814 152.772 137.318 153.231C136.398 153.513 134.075 154.394 132.773 154.656C131.498 154.912 131.04 153.664 131.55 153.44C133.837 152.435 134.763 151.292 135.304 150.392C135.401 150.229 135.557 150.11 135.738 150.055Z" fill="#263238"/>
<path d="M113.938 154.415H117.396C117.526 154.415 117.638 154.505 117.666 154.631L118.291 157.446C118.356 157.738 118.134 158.015 117.836 158.01C116.588 157.989 114.785 157.916 113.218 157.916C111.384 157.916 110.611 158.015 108.461 158.015C107.161 158.015 106.8 156.701 107.344 156.582C109.821 156.04 111.034 155.982 113.175 154.662C113.407 154.518 113.664 154.415 113.938 154.415Z" fill="#263238"/>
<path d="M123.144 50.4297C124.064 51.2766 124.863 52.1232 125.689 53.0062C126.497 53.8941 127.284 54.8075 128.028 55.7809C128.778 56.7501 129.491 57.7678 130.138 58.9109C130.46 59.486 130.77 60.0908 131.028 60.7862C131.092 60.9628 131.157 61.1325 131.212 61.3291C131.269 61.5182 131.324 61.7065 131.367 61.9228L131.432 62.2372L131.476 62.5864C131.504 62.7554 131.531 63.217 131.478 63.5537C131.379 64.2659 131.1 64.8148 130.824 65.2377C130.544 65.6583 130.243 65.9715 129.951 66.2452C129.363 66.7858 128.787 67.1662 128.217 67.509C127.076 68.1802 125.943 68.6619 124.808 69.0977C122.532 69.953 120.263 70.5487 117.908 70.9947L117.244 68.7117C119.306 67.8184 121.392 66.8561 123.33 65.8246C124.296 65.3064 125.233 64.7507 126.028 64.163C126.421 63.8734 126.78 63.5647 127.013 63.2921C127.129 63.1589 127.208 63.0329 127.238 62.9668C127.266 62.9019 127.226 62.9099 127.197 63.0469C127.172 63.3013 127.177 63.1039 127.114 62.9676C127.097 62.9011 127.06 62.8157 127.026 62.7311C126.999 62.6506 126.95 62.5549 126.907 62.463C126.728 62.0906 126.49 61.6749 126.222 61.2596C125.676 60.426 125.016 59.5809 124.323 58.7499C123.626 57.9208 122.889 57.0982 122.134 56.2881C121.393 55.4772 120.583 54.6659 119.841 53.9127L123.144 50.4297Z" fill="#FFC3BD"/>
<path d="M118.105 68.3599L115.1 69.2634L117.021 72.4222C117.021 72.4222 118.788 71.6915 119.176 70.1916L118.105 68.3599Z" fill="#FFC3BD"/>
<path d="M113.912 70.38L115.088 72.9857L117.02 72.422L115.099 69.2631L113.912 70.38Z" fill="#FFC3BD"/>
<path d="M116.144 51.2894C115.858 54.3211 122.283 59.0239 122.283 59.0239L128.468 54.7914C128.468 54.7914 127.197 52.0669 123.904 49.9523C120.366 47.6799 116.5 47.5155 116.144 51.2894Z" fill="#825EE4"/>
<g opacity="0.3">
<path d="M116.144 51.2894C115.858 54.3211 122.283 59.0239 122.283 59.0239L128.468 54.7914C128.468 54.7914 127.197 52.0669 123.904 49.9523C120.366 47.6799 116.5 47.5155 116.144 51.2894Z" fill="white"/>
</g>
<path d="M105.63 51.0441C105.63 51.0441 102.852 55.3031 109.444 78.1501L126.2 75.6753C125.964 73.3585 123.161 63.2582 123.069 52.2126C123.05 49.9705 121.167 48.1878 118.928 48.3013C118.439 48.3264 117.938 48.3613 117.444 48.4103C115.287 48.6233 112.177 49.0128 110.32 49.4626C107.872 50.056 105.63 51.0441 105.63 51.0441Z" fill="#825EE4"/>
<g opacity="0.3">
<path d="M105.63 51.0441C105.63 51.0441 102.852 55.3031 109.444 78.1501L126.2 75.6753C125.964 73.3585 123.161 63.2582 123.069 52.2126C123.05 49.9705 121.167 48.1878 118.928 48.3013C118.439 48.3264 117.938 48.3613 117.444 48.4103C115.287 48.6233 112.177 49.0128 110.32 49.4626C107.872 50.056 105.63 51.0441 105.63 51.0441Z" fill="white"/>
</g>
<path opacity="0.2" d="M105.219 58.3863L105.275 58.3214L109.218 58.6714C109.816 61.2153 107.622 64.6854 106.465 66.2939C105.792 63.0337 105.413 60.4405 105.219 58.3863Z" fill="black"/>
<path opacity="0.2" d="M113.604 147.45L113.765 151.23H116.934L116.771 147.45H113.604Z" fill="black"/>
<path opacity="0.2" d="M136.324 142.861L133.404 143.868L134.967 147.431L137.886 146.425L136.324 142.861Z" fill="black"/>
<path d="M115.174 37.324C115.873 40.3883 116.438 42.1463 115.371 44.1375C113.766 47.1327 109.646 46.845 108.046 44.0509C106.606 41.5363 105.705 36.9474 108.3 34.8849C110.856 32.8527 114.475 34.2596 115.174 37.324Z" fill="#FFC3BD"/>
<path d="M109.021 40.3285L107.855 41.0418L107.967 37.0558C107.967 37.0558 106.743 37.1401 105.857 36.4442C106.279 36.0433 112.838 33.7447 114.884 34.1452C115.095 34.0556 115.356 33.66 115.356 33.66C115.356 33.66 115.435 34.1585 115.087 34.3483C115.34 34.3008 115.964 34.4197 116.139 34.7887C115.589 34.6725 115.269 34.8388 115.269 34.8388C115.269 34.8388 117.564 35.1831 116.74 38.3423C115.833 41.8224 116.134 43.8256 116.134 43.8256C116.134 43.8256 114.441 45.1334 112.965 44.8909C111.394 43.1613 109.127 41.0809 109.021 40.3285Z" fill="#263238"/>
<path d="M106.79 36.1273C104.94 36.1432 104.275 35.2257 103.801 34.4664C105.129 34.3241 107.898 33.4699 109.954 33.3276C112.01 33.1852 114.256 33.5648 113.576 34.4505C112.896 35.3362 106.79 36.1273 106.79 36.1273Z" fill="#263238"/>
<path d="M107.197 35.3043C105.689 35.094 104.196 33.6601 105.335 32.2893C105.757 33.2987 108.602 33.1807 110.62 32.7585C113.265 32.205 115.118 33.099 114.176 34.9095C113.661 35.9003 107.197 35.3043 107.197 35.3043Z" fill="#263238"/>
<path d="M110.663 39.4203C110.904 40.2076 110.816 41.0652 110.562 41.6992C110.18 42.6528 109.34 42.4603 108.902 41.6346C108.508 40.8913 108.232 39.5 108.877 38.8125C109.512 38.1349 110.388 38.5198 110.663 39.4203Z" fill="#FFC3BD"/>
<path d="M115.389 77.2714C115.389 77.2714 118.108 100.41 120.081 109.477C122.241 119.406 132.898 146.483 132.898 146.483L138.227 144.644C138.227 144.644 131.395 124.258 129.582 110.377C128.189 99.7149 126.202 75.6747 126.202 75.6747L115.389 77.2714Z" fill="#263238"/>
<path d="M131.537 144.781C131.514 144.789 132.629 147.056 132.629 147.056L138.835 145.041L138.108 143.187L131.537 144.781Z" fill="#825EE4"/>
<path opacity="0.3" d="M116.887 89.1453C117.737 95.5735 118.827 103.175 119.786 108.055C121.173 100.586 121.524 91.1899 116.887 89.1453Z" fill="black"/>
<path d="M109.444 78.1499C109.444 78.1499 107.189 99.8865 107.534 109.544C107.892 119.589 112.585 150.498 112.585 150.498H117.95C117.95 150.498 116.963 120.176 117.201 110.311C117.461 99.5562 121.494 76.3706 121.494 76.3706L109.444 78.1499Z" fill="#263238"/>
<path d="M111.552 148.361C111.527 148.361 111.855 150.588 111.855 150.588H118.38L118.557 148.6L111.552 148.361Z" fill="#825EE4"/>
<path d="M108.407 56.3823C107.814 57.3237 107.213 58.1703 106.589 59.0415C105.97 59.9075 105.316 60.7487 104.651 61.585C103.305 63.2478 101.87 64.8559 100.259 66.3751C99.8322 66.7441 99.4404 67.1249 98.983 67.4791L98.6493 67.7478L98.4826 67.8819C98.4204 67.9308 98.3953 67.9559 98.2689 68.047C97.8471 68.3537 97.4307 68.5435 97.0435 68.681C96.263 68.9475 95.5846 69.0093 94.9453 69.0393C94.3075 69.0651 93.7108 69.0253 93.133 68.9581C90.8298 68.6745 88.8003 68.0322 86.7754 67.1617L87.4299 64.876C89.3978 65.0726 91.4531 65.2404 93.286 65.1573C93.7415 65.1311 94.1815 65.0848 94.574 65.0168C94.9624 64.9485 95.3147 64.8365 95.4999 64.7268C95.5937 64.6763 95.6427 64.6281 95.6301 64.6175C95.6089 64.6326 95.6787 64.5696 95.7148 64.5347L95.8416 64.4151L96.0956 64.1767C96.4372 63.873 96.7622 63.504 97.0959 63.1722C97.753 62.465 98.4037 61.7403 99.0251 60.9681C99.6587 60.2123 100.27 59.4223 100.876 58.6285C101.484 57.8343 102.072 57.0204 102.666 56.2107C103.252 55.4036 103.836 54.5536 104.381 53.7674L108.407 56.3823Z" fill="#FFC3BD"/>
<path d="M110.608 55.3756C111.885 59.5496 104.479 64.181 104.479 64.181L99.666 58.0474C99.666 58.0474 101.001 55.3547 103.651 52.4703C106.925 48.9075 109.635 52.1981 110.608 55.3756Z" fill="#825EE4"/>
<g opacity="0.3">
<path d="M110.608 55.3756C111.885 59.5496 104.479 64.181 104.479 64.181L99.666 58.0474C99.666 58.0474 101.001 55.3547 103.651 52.4703C106.925 48.9075 109.635 52.1981 110.608 55.3756Z" fill="white"/>
</g>
<path d="M88.5363 65.0421L84.6406 64.3273L85.0506 67.7006C85.0506 67.7006 87.0752 68.8346 88.5473 67.0594L88.5363 65.0421Z" fill="#FFC3BD"/>
<path d="M83.1445 65.088L83.9873 67.5211L85.0506 67.7006L84.6406 64.3273L83.1445 65.088Z" fill="#FFC3BD"/>
</g>
<defs>
<clipPath id="clip0_182_9162">
<rect width="189.812" height="189.812" fill="white" transform="translate(0.09375)"/>
</clipPath>
</defs>
</svg>
