<svg width="16" height="17" viewBox="0 0 16 17" fill="none" xmlns="http://www.w3.org/2000/svg">
<path opacity="0.12" d="M11.8667 14.05C12.6134 14.05 12.9868 14.05 13.272 13.9046C13.5229 13.7768 13.7268 13.5728 13.8547 13.322C14 13.0367 14 12.6634 14 11.9166V7.51663C14 6.7699 14 6.39653 13.8547 6.11131C13.7268 5.86043 13.5229 5.65646 13.272 5.52863C12.9868 5.3833 12.6134 5.3833 11.8667 5.3833L4.13333 5.3833C3.3866 5.3833 3.01323 5.3833 2.72801 5.52863C2.47713 5.65646 2.27316 5.86043 2.14532 6.11131C2 6.39653 2 6.7699 2 7.51663L2 11.9166C2 12.6634 2 13.0367 2.14532 13.322C2.27316 13.5728 2.47713 13.7768 2.72801 13.9046C3.01323 14.05 3.3866 14.05 4.13333 14.05H11.8667Z" fill="#1D192B"/>
<path d="M10.6667 5.38302V3.05013C10.6667 2.49563 10.6667 2.21839 10.5499 2.04801C10.4478 1.89914 10.2898 1.79802 10.1118 1.76774C9.90819 1.73309 9.65646 1.84927 9.153 2.08164L3.23934 4.81102C2.79034 5.01825 2.56583 5.12187 2.4014 5.28257C2.25604 5.42464 2.14508 5.59806 2.077 5.78958C2 6.00622 2 6.25348 2 6.748V10.0497M11 9.71636H11.0067M2 7.51636L2 11.9164C2 12.6631 2 13.0365 2.14532 13.3217C2.27316 13.5726 2.47713 13.7765 2.72801 13.9044C3.01323 14.0497 3.3866 14.0497 4.13333 14.0497H11.8667C12.6134 14.0497 12.9868 14.0497 13.272 13.9044C13.5229 13.7765 13.7268 13.5726 13.8547 13.3217C14 13.0365 14 12.6631 14 11.9164V7.51636C14 6.76962 14 6.39625 13.8547 6.11104C13.7268 5.86015 13.5229 5.65618 13.272 5.52835C12.9868 5.38302 12.6134 5.38302 11.8667 5.38302L4.13333 5.38302C3.3866 5.38302 3.01323 5.38302 2.72801 5.52835C2.47713 5.65618 2.27316 5.86015 2.14532 6.11104C2 6.39625 2 6.76962 2 7.51636ZM11.3333 9.71636C11.3333 9.90045 11.1841 10.0497 11 10.0497C10.8159 10.0497 10.6667 9.90045 10.6667 9.71636C10.6667 9.53226 10.8159 9.38302 11 9.38302C11.1841 9.38302 11.3333 9.53226 11.3333 9.71636Z" stroke="#1D192B" stroke-width="1.2" stroke-linecap="round" stroke-linejoin="round"/>
</svg>
